<?xml version="1.0" encoding="utf-8" standalone="no"?>
<!DOCTYPE svg PUBLIC "-//W3C//DTD SVG 1.1//EN"
  "http://www.w3.org/Graphics/SVG/1.1/DTD/svg11.dtd">
<svg xmlns:xlink="http://www.w3.org/1999/xlink" width="1001.919375pt" height="353.754375pt" viewBox="0 0 1001.919375 353.754375" xmlns="http://www.w3.org/2000/svg" version="1.1">
 <metadata>
  <rdf:RDF xmlns:dc="http://purl.org/dc/elements/1.1/" xmlns:cc="http://creativecommons.org/ns#" xmlns:rdf="http://www.w3.org/1999/02/22-rdf-syntax-ns#">
   <cc:Work>
    <dc:type rdf:resource="http://purl.org/dc/dcmitype/StillImage"/>
    <dc:date>2025-08-21T16:00:14.478003</dc:date>
    <dc:format>image/svg+xml</dc:format>
    <dc:creator>
     <cc:Agent>
      <dc:title>Matplotlib v3.10.5, https://matplotlib.org/</dc:title>
     </cc:Agent>
    </dc:creator>
   </cc:Work>
  </rdf:RDF>
 </metadata>
 <defs>
  <style type="text/css">*{stroke-linejoin: round; stroke-linecap: butt}</style>
 </defs>
 <g id="figure_1">
  <g id="patch_1">
   <path d="M 0 353.754375 
L 1001.919375 353.754375 
L 1001.919375 0 
L 0 0 
z
" style="fill: #ffffff"/>
  </g>
  <g id="axes_1">
   <g id="patch_2">
    <path d="M 55.949375 306.52 
L 496.119375 306.52 
L 496.119375 7.2 
L 55.949375 7.2 
z
" style="fill: #ffffff"/>
   </g>
   <g id="matplotlib.axis_1">
    <g id="xtick_1">
     <g id="line2d_1">
      <defs>
       <path id="m4d52f5e8f8" d="M 0 0 
L 0 3.5 
" style="stroke: #000000; stroke-width: 0.8"/>
      </defs>
      <g>
       <use xlink:href="#m4d52f5e8f8" x="75.957102" y="306.52" style="stroke: #000000; stroke-width: 0.8"/>
      </g>
     </g>
     <g id="text_1">
      <!-- 0 -->
      <g transform="translate(71.503352 324.157812) scale(0.14 -0.14)">
       <defs>
        <path id="DejaVuSans-30" d="M 2034 4250 
Q 1547 4250 1301 3770 
Q 1056 3291 1056 2328 
Q 1056 1369 1301 889 
Q 1547 409 2034 409 
Q 2525 409 2770 889 
Q 3016 1369 3016 2328 
Q 3016 3291 2770 3770 
Q 2525 4250 2034 4250 
z
M 2034 4750 
Q 2819 4750 3233 4129 
Q 3647 3509 3647 2328 
Q 3647 1150 3233 529 
Q 2819 -91 2034 -91 
Q 1250 -91 836 529 
Q 422 1150 422 2328 
Q 422 3509 836 4129 
Q 1250 4750 2034 4750 
z
" transform="scale(0.015625)"/>
       </defs>
       <use xlink:href="#DejaVuSans-30"/>
      </g>
     </g>
    </g>
    <g id="xtick_2">
     <g id="line2d_2">
      <g>
       <use xlink:href="#m4d52f5e8f8" x="168.441925" y="306.52" style="stroke: #000000; stroke-width: 0.8"/>
      </g>
     </g>
     <g id="text_2">
      <!-- 20 -->
      <g transform="translate(159.534425 324.157812) scale(0.14 -0.14)">
       <defs>
        <path id="DejaVuSans-32" d="M 1228 531 
L 3431 531 
L 3431 0 
L 469 0 
L 469 531 
Q 828 903 1448 1529 
Q 2069 2156 2228 2338 
Q 2531 2678 2651 2914 
Q 2772 3150 2772 3378 
Q 2772 3750 2511 3984 
Q 2250 4219 1831 4219 
Q 1534 4219 1204 4116 
Q 875 4013 500 3803 
L 500 4441 
Q 881 4594 1212 4672 
Q 1544 4750 1819 4750 
Q 2544 4750 2975 4387 
Q 3406 4025 3406 3419 
Q 3406 3131 3298 2873 
Q 3191 2616 2906 2266 
Q 2828 2175 2409 1742 
Q 1991 1309 1228 531 
z
" transform="scale(0.015625)"/>
       </defs>
       <use xlink:href="#DejaVuSans-32"/>
       <use xlink:href="#DejaVuSans-30" transform="translate(63.623047 0)"/>
      </g>
     </g>
    </g>
    <g id="xtick_3">
     <g id="line2d_3">
      <g>
       <use xlink:href="#m4d52f5e8f8" x="260.926748" y="306.52" style="stroke: #000000; stroke-width: 0.8"/>
      </g>
     </g>
     <g id="text_3">
      <!-- 40 -->
      <g transform="translate(252.019248 324.157812) scale(0.14 -0.14)">
       <defs>
        <path id="DejaVuSans-34" d="M 2419 4116 
L 825 1625 
L 2419 1625 
L 2419 4116 
z
M 2253 4666 
L 3047 4666 
L 3047 1625 
L 3713 1625 
L 3713 1100 
L 3047 1100 
L 3047 0 
L 2419 0 
L 2419 1100 
L 313 1100 
L 313 1709 
L 2253 4666 
z
" transform="scale(0.015625)"/>
       </defs>
       <use xlink:href="#DejaVuSans-34"/>
       <use xlink:href="#DejaVuSans-30" transform="translate(63.623047 0)"/>
      </g>
     </g>
    </g>
    <g id="xtick_4">
     <g id="line2d_4">
      <g>
       <use xlink:href="#m4d52f5e8f8" x="353.411571" y="306.52" style="stroke: #000000; stroke-width: 0.8"/>
      </g>
     </g>
     <g id="text_4">
      <!-- 60 -->
      <g transform="translate(344.504071 324.157812) scale(0.14 -0.14)">
       <defs>
        <path id="DejaVuSans-36" d="M 2113 2584 
Q 1688 2584 1439 2293 
Q 1191 2003 1191 1497 
Q 1191 994 1439 701 
Q 1688 409 2113 409 
Q 2538 409 2786 701 
Q 3034 994 3034 1497 
Q 3034 2003 2786 2293 
Q 2538 2584 2113 2584 
z
M 3366 4563 
L 3366 3988 
Q 3128 4100 2886 4159 
Q 2644 4219 2406 4219 
Q 1781 4219 1451 3797 
Q 1122 3375 1075 2522 
Q 1259 2794 1537 2939 
Q 1816 3084 2150 3084 
Q 2853 3084 3261 2657 
Q 3669 2231 3669 1497 
Q 3669 778 3244 343 
Q 2819 -91 2113 -91 
Q 1303 -91 875 529 
Q 447 1150 447 2328 
Q 447 3434 972 4092 
Q 1497 4750 2381 4750 
Q 2619 4750 2861 4703 
Q 3103 4656 3366 4563 
z
" transform="scale(0.015625)"/>
       </defs>
       <use xlink:href="#DejaVuSans-36"/>
       <use xlink:href="#DejaVuSans-30" transform="translate(63.623047 0)"/>
      </g>
     </g>
    </g>
    <g id="xtick_5">
     <g id="line2d_5">
      <g>
       <use xlink:href="#m4d52f5e8f8" x="445.896394" y="306.52" style="stroke: #000000; stroke-width: 0.8"/>
      </g>
     </g>
     <g id="text_5">
      <!-- 80 -->
      <g transform="translate(436.988894 324.157812) scale(0.14 -0.14)">
       <defs>
        <path id="DejaVuSans-38" d="M 2034 2216 
Q 1584 2216 1326 1975 
Q 1069 1734 1069 1313 
Q 1069 891 1326 650 
Q 1584 409 2034 409 
Q 2484 409 2743 651 
Q 3003 894 3003 1313 
Q 3003 1734 2745 1975 
Q 2488 2216 2034 2216 
z
M 1403 2484 
Q 997 2584 770 2862 
Q 544 3141 544 3541 
Q 544 4100 942 4425 
Q 1341 4750 2034 4750 
Q 2731 4750 3128 4425 
Q 3525 4100 3525 3541 
Q 3525 3141 3298 2862 
Q 3072 2584 2669 2484 
Q 3125 2378 3379 2068 
Q 3634 1759 3634 1313 
Q 3634 634 3220 271 
Q 2806 -91 2034 -91 
Q 1263 -91 848 271 
Q 434 634 434 1313 
Q 434 1759 690 2068 
Q 947 2378 1403 2484 
z
M 1172 3481 
Q 1172 3119 1398 2916 
Q 1625 2713 2034 2713 
Q 2441 2713 2670 2916 
Q 2900 3119 2900 3481 
Q 2900 3844 2670 4047 
Q 2441 4250 2034 4250 
Q 1625 4250 1398 4047 
Q 1172 3844 1172 3481 
z
" transform="scale(0.015625)"/>
       </defs>
       <use xlink:href="#DejaVuSans-38"/>
       <use xlink:href="#DejaVuSans-30" transform="translate(63.623047 0)"/>
      </g>
     </g>
    </g>
    <g id="text_6">
     <!-- Area (mm²) -->
     <g transform="translate(230.050625 343.226875) scale(0.16 -0.16)">
      <defs>
       <path id="DejaVuSans-41" d="M 2188 4044 
L 1331 1722 
L 3047 1722 
L 2188 4044 
z
M 1831 4666 
L 2547 4666 
L 4325 0 
L 3669 0 
L 3244 1197 
L 1141 1197 
L 716 0 
L 50 0 
L 1831 4666 
z
" transform="scale(0.015625)"/>
       <path id="DejaVuSans-72" d="M 2631 2963 
Q 2534 3019 2420 3045 
Q 2306 3072 2169 3072 
Q 1681 3072 1420 2755 
Q 1159 2438 1159 1844 
L 1159 0 
L 581 0 
L 581 3500 
L 1159 3500 
L 1159 2956 
Q 1341 3275 1631 3429 
Q 1922 3584 2338 3584 
Q 2397 3584 2469 3576 
Q 2541 3569 2628 3553 
L 2631 2963 
z
" transform="scale(0.015625)"/>
       <path id="DejaVuSans-65" d="M 3597 1894 
L 3597 1613 
L 953 1613 
Q 991 1019 1311 708 
Q 1631 397 2203 397 
Q 2534 397 2845 478 
Q 3156 559 3463 722 
L 3463 178 
Q 3153 47 2828 -22 
Q 2503 -91 2169 -91 
Q 1331 -91 842 396 
Q 353 884 353 1716 
Q 353 2575 817 3079 
Q 1281 3584 2069 3584 
Q 2775 3584 3186 3129 
Q 3597 2675 3597 1894 
z
M 3022 2063 
Q 3016 2534 2758 2815 
Q 2500 3097 2075 3097 
Q 1594 3097 1305 2825 
Q 1016 2553 972 2059 
L 3022 2063 
z
" transform="scale(0.015625)"/>
       <path id="DejaVuSans-61" d="M 2194 1759 
Q 1497 1759 1228 1600 
Q 959 1441 959 1056 
Q 959 750 1161 570 
Q 1363 391 1709 391 
Q 2188 391 2477 730 
Q 2766 1069 2766 1631 
L 2766 1759 
L 2194 1759 
z
M 3341 1997 
L 3341 0 
L 2766 0 
L 2766 531 
Q 2569 213 2275 61 
Q 1981 -91 1556 -91 
Q 1019 -91 701 211 
Q 384 513 384 1019 
Q 384 1609 779 1909 
Q 1175 2209 1959 2209 
L 2766 2209 
L 2766 2266 
Q 2766 2663 2505 2880 
Q 2244 3097 1772 3097 
Q 1472 3097 1187 3025 
Q 903 2953 641 2809 
L 641 3341 
Q 956 3463 1253 3523 
Q 1550 3584 1831 3584 
Q 2591 3584 2966 3190 
Q 3341 2797 3341 1997 
z
" transform="scale(0.015625)"/>
       <path id="DejaVuSans-20" transform="scale(0.015625)"/>
       <path id="DejaVuSans-28" d="M 1984 4856 
Q 1566 4138 1362 3434 
Q 1159 2731 1159 2009 
Q 1159 1288 1364 580 
Q 1569 -128 1984 -844 
L 1484 -844 
Q 1016 -109 783 600 
Q 550 1309 550 2009 
Q 550 2706 781 3412 
Q 1013 4119 1484 4856 
L 1984 4856 
z
" transform="scale(0.015625)"/>
       <path id="DejaVuSans-6d" d="M 3328 2828 
Q 3544 3216 3844 3400 
Q 4144 3584 4550 3584 
Q 5097 3584 5394 3201 
Q 5691 2819 5691 2113 
L 5691 0 
L 5113 0 
L 5113 2094 
Q 5113 2597 4934 2840 
Q 4756 3084 4391 3084 
Q 3944 3084 3684 2787 
Q 3425 2491 3425 1978 
L 3425 0 
L 2847 0 
L 2847 2094 
Q 2847 2600 2669 2842 
Q 2491 3084 2119 3084 
Q 1678 3084 1418 2786 
Q 1159 2488 1159 1978 
L 1159 0 
L 581 0 
L 581 3500 
L 1159 3500 
L 1159 2956 
Q 1356 3278 1631 3431 
Q 1906 3584 2284 3584 
Q 2666 3584 2933 3390 
Q 3200 3197 3328 2828 
z
" transform="scale(0.015625)"/>
       <path id="DejaVuSans-b2" d="M 838 2444 
L 2163 2444 
L 2163 2088 
L 294 2088 
L 294 2431 
Q 400 2528 597 2703 
Q 1672 3656 1672 3950 
Q 1672 4156 1509 4282 
Q 1347 4409 1081 4409 
Q 919 4409 728 4354 
Q 538 4300 313 4191 
L 313 4575 
Q 553 4663 761 4706 
Q 969 4750 1147 4750 
Q 1600 4750 1872 4544 
Q 2144 4338 2144 4000 
Q 2144 3566 1109 2678 
Q 934 2528 838 2444 
z
" transform="scale(0.015625)"/>
       <path id="DejaVuSans-29" d="M 513 4856 
L 1013 4856 
Q 1481 4119 1714 3412 
Q 1947 2706 1947 2009 
Q 1947 1309 1714 600 
Q 1481 -109 1013 -844 
L 513 -844 
Q 928 -128 1133 580 
Q 1338 1288 1338 2009 
Q 1338 2731 1133 3434 
Q 928 4138 513 4856 
z
" transform="scale(0.015625)"/>
      </defs>
      <use xlink:href="#DejaVuSans-41"/>
      <use xlink:href="#DejaVuSans-72" transform="translate(68.408203 0)"/>
      <use xlink:href="#DejaVuSans-65" transform="translate(107.271484 0)"/>
      <use xlink:href="#DejaVuSans-61" transform="translate(168.794922 0)"/>
      <use xlink:href="#DejaVuSans-20" transform="translate(230.074219 0)"/>
      <use xlink:href="#DejaVuSans-28" transform="translate(261.861328 0)"/>
      <use xlink:href="#DejaVuSans-6d" transform="translate(300.875 0)"/>
      <use xlink:href="#DejaVuSans-6d" transform="translate(398.287109 0)"/>
      <use xlink:href="#DejaVuSans-b2" transform="translate(495.699219 0)"/>
      <use xlink:href="#DejaVuSans-29" transform="translate(535.787109 0)"/>
     </g>
    </g>
   </g>
   <g id="matplotlib.axis_2">
    <g id="ytick_1">
     <g id="line2d_6">
      <defs>
       <path id="m05a626e804" d="M 0 0 
L -3.5 0 
" style="stroke: #000000; stroke-width: 0.8"/>
      </defs>
      <g>
       <use xlink:href="#m05a626e804" x="55.949375" y="292.953324" style="stroke: #000000; stroke-width: 0.8"/>
      </g>
     </g>
     <g id="text_7">
      <!-- 0.0 -->
      <g transform="translate(26.685 298.27223) scale(0.14 -0.14)">
       <defs>
        <path id="DejaVuSans-2e" d="M 684 794 
L 1344 794 
L 1344 0 
L 684 0 
L 684 794 
z
" transform="scale(0.015625)"/>
       </defs>
       <use xlink:href="#DejaVuSans-30"/>
       <use xlink:href="#DejaVuSans-2e" transform="translate(63.623047 0)"/>
       <use xlink:href="#DejaVuSans-30" transform="translate(95.410156 0)"/>
      </g>
     </g>
    </g>
    <g id="ytick_2">
     <g id="line2d_7">
      <g>
       <use xlink:href="#m05a626e804" x="55.949375" y="238.52375" style="stroke: #000000; stroke-width: 0.8"/>
      </g>
     </g>
     <g id="text_8">
      <!-- 0.2 -->
      <g transform="translate(26.685 243.842656) scale(0.14 -0.14)">
       <use xlink:href="#DejaVuSans-30"/>
       <use xlink:href="#DejaVuSans-2e" transform="translate(63.623047 0)"/>
       <use xlink:href="#DejaVuSans-32" transform="translate(95.410156 0)"/>
      </g>
     </g>
    </g>
    <g id="ytick_3">
     <g id="line2d_8">
      <g>
       <use xlink:href="#m05a626e804" x="55.949375" y="184.094176" style="stroke: #000000; stroke-width: 0.8"/>
      </g>
     </g>
     <g id="text_9">
      <!-- 0.4 -->
      <g transform="translate(26.685 189.413082) scale(0.14 -0.14)">
       <use xlink:href="#DejaVuSans-30"/>
       <use xlink:href="#DejaVuSans-2e" transform="translate(63.623047 0)"/>
       <use xlink:href="#DejaVuSans-34" transform="translate(95.410156 0)"/>
      </g>
     </g>
    </g>
    <g id="ytick_4">
     <g id="line2d_9">
      <g>
       <use xlink:href="#m05a626e804" x="55.949375" y="129.664602" style="stroke: #000000; stroke-width: 0.8"/>
      </g>
     </g>
     <g id="text_10">
      <!-- 0.6 -->
      <g transform="translate(26.685 134.983509) scale(0.14 -0.14)">
       <use xlink:href="#DejaVuSans-30"/>
       <use xlink:href="#DejaVuSans-2e" transform="translate(63.623047 0)"/>
       <use xlink:href="#DejaVuSans-36" transform="translate(95.410156 0)"/>
      </g>
     </g>
    </g>
    <g id="ytick_5">
     <g id="line2d_10">
      <g>
       <use xlink:href="#m05a626e804" x="55.949375" y="75.235028" style="stroke: #000000; stroke-width: 0.8"/>
      </g>
     </g>
     <g id="text_11">
      <!-- 0.8 -->
      <g transform="translate(26.685 80.553935) scale(0.14 -0.14)">
       <use xlink:href="#DejaVuSans-30"/>
       <use xlink:href="#DejaVuSans-2e" transform="translate(63.623047 0)"/>
       <use xlink:href="#DejaVuSans-38" transform="translate(95.410156 0)"/>
      </g>
     </g>
    </g>
    <g id="ytick_6">
     <g id="line2d_11">
      <g>
       <use xlink:href="#m05a626e804" x="55.949375" y="20.805455" style="stroke: #000000; stroke-width: 0.8"/>
      </g>
     </g>
     <g id="text_12">
      <!-- 1.0 -->
      <g transform="translate(26.685 26.124361) scale(0.14 -0.14)">
       <defs>
        <path id="DejaVuSans-31" d="M 794 531 
L 1825 531 
L 1825 4091 
L 703 3866 
L 703 4441 
L 1819 4666 
L 2450 4666 
L 2450 531 
L 3481 531 
L 3481 0 
L 794 0 
L 794 531 
z
" transform="scale(0.015625)"/>
       </defs>
       <use xlink:href="#DejaVuSans-31"/>
       <use xlink:href="#DejaVuSans-2e" transform="translate(63.623047 0)"/>
       <use xlink:href="#DejaVuSans-30" transform="translate(95.410156 0)"/>
      </g>
     </g>
    </g>
    <g id="text_13">
     <!-- Probability -->
     <g transform="translate(19.3575 199.14625) rotate(-90) scale(0.16 -0.16)">
      <defs>
       <path id="DejaVuSans-50" d="M 1259 4147 
L 1259 2394 
L 2053 2394 
Q 2494 2394 2734 2622 
Q 2975 2850 2975 3272 
Q 2975 3691 2734 3919 
Q 2494 4147 2053 4147 
L 1259 4147 
z
M 628 4666 
L 2053 4666 
Q 2838 4666 3239 4311 
Q 3641 3956 3641 3272 
Q 3641 2581 3239 2228 
Q 2838 1875 2053 1875 
L 1259 1875 
L 1259 0 
L 628 0 
L 628 4666 
z
" transform="scale(0.015625)"/>
       <path id="DejaVuSans-6f" d="M 1959 3097 
Q 1497 3097 1228 2736 
Q 959 2375 959 1747 
Q 959 1119 1226 758 
Q 1494 397 1959 397 
Q 2419 397 2687 759 
Q 2956 1122 2956 1747 
Q 2956 2369 2687 2733 
Q 2419 3097 1959 3097 
z
M 1959 3584 
Q 2709 3584 3137 3096 
Q 3566 2609 3566 1747 
Q 3566 888 3137 398 
Q 2709 -91 1959 -91 
Q 1206 -91 779 398 
Q 353 888 353 1747 
Q 353 2609 779 3096 
Q 1206 3584 1959 3584 
z
" transform="scale(0.015625)"/>
       <path id="DejaVuSans-62" d="M 3116 1747 
Q 3116 2381 2855 2742 
Q 2594 3103 2138 3103 
Q 1681 3103 1420 2742 
Q 1159 2381 1159 1747 
Q 1159 1113 1420 752 
Q 1681 391 2138 391 
Q 2594 391 2855 752 
Q 3116 1113 3116 1747 
z
M 1159 2969 
Q 1341 3281 1617 3432 
Q 1894 3584 2278 3584 
Q 2916 3584 3314 3078 
Q 3713 2572 3713 1747 
Q 3713 922 3314 415 
Q 2916 -91 2278 -91 
Q 1894 -91 1617 61 
Q 1341 213 1159 525 
L 1159 0 
L 581 0 
L 581 4863 
L 1159 4863 
L 1159 2969 
z
" transform="scale(0.015625)"/>
       <path id="DejaVuSans-69" d="M 603 3500 
L 1178 3500 
L 1178 0 
L 603 0 
L 603 3500 
z
M 603 4863 
L 1178 4863 
L 1178 4134 
L 603 4134 
L 603 4863 
z
" transform="scale(0.015625)"/>
       <path id="DejaVuSans-6c" d="M 603 4863 
L 1178 4863 
L 1178 0 
L 603 0 
L 603 4863 
z
" transform="scale(0.015625)"/>
       <path id="DejaVuSans-74" d="M 1172 4494 
L 1172 3500 
L 2356 3500 
L 2356 3053 
L 1172 3053 
L 1172 1153 
Q 1172 725 1289 603 
Q 1406 481 1766 481 
L 2356 481 
L 2356 0 
L 1766 0 
Q 1100 0 847 248 
Q 594 497 594 1153 
L 594 3053 
L 172 3053 
L 172 3500 
L 594 3500 
L 594 4494 
L 1172 4494 
z
" transform="scale(0.015625)"/>
       <path id="DejaVuSans-79" d="M 2059 -325 
Q 1816 -950 1584 -1140 
Q 1353 -1331 966 -1331 
L 506 -1331 
L 506 -850 
L 844 -850 
Q 1081 -850 1212 -737 
Q 1344 -625 1503 -206 
L 1606 56 
L 191 3500 
L 800 3500 
L 1894 763 
L 2988 3500 
L 3597 3500 
L 2059 -325 
z
" transform="scale(0.015625)"/>
      </defs>
      <use xlink:href="#DejaVuSans-50"/>
      <use xlink:href="#DejaVuSans-72" transform="translate(58.552734 0)"/>
      <use xlink:href="#DejaVuSans-6f" transform="translate(97.416016 0)"/>
      <use xlink:href="#DejaVuSans-62" transform="translate(158.597656 0)"/>
      <use xlink:href="#DejaVuSans-61" transform="translate(222.074219 0)"/>
      <use xlink:href="#DejaVuSans-62" transform="translate(283.353516 0)"/>
      <use xlink:href="#DejaVuSans-69" transform="translate(346.830078 0)"/>
      <use xlink:href="#DejaVuSans-6c" transform="translate(374.613281 0)"/>
      <use xlink:href="#DejaVuSans-69" transform="translate(402.396484 0)"/>
      <use xlink:href="#DejaVuSans-74" transform="translate(430.179688 0)"/>
      <use xlink:href="#DejaVuSans-79" transform="translate(469.388672 0)"/>
     </g>
    </g>
   </g>
   <g id="line2d_12">
    <path d="M 75.957102 292.914545 
L 76.244268 292.759431 
L 76.437792 292.177753 
L 76.604265 291.130732 
L 77.032932 285.197614 
L 77.172353 282.870901 
L 77.28056 280.544188 
L 77.336745 278.993046 
L 77.667609 270.771993 
L 77.775816 267.63093 
L 77.819515 266.661467 
L 77.929804 264.024525 
L 78.117085 258.479192 
L 78.225293 255.299351 
L 78.281477 253.748209 
L 78.641474 244.984257 
L 78.749681 242.502429 
L 78.793381 241.532966 
L 79.209562 231.721992 
L 79.315689 229.550393 
L 79.346902 229.007494 
L 79.881696 216.986143 
L 79.991984 215.047215 
L 81.904339 181.426212 
L 81.977171 180.573084 
L 82.61601 170.645775 
L 82.697165 169.753868 
L 82.807453 167.970055 
L 83.065486 165.139221 
L 83.094618 164.751435 
L 83.202826 163.471743 
L 83.800046 156.879389 
L 84.087212 153.583212 
L 84.320274 151.450392 
L 84.58663 148.542001 
L 84.905009 145.866281 
L 85.119342 143.927353 
L 85.285815 142.221097 
L 85.396103 141.251633 
L 86.03078 136.326757 
L 86.091127 135.97775 
L 86.272166 134.620501 
L 86.41991 133.806152 
L 86.521875 132.875466 
L 86.607192 132.25501 
L 86.713318 131.16921 
L 90.585889 107.708187 
L 90.669125 107.475516 
L 90.879297 106.27338 
L 90.972938 105.652924 
L 91.058255 105.22636 
L 91.784492 101.348505 
L 91.890619 100.999498 
L 92.032121 100.379041 
L 92.134085 99.719805 
L 92.323448 98.866677 
L 92.385875 98.634006 
L 92.847837 96.92775 
L 92.962287 96.6563 
L 93.103788 95.686836 
L 93.182863 95.454165 
L 93.276504 95.066379 
L 93.384711 94.639815 
L 93.492918 94.058137 
L 93.678119 93.243787 
L 93.744708 92.972338 
L 93.892453 92.274324 
L 94.071411 91.615088 
L 94.175456 91.343638 
L 96.31463 83.743042 
L 96.389543 83.471593 
L 96.49775 83.238921 
L 96.56642 83.00625 
L 96.757864 82.114343 
L 96.970116 81.726558 
L 97.113699 81.532665 
L 97.286415 80.989765 
L 97.380055 80.834651 
L 97.71092 79.903966 
L 97.854503 79.51618 
L 98.089645 79.012059 
L 98.218662 78.585495 
L 98.316464 78.430381 
L 99.019811 76.724125 
L 99.240388 76.220004 
L 99.348595 75.948554 
L 99.49842 75.560768 
L 100.453557 73.893291 
L 100.846849 72.768713 
L 101.017484 72.458484 
L 101.177713 72.187034 
L 101.317134 71.838027 
L 101.55852 71.217571 
L 101.668808 71.023678 
L 101.8332 70.597114 
L 101.985106 70.325664 
L 102.343022 69.860321 
L 102.628107 69.3562 
L 102.723828 69.08475 
L 102.938162 68.735743 
L 103.947403 67.22338 
L 104.080581 66.874373 
L 104.203354 66.68048 
L 104.390636 66.176359 
L 104.542543 65.904909 
L 104.992019 65.206895 
L 105.150168 65.051781 
L 105.358259 64.741553 
L 105.570511 64.353767 
L 105.722418 64.082317 
L 105.984612 63.810867 
L 106.263454 63.655753 
L 106.511082 63.384303 
L 108.188294 61.173926 
L 108.433841 60.941255 
L 108.937421 60.282019 
L 108.991525 60.165684 
L 109.380655 59.894234 
L 109.501348 59.700341 
L 109.740652 59.351334 
L 109.865507 59.19622 
L 110.065274 58.92477 
L 110.252555 58.614542 
L 110.448161 58.420649 
L 110.664575 58.187978 
L 110.905961 58.032863 
L 110.939255 57.955306 
L 111.145265 57.800192 
L 112.160749 56.598057 
L 112.329302 56.442943 
L 112.514503 56.24905 
L 112.909876 55.861264 
L 113.661084 54.969358 
L 113.81299 54.775465 
L 114.033566 54.504015 
L 114.612059 53.999894 
L 114.699457 53.922337 
L 115.04905 53.767223 
L 115.105234 53.689666 
L 115.240493 53.534551 
L 115.494364 53.224323 
L 115.879332 52.797759 
L 116.139446 52.603866 
L 116.293433 52.487531 
L 116.591003 52.293638 
L 116.591003 52.254859 
L 116.769961 52.099745 
L 116.988456 51.905852 
L 117.244408 51.673181 
L 117.452499 51.518067 
L 117.658509 51.362953 
L 117.922784 50.936389 
L 118.422202 50.509824 
L 118.809251 50.238375 
L 119.009019 49.928146 
L 119.375258 49.734253 
L 119.51676 49.617918 
L 119.968317 49.385246 
L 120.619642 48.726011 
L 120.82149 48.454561 
L 121.121141 48.299447 
L 121.489461 48.105554 
L 121.653853 47.989219 
L 121.934776 47.834104 
L 122.119977 47.562655 
L 122.157433 47.485097 
L 122.398818 47.329983 
L 122.937774 46.903419 
L 122.960664 46.864641 
L 123.281124 46.709526 
L 123.790946 46.399298 
L 123.978228 46.282962 
L 124.537992 45.933955 
L 124.660766 45.740063 
L 124.991631 45.54617 
L 125.613822 45.042049 
L 126.429538 44.382813 
L 126.475318 44.305256 
L 126.856125 43.995028 
L 126.86861 43.917471 
L 127.469993 43.6848 
L 127.636465 43.529685 
L 128.266981 43.219457 
L 128.331489 43.064343 
L 129.138881 42.831671 
L 129.505121 42.676557 
L 129.80061 42.443886 
L 130.668349 41.900986 
L 132.387179 41.358086 
L 132.437121 41.280529 
L 133.105093 41.047858 
L 133.596187 40.621294 
L 134.216298 40.388623 
L 134.382771 40.233508 
L 134.686583 40.117173 
L 134.690745 40.078394 
L 135.831083 39.65183 
L 136.164028 39.457937 
L 137.801703 38.915038 
L 137.88494 38.798702 
L 138.521698 38.604809 
L 141.84907 37.092446 
L 142.157045 36.898553 
L 142.204906 36.859775 
L 142.81045 36.665882 
L 142.937386 36.549546 
L 143.407671 36.355653 
L 146.029616 35.424968 
L 147.159549 35.269854 
L 147.303132 35.192297 
L 147.681857 35.037183 
L 147.777579 34.959626 
L 148.455955 34.726954 
L 150.029122 34.145276 
L 150.262183 33.912605 
L 151.142408 33.718712 
L 152.091302 33.524819 
L 152.174538 33.447262 
L 152.509565 33.253369 
L 152.605286 33.175812 
L 153.083895 32.981919 
L 153.354414 32.826805 
L 154.49059 32.477798 
L 154.602959 32.361463 
L 155.250121 32.206348 
L 156.020057 31.934899 
L 156.082485 31.857342 
L 158.125937 31.391999 
L 160.1028 31.081771 
L 160.26303 31.004213 
L 167.723087 29.802078 
L 168.178806 29.724521 
L 176.808333 28.522386 
L 177.765551 28.289715 
L 179.534324 28.018265 
L 180.356282 27.824372 
L 182.468405 27.630479 
L 184.183073 27.436587 
L 190.84198 26.81613 
L 193.692825 26.622237 
L 197.783891 26.079337 
L 201.754265 25.73033 
L 202.771829 25.458881 
L 202.834256 25.420102 
L 209.262183 24.722088 
L 211.607366 24.566974 
L 211.653146 24.489417 
L 213.113944 24.334303 
L 214.11278 24.179188 
L 221.622779 23.907739 
L 226.252801 23.519953 
L 228.951739 23.364839 
L 229.064108 23.287282 
L 229.461562 23.209725 
L 236.330641 22.938275 
L 240.79627 22.744382 
L 241.713951 22.589268 
L 249.927297 22.085147 
L 261.692754 21.852475 
L 262.76026 21.73614 
L 328.860319 21.115683 
L 374.2595 20.960569 
L 387.308877 20.883012 
L 476.111648 20.805455 
L 476.111648 20.805455 
" clip-path="url(#pe76aaab382)" style="fill: none; stroke: #0000ff; stroke-width: 1.5; stroke-linecap: square"/>
   </g>
   <g id="patch_3">
    <path d="M 55.949375 306.52 
L 55.949375 7.2 
" style="fill: none; stroke: #000000; stroke-width: 0.8; stroke-linejoin: miter; stroke-linecap: square"/>
   </g>
   <g id="patch_4">
    <path d="M 496.119375 306.52 
L 496.119375 7.2 
" style="fill: none; stroke: #000000; stroke-width: 0.8; stroke-linejoin: miter; stroke-linecap: square"/>
   </g>
   <g id="patch_5">
    <path d="M 55.949375 306.52 
L 496.119375 306.52 
" style="fill: none; stroke: #000000; stroke-width: 0.8; stroke-linejoin: miter; stroke-linecap: square"/>
   </g>
   <g id="patch_6">
    <path d="M 55.949375 7.2 
L 496.119375 7.2 
" style="fill: none; stroke: #000000; stroke-width: 0.8; stroke-linejoin: miter; stroke-linecap: square"/>
   </g>
  </g>
  <g id="axes_2">
   <g id="patch_7">
    <path d="M 554.549375 306.52 
L 994.719375 306.52 
L 994.719375 7.2 
L 554.549375 7.2 
z
" style="fill: #ffffff"/>
   </g>
   <g id="matplotlib.axis_3">
    <g id="xtick_6">
     <g id="line2d_13">
      <g>
       <use xlink:href="#m4d52f5e8f8" x="571.93791" y="306.52" style="stroke: #000000; stroke-width: 0.8"/>
      </g>
     </g>
     <g id="text_14">
      <!-- 0 -->
      <g transform="translate(567.48416 324.157812) scale(0.14 -0.14)">
       <use xlink:href="#DejaVuSans-30"/>
      </g>
     </g>
    </g>
    <g id="xtick_7">
     <g id="line2d_14">
      <g>
       <use xlink:href="#m4d52f5e8f8" x="627.151835" y="306.52" style="stroke: #000000; stroke-width: 0.8"/>
      </g>
     </g>
     <g id="text_15">
      <!-- 2 -->
      <g transform="translate(622.698085 324.157812) scale(0.14 -0.14)">
       <use xlink:href="#DejaVuSans-32"/>
      </g>
     </g>
    </g>
    <g id="xtick_8">
     <g id="line2d_15">
      <g>
       <use xlink:href="#m4d52f5e8f8" x="682.36576" y="306.52" style="stroke: #000000; stroke-width: 0.8"/>
      </g>
     </g>
     <g id="text_16">
      <!-- 4 -->
      <g transform="translate(677.91201 324.157812) scale(0.14 -0.14)">
       <use xlink:href="#DejaVuSans-34"/>
      </g>
     </g>
    </g>
    <g id="xtick_9">
     <g id="line2d_16">
      <g>
       <use xlink:href="#m4d52f5e8f8" x="737.579685" y="306.52" style="stroke: #000000; stroke-width: 0.8"/>
      </g>
     </g>
     <g id="text_17">
      <!-- 6 -->
      <g transform="translate(733.125935 324.157812) scale(0.14 -0.14)">
       <use xlink:href="#DejaVuSans-36"/>
      </g>
     </g>
    </g>
    <g id="xtick_10">
     <g id="line2d_17">
      <g>
       <use xlink:href="#m4d52f5e8f8" x="792.79361" y="306.52" style="stroke: #000000; stroke-width: 0.8"/>
      </g>
     </g>
     <g id="text_18">
      <!-- 8 -->
      <g transform="translate(788.33986 324.157812) scale(0.14 -0.14)">
       <use xlink:href="#DejaVuSans-38"/>
      </g>
     </g>
    </g>
    <g id="xtick_11">
     <g id="line2d_18">
      <g>
       <use xlink:href="#m4d52f5e8f8" x="848.007535" y="306.52" style="stroke: #000000; stroke-width: 0.8"/>
      </g>
     </g>
     <g id="text_19">
      <!-- 10 -->
      <g transform="translate(839.100035 324.157812) scale(0.14 -0.14)">
       <use xlink:href="#DejaVuSans-31"/>
       <use xlink:href="#DejaVuSans-30" transform="translate(63.623047 0)"/>
      </g>
     </g>
    </g>
    <g id="xtick_12">
     <g id="line2d_19">
      <g>
       <use xlink:href="#m4d52f5e8f8" x="903.22146" y="306.52" style="stroke: #000000; stroke-width: 0.8"/>
      </g>
     </g>
     <g id="text_20">
      <!-- 12 -->
      <g transform="translate(894.31396 324.157812) scale(0.14 -0.14)">
       <use xlink:href="#DejaVuSans-31"/>
       <use xlink:href="#DejaVuSans-32" transform="translate(63.623047 0)"/>
      </g>
     </g>
    </g>
    <g id="xtick_13">
     <g id="line2d_20">
      <g>
       <use xlink:href="#m4d52f5e8f8" x="958.435385" y="306.52" style="stroke: #000000; stroke-width: 0.8"/>
      </g>
     </g>
     <g id="text_21">
      <!-- 14 -->
      <g transform="translate(949.527885 324.157812) scale(0.14 -0.14)">
       <use xlink:href="#DejaVuSans-31"/>
       <use xlink:href="#DejaVuSans-34" transform="translate(63.623047 0)"/>
      </g>
     </g>
    </g>
    <g id="text_22">
     <!-- Diameter (mm) -->
     <g transform="translate(712.916875 343.226875) scale(0.16 -0.16)">
      <defs>
       <path id="DejaVuSans-44" d="M 1259 4147 
L 1259 519 
L 2022 519 
Q 2988 519 3436 956 
Q 3884 1394 3884 2338 
Q 3884 3275 3436 3711 
Q 2988 4147 2022 4147 
L 1259 4147 
z
M 628 4666 
L 1925 4666 
Q 3281 4666 3915 4102 
Q 4550 3538 4550 2338 
Q 4550 1131 3912 565 
Q 3275 0 1925 0 
L 628 0 
L 628 4666 
z
" transform="scale(0.015625)"/>
      </defs>
      <use xlink:href="#DejaVuSans-44"/>
      <use xlink:href="#DejaVuSans-69" transform="translate(77.001953 0)"/>
      <use xlink:href="#DejaVuSans-61" transform="translate(104.785156 0)"/>
      <use xlink:href="#DejaVuSans-6d" transform="translate(166.064453 0)"/>
      <use xlink:href="#DejaVuSans-65" transform="translate(263.476562 0)"/>
      <use xlink:href="#DejaVuSans-74" transform="translate(325 0)"/>
      <use xlink:href="#DejaVuSans-65" transform="translate(364.208984 0)"/>
      <use xlink:href="#DejaVuSans-72" transform="translate(425.732422 0)"/>
      <use xlink:href="#DejaVuSans-20" transform="translate(466.845703 0)"/>
      <use xlink:href="#DejaVuSans-28" transform="translate(498.632812 0)"/>
      <use xlink:href="#DejaVuSans-6d" transform="translate(537.646484 0)"/>
      <use xlink:href="#DejaVuSans-6d" transform="translate(635.058594 0)"/>
      <use xlink:href="#DejaVuSans-29" transform="translate(732.470703 0)"/>
     </g>
    </g>
   </g>
   <g id="matplotlib.axis_4">
    <g id="ytick_7">
     <g id="line2d_21">
      <g>
       <use xlink:href="#m05a626e804" x="554.549375" y="292.953324" style="stroke: #000000; stroke-width: 0.8"/>
      </g>
     </g>
     <g id="text_23">
      <!-- 0.0 -->
      <g transform="translate(525.285 298.27223) scale(0.14 -0.14)">
       <use xlink:href="#DejaVuSans-30"/>
       <use xlink:href="#DejaVuSans-2e" transform="translate(63.623047 0)"/>
       <use xlink:href="#DejaVuSans-30" transform="translate(95.410156 0)"/>
      </g>
     </g>
    </g>
    <g id="ytick_8">
     <g id="line2d_22">
      <g>
       <use xlink:href="#m05a626e804" x="554.549375" y="238.52375" style="stroke: #000000; stroke-width: 0.8"/>
      </g>
     </g>
     <g id="text_24">
      <!-- 0.2 -->
      <g transform="translate(525.285 243.842656) scale(0.14 -0.14)">
       <use xlink:href="#DejaVuSans-30"/>
       <use xlink:href="#DejaVuSans-2e" transform="translate(63.623047 0)"/>
       <use xlink:href="#DejaVuSans-32" transform="translate(95.410156 0)"/>
      </g>
     </g>
    </g>
    <g id="ytick_9">
     <g id="line2d_23">
      <g>
       <use xlink:href="#m05a626e804" x="554.549375" y="184.094176" style="stroke: #000000; stroke-width: 0.8"/>
      </g>
     </g>
     <g id="text_25">
      <!-- 0.4 -->
      <g transform="translate(525.285 189.413082) scale(0.14 -0.14)">
       <use xlink:href="#DejaVuSans-30"/>
       <use xlink:href="#DejaVuSans-2e" transform="translate(63.623047 0)"/>
       <use xlink:href="#DejaVuSans-34" transform="translate(95.410156 0)"/>
      </g>
     </g>
    </g>
    <g id="ytick_10">
     <g id="line2d_24">
      <g>
       <use xlink:href="#m05a626e804" x="554.549375" y="129.664602" style="stroke: #000000; stroke-width: 0.8"/>
      </g>
     </g>
     <g id="text_26">
      <!-- 0.6 -->
      <g transform="translate(525.285 134.983509) scale(0.14 -0.14)">
       <use xlink:href="#DejaVuSans-30"/>
       <use xlink:href="#DejaVuSans-2e" transform="translate(63.623047 0)"/>
       <use xlink:href="#DejaVuSans-36" transform="translate(95.410156 0)"/>
      </g>
     </g>
    </g>
    <g id="ytick_11">
     <g id="line2d_25">
      <g>
       <use xlink:href="#m05a626e804" x="554.549375" y="75.235028" style="stroke: #000000; stroke-width: 0.8"/>
      </g>
     </g>
     <g id="text_27">
      <!-- 0.8 -->
      <g transform="translate(525.285 80.553935) scale(0.14 -0.14)">
       <use xlink:href="#DejaVuSans-30"/>
       <use xlink:href="#DejaVuSans-2e" transform="translate(63.623047 0)"/>
       <use xlink:href="#DejaVuSans-38" transform="translate(95.410156 0)"/>
      </g>
     </g>
    </g>
    <g id="ytick_12">
     <g id="line2d_26">
      <g>
       <use xlink:href="#m05a626e804" x="554.549375" y="20.805455" style="stroke: #000000; stroke-width: 0.8"/>
      </g>
     </g>
     <g id="text_28">
      <!-- 1.0 -->
      <g transform="translate(525.285 26.124361) scale(0.14 -0.14)">
       <use xlink:href="#DejaVuSans-31"/>
       <use xlink:href="#DejaVuSans-2e" transform="translate(63.623047 0)"/>
       <use xlink:href="#DejaVuSans-30" transform="translate(95.410156 0)"/>
      </g>
     </g>
    </g>
    <g id="text_29">
     <!-- Probability -->
     <g transform="translate(517.9575 199.14625) rotate(-90) scale(0.16 -0.16)">
      <use xlink:href="#DejaVuSans-50"/>
      <use xlink:href="#DejaVuSans-72" transform="translate(58.552734 0)"/>
      <use xlink:href="#DejaVuSans-6f" transform="translate(97.416016 0)"/>
      <use xlink:href="#DejaVuSans-62" transform="translate(158.597656 0)"/>
      <use xlink:href="#DejaVuSans-61" transform="translate(222.074219 0)"/>
      <use xlink:href="#DejaVuSans-62" transform="translate(283.353516 0)"/>
      <use xlink:href="#DejaVuSans-69" transform="translate(346.830078 0)"/>
      <use xlink:href="#DejaVuSans-6c" transform="translate(374.613281 0)"/>
      <use xlink:href="#DejaVuSans-69" transform="translate(402.396484 0)"/>
      <use xlink:href="#DejaVuSans-74" transform="translate(430.179688 0)"/>
      <use xlink:href="#DejaVuSans-79" transform="translate(469.388672 0)"/>
     </g>
    </g>
   </g>
   <g id="line2d_27">
    <path d="M 574.557102 292.914545 
L 582.479454 292.759431 
L 586.030914 291.98386 
L 586.402122 291.673632 
L 586.402122 291.634853 
L 586.868823 291.440961 
L 586.937577 291.363403 
L 587.209493 291.130732 
L 587.209493 291.091954 
L 587.492861 290.936839 
L 588.018984 290.277604 
L 588.272909 290.083711 
L 588.335775 289.928597 
L 588.708028 289.734704 
L 589.200622 289.191805 
L 589.237914 289.03669 
L 589.502909 288.881576 
L 589.694552 288.687683 
L 589.854974 288.532569 
L 589.950553 288.416234 
L 590.177484 288.261119 
L 590.419084 287.679441 
L 590.58289 287.369213 
L 590.715936 287.097763 
L 591.004876 286.90387 
L 591.066079 286.63242 
L 591.272808 286.477306 
L 591.355899 286.167078 
L 591.69394 285.856849 
L 591.796289 285.585399 
L 592.033569 284.848607 
L 592.142235 284.615936 
L 592.393326 284.22815 
L 592.750238 283.142351 
L 592.869302 282.832122 
L 594.238282 280.311516 
L 594.346027 279.923731 
L 594.435118 279.69106 
L 595.192518 276.74389 
L 595.260649 276.588776 
L 595.369412 276.007097 
L 595.860668 274.106948 
L 596.005999 273.913056 
L 596.259257 273.021149 
L 596.418652 272.71092 
L 596.54606 272.361914 
L 596.922129 271.198557 
L 599.506359 261.465141 
L 599.616017 261.116134 
L 599.736102 260.495677 
L 599.766384 260.301784 
L 600.603705 257.354614 
L 600.687779 257.160722 
L 600.789071 256.92805 
L 600.91355 256.579043 
L 601.22906 255.881029 
L 601.313232 255.648358 
L 601.948505 252.817524 
L 602.075944 252.274624 
L 605.370462 239.051138 
L 605.455249 238.818467 
L 605.732651 237.693889 
L 605.784294 237.383661 
L 605.920267 237.228547 
L 606.09667 236.375418 
L 606.256316 236.142747 
L 606.361934 235.677404 
L 606.417833 235.367176 
L 606.641155 234.397712 
L 606.772111 234.20382 
L 606.880244 233.738477 
L 607.424836 231.877107 
L 607.502873 231.721992 
L 607.613267 231.023978 
L 607.736571 230.325964 
L 607.819694 229.938179 
L 607.928474 229.278944 
L 608.16997 228.348258 
L 608.239744 228.154366 
L 609.085307 224.392846 
L 609.136499 224.237732 
L 609.244265 223.849946 
L 609.380269 223.345825 
L 609.710211 221.755905 
L 609.820299 221.329341 
L 609.873294 221.174226 
L 609.978704 220.941555 
L 610.071674 220.708884 
L 610.179447 219.816977 
L 610.7457 218.537285 
L 610.947766 217.490264 
L 611.388994 215.706451 
L 611.527845 215.435001 
L 611.645178 214.969658 
L 611.735213 214.775766 
L 611.829896 214.426759 
L 611.915777 214.194087 
L 612.02354 213.573631 
L 612.848574 210.587682 
L 612.949051 210.12234 
L 613.057623 209.85089 
L 613.157591 209.191654 
L 613.207516 208.997762 
L 613.356799 208.609976 
L 613.530324 208.183412 
L 613.741948 207.679291 
L 613.900418 206.748606 
L 613.933181 206.477156 
L 614.059954 206.166927 
L 614.176727 205.934256 
L 614.273884 205.624028 
L 614.524444 204.809678 
L 614.586696 204.49945 
L 614.685208 204.344335 
L 615.201013 202.289072 
L 615.290675 202.133958 
L 615.819503 200.427702 
L 615.955122 199.962359 
L 616.143369 198.915338 
L 617.278255 194.494584 
L 617.368496 194.106798 
L 617.468629 193.912905 
L 617.723056 192.71077 
L 617.85701 192.322985 
L 617.951576 191.896421 
L 618.112384 191.275964 
L 618.531983 189.724822 
L 618.583221 189.49215 
L 618.696507 188.910472 
L 618.788643 188.716579 
L 618.978588 187.90223 
L 619.816392 184.68361 
L 620.007555 184.41216 
L 620.230537 183.714146 
L 620.405563 183.520254 
L 620.549067 182.783461 
L 620.682933 182.356897 
L 621.185863 180.689419 
L 621.257837 180.030184 
L 621.346074 179.87507 
L 621.485301 179.448506 
L 621.644407 179.254613 
L 622.506314 175.570651 
L 622.567318 175.337979 
L 622.818573 174.446073 
L 622.96542 174.058287 
L 623.072848 173.70928 
L 623.690119 171.615239 
L 623.825213 171.460124 
L 623.924774 170.994782 
L 623.963834 170.76211 
L 624.174358 170.180432 
L 624.335682 169.71509 
L 626.486805 163.045179 
L 626.551143 162.851286 
L 626.681366 162.579836 
L 626.781511 162.075715 
L 628.325253 157.693739 
L 628.451571 157.499846 
L 629.054473 155.79359 
L 629.150467 155.599697 
L 629.234329 155.211912 
L 629.357368 155.018019 
L 629.681519 154.048555 
L 629.823892 153.583212 
L 629.922193 153.272984 
L 630.389912 152.148406 
L 630.436658 151.683063 
L 630.532235 151.527949 
L 631.875029 147.960323 
L 632.201176 147.339866 
L 632.283762 147.068416 
L 632.39427 146.68063 
L 632.533314 146.137731 
L 632.621208 145.982617 
L 632.759291 145.478495 
L 632.888844 145.245824 
L 632.980371 145.129488 
L 633.079859 144.81926 
L 633.160139 144.586589 
L 633.259096 144.392696 
L 633.357479 144.043689 
L 633.499126 143.733461 
L 633.665713 143.345675 
L 633.811442 143.151782 
L 634.718275 141.32919 
L 634.821984 141.057741 
L 634.945237 140.708734 
L 635.061502 140.514841 
L 635.283871 140.127055 
L 635.796149 138.886142 
L 635.903473 138.498356 
L 636.961362 136.210422 
L 637.035506 135.97775 
L 637.118812 135.628743 
L 637.198327 135.396072 
L 637.28689 135.047065 
L 637.471239 134.891951 
L 637.558355 134.581723 
L 637.962571 133.457145 
L 638.117096 133.30203 
L 639.201687 130.858982 
L 639.349394 130.509975 
L 639.41296 130.277303 
L 639.508759 130.083411 
L 640.458483 127.911812 
L 640.559564 127.562805 
L 640.702942 127.175019 
L 640.833904 126.981127 
L 641.020364 126.244334 
L 641.602028 125.042199 
L 641.768413 124.460521 
L 642.510997 122.793043 
L 643.048765 121.28068 
L 643.173156 121.00923 
L 644.424189 118.488624 
L 644.565899 118.139617 
L 645.354951 116.278247 
L 645.464726 116.123132 
L 645.690526 115.696568 
L 645.842138 115.463897 
L 645.945847 115.231226 
L 646.278863 114.57199 
L 646.426146 114.261762 
L 646.789101 113.447412 
L 646.992886 113.059627 
L 647.141989 112.594284 
L 647.373312 112.322834 
L 647.523192 112.051385 
L 647.673395 111.663599 
L 647.831976 111.353371 
L 647.935831 111.120699 
L 648.13779 110.5778 
L 648.46117 109.879786 
L 648.644704 109.647114 
L 649.173835 108.716429 
L 649.30007 108.367422 
L 649.463024 108.134751 
L 649.498409 107.90208 
L 649.635367 107.746965 
L 649.741238 107.514294 
L 650.369794 106.195823 
L 650.570483 106.040709 
L 650.802109 105.459031 
L 651.017931 105.22636 
L 651.12473 104.95491 
L 652.133333 103.132318 
L 652.342609 102.822089 
L 652.45646 102.511861 
L 655.172036 97.548207 
L 655.359513 97.354314 
L 655.603568 97.005307 
L 655.701894 96.695078 
L 655.954352 96.229736 
L 656.041045 96.035843 
L 656.120377 95.880729 
L 656.252748 95.648058 
L 656.95711 94.329587 
L 657.154349 94.135694 
L 657.307894 93.903023 
L 657.848531 92.390659 
L 658.133721 92.119209 
L 659.650046 89.986389 
L 659.720399 89.870054 
L 659.903838 89.637382 
L 660.010283 89.365932 
L 660.591247 88.551583 
L 660.734524 88.396469 
L 661.277208 87.892347 
L 661.528706 87.737233 
L 661.664098 87.659676 
L 662.728052 86.147313 
L 662.887044 85.914641 
L 663.214058 85.449299 
L 663.484196 85.255406 
L 665.360626 82.928693 
L 665.583279 82.773579 
L 665.909679 82.114343 
L 666.022747 81.959229 
L 667.727446 79.865187 
L 669.216487 78.546717 
L 669.479984 78.158931 
L 669.74508 77.92626 
L 669.891062 77.693589 
L 670.244058 77.38336 
L 670.26848 77.305803 
L 670.498412 77.11191 
L 670.721982 76.956796 
L 671.008612 76.646568 
L 671.074434 76.569011 
L 671.257551 76.413896 
L 671.45074 76.103668 
L 671.770746 75.870997 
L 671.832619 75.560768 
L 672.370141 75.056647 
L 672.47936 74.746419 
L 672.621841 74.668862 
L 672.861416 74.43619 
L 672.999923 74.281076 
L 673.254125 74.009626 
L 674.019532 73.078941 
L 674.108841 72.962605 
L 674.866147 72.57482 
L 675.10413 72.342149 
L 675.463729 72.03192 
L 675.669606 71.721692 
L 676.127139 71.411463 
L 676.528353 70.984899 
L 676.6349 70.829785 
L 678.421477 69.201086 
L 678.625724 69.045972 
L 678.805909 68.735743 
L 678.979067 68.580629 
L 679.278259 68.425515 
L 679.444442 68.115287 
L 679.628822 67.960172 
L 679.747551 67.76628 
L 679.95564 67.572387 
L 680.268935 67.378494 
L 680.417628 67.22338 
L 680.749083 66.990709 
L 681.475143 66.486587 
L 681.58864 66.370252 
L 681.902884 66.176359 
L 681.912463 66.13758 
L 682.465958 65.904909 
L 682.46908 65.866131 
L 682.777042 65.672238 
L 682.833064 65.594681 
L 683.216586 65.439567 
L 683.798427 64.857888 
L 684.905886 64.314989 
L 685.423252 63.965982 
L 685.804612 63.616975 
L 686.422787 63.423082 
L 686.551082 63.306746 
L 687.990262 62.065833 
L 688.530716 61.833161 
L 688.668527 61.716826 
L 689.271865 61.367819 
L 690.310576 60.359576 
L 690.724794 60.204462 
L 691.650792 59.855455 
L 691.709468 59.73912 
L 692.128273 59.506448 
L 692.128273 59.46767 
L 692.441758 59.273777 
L 692.510038 59.157441 
L 692.7478 59.002327 
L 693.481784 58.730877 
L 693.867744 58.536984 
L 694.06729 58.38187 
L 695.374547 57.645078 
L 695.418993 57.528742 
L 696.128726 57.140957 
L 696.132959 57.102178 
L 696.722042 56.830728 
L 696.823951 56.753171 
L 696.931773 56.636835 
L 697.424394 56.442943 
L 698.005591 56.016379 
L 698.111253 55.900043 
L 698.938375 55.667372 
L 699.23461 55.395922 
L 700.705308 54.310122 
L 701.064363 54.155008 
L 701.098447 54.038673 
L 701.569546 53.883558 
L 702.647193 53.534551 
L 703.956232 52.875316 
L 704.795271 52.254859 
L 705.319802 52.060966 
L 707.118909 51.207838 
L 707.766858 50.936389 
L 708.051883 50.62616 
L 708.843279 49.966925 
L 709.410928 49.773032 
L 709.772044 49.579139 
L 709.852229 49.501582 
L 710.667383 49.075018 
L 711.188047 48.726011 
L 711.399118 48.532118 
L 712.609294 47.911662 
L 713.06466 47.756547 
L 713.208815 47.640212 
L 713.472167 47.446319 
L 713.970462 47.291205 
L 713.984945 47.252426 
L 714.330453 47.058533 
L 714.358357 47.019755 
L 715.245229 46.748305 
L 715.464413 46.554412 
L 715.808291 46.36052 
L 716.008329 46.205405 
L 717.040621 45.81762 
L 717.41445 45.623727 
L 717.976754 45.468613 
L 718.012935 45.429834 
L 718.869894 45.197163 
L 718.988888 45.080827 
L 719.373206 44.848156 
L 719.779741 44.654263 
L 720.707078 44.382813 
L 721.468194 44.033806 
L 721.81642 43.801135 
L 722.145878 43.646021 
L 722.179279 43.607242 
L 722.641065 43.452128 
L 722.66754 43.41335 
L 723.250191 43.219457 
L 723.447411 43.103121 
L 724.782445 42.87045 
L 724.849816 42.792893 
L 726.425113 42.366329 
L 726.482829 42.288772 
L 727.431953 41.978543 
L 727.896645 41.745872 
L 728.576869 41.435644 
L 728.802612 41.241751 
L 729.743926 41.00908 
L 729.952432 40.815187 
L 730.342626 40.621294 
L 731.11379 40.46618 
L 731.187896 40.388623 
L 731.784536 40.19473 
L 731.931889 40.078394 
L 733.300716 39.65183 
L 733.45536 39.496716 
L 733.907958 39.341602 
L 734.74169 38.876259 
L 734.74169 38.837481 
L 735.963088 38.604809 
L 736.525089 38.410917 
L 736.591334 38.372138 
L 737.274971 38.217024 
L 737.441065 38.139467 
L 738.251404 37.984353 
L 738.596748 37.868017 
L 739.002398 37.712903 
L 739.016767 37.674124 
L 740.854115 37.325117 
L 741.127995 37.170003 
L 741.57181 36.97611 
L 741.581452 36.937332 
L 742.001938 36.743439 
L 742.170762 36.588325 
L 743.063346 36.316875 
L 743.134129 36.161761 
L 744.543649 35.580082 
L 745.253444 35.424968 
L 746.629209 35.11474 
L 747.623108 34.84329 
L 748.727205 34.688176 
L 749.192188 34.57184 
L 750.149299 34.339169 
L 751.661309 34.02894 
L 753.298795 33.873826 
L 753.317714 33.835048 
L 754.117678 33.602376 
L 755.826554 32.865584 
L 755.830282 32.826805 
L 757.722881 32.283906 
L 758.948298 32.128791 
L 759.855137 31.818563 
L 761.241328 31.663449 
L 761.266692 31.585892 
L 764.298394 30.965435 
L 764.361998 30.926656 
L 765.271997 30.732764 
L 765.474234 30.500092 
L 766.404971 30.344978 
L 769.786036 30.151085 
L 774.783319 29.7633 
L 774.891496 29.685743 
L 780.191826 28.716279 
L 781.671243 28.483608 
L 781.766163 28.406051 
L 784.032351 28.250936 
L 784.658815 28.018265 
L 784.690864 27.979486 
L 786.066528 27.785594 
L 786.237841 27.708037 
L 793.508352 26.971244 
L 794.081638 26.81613 
L 794.363883 26.738573 
L 795.021637 26.583459 
L 795.027804 26.54468 
L 796.829376 26.389566 
L 796.947966 26.312009 
L 798.487664 26.118116 
L 798.505205 26.079337 
L 807.179839 25.032317 
L 807.408804 24.954759 
L 817.570084 24.334303 
L 817.674798 24.295524 
L 825.356481 23.985296 
L 827.19369 23.830182 
L 830.917294 23.675067 
L 831.040433 23.636289 
L 833.095866 23.481175 
L 834.684017 23.287282 
L 834.718112 23.248503 
L 839.808281 23.05461 
L 844.258286 22.821939 
L 844.574829 22.783161 
L 855.448154 22.434154 
L 856.545642 22.317818 
L 867.368443 22.085147 
L 867.859105 22.046368 
L 886.7991 21.581026 
L 889.449606 21.387133 
L 957.656429 20.883012 
L 974.711648 20.805455 
L 974.711648 20.805455 
" clip-path="url(#pad43b08246)" style="fill: none; stroke: #008000; stroke-width: 1.5; stroke-linecap: square"/>
   </g>
   <g id="patch_8">
    <path d="M 554.549375 306.52 
L 554.549375 7.2 
" style="fill: none; stroke: #000000; stroke-width: 0.8; stroke-linejoin: miter; stroke-linecap: square"/>
   </g>
   <g id="patch_9">
    <path d="M 994.719375 306.52 
L 994.719375 7.2 
" style="fill: none; stroke: #000000; stroke-width: 0.8; stroke-linejoin: miter; stroke-linecap: square"/>
   </g>
   <g id="patch_10">
    <path d="M 554.549375 306.52 
L 994.719375 306.52 
" style="fill: none; stroke: #000000; stroke-width: 0.8; stroke-linejoin: miter; stroke-linecap: square"/>
   </g>
   <g id="patch_11">
    <path d="M 554.549375 7.2 
L 994.719375 7.2 
" style="fill: none; stroke: #000000; stroke-width: 0.8; stroke-linejoin: miter; stroke-linecap: square"/>
   </g>
  </g>
 </g>
 <defs>
  <clipPath id="pe76aaab382">
   <rect x="55.949375" y="7.2" width="440.17" height="299.32"/>
  </clipPath>
  <clipPath id="pad43b08246">
   <rect x="554.549375" y="7.2" width="440.17" height="299.32"/>
  </clipPath>
 </defs>
</svg>
