<?xml version="1.0" encoding="utf-8" standalone="no"?>
<!DOCTYPE svg PUBLIC "-//W3C//DTD SVG 1.1//EN"
  "http://www.w3.org/Graphics/SVG/1.1/DTD/svg11.dtd">
<svg xmlns:xlink="http://www.w3.org/1999/xlink" width="1001.919375pt" height="353.754375pt" viewBox="0 0 1001.919375 353.754375" xmlns="http://www.w3.org/2000/svg" version="1.1">
 <metadata>
  <rdf:RDF xmlns:dc="http://purl.org/dc/elements/1.1/" xmlns:cc="http://creativecommons.org/ns#" xmlns:rdf="http://www.w3.org/1999/02/22-rdf-syntax-ns#">
   <cc:Work>
    <dc:type rdf:resource="http://purl.org/dc/dcmitype/StillImage"/>
    <dc:date>2025-08-24T23:22:26.289893</dc:date>
    <dc:format>image/svg+xml</dc:format>
    <dc:creator>
     <cc:Agent>
      <dc:title>Matplotlib v3.10.5, https://matplotlib.org/</dc:title>
     </cc:Agent>
    </dc:creator>
   </cc:Work>
  </rdf:RDF>
 </metadata>
 <defs>
  <style type="text/css">*{stroke-linejoin: round; stroke-linecap: butt}</style>
 </defs>
 <g id="figure_1">
  <g id="patch_1">
   <path d="M 0 353.754375 
L 1001.919375 353.754375 
L 1001.919375 0 
L 0 0 
z
" style="fill: #ffffff"/>
  </g>
  <g id="axes_1">
   <g id="patch_2">
    <path d="M 55.949375 306.52 
L 496.119375 306.52 
L 496.119375 7.2 
L 55.949375 7.2 
z
" style="fill: #ffffff"/>
   </g>
   <g id="matplotlib.axis_1">
    <g id="xtick_1">
     <g id="line2d_1">
      <defs>
       <path id="mbd73d6c75a" d="M 0 0 
L 0 3.5 
" style="stroke: #000000; stroke-width: 0.8"/>
      </defs>
      <g>
       <use xlink:href="#mbd73d6c75a" x="75.014316" y="306.52" style="stroke: #000000; stroke-width: 0.8"/>
      </g>
     </g>
     <g id="text_1">
      <!-- 0 -->
      <g transform="translate(70.560566 324.157812) scale(0.14 -0.14)">
       <defs>
        <path id="DejaVuSans-30" d="M 2034 4250 
Q 1547 4250 1301 3770 
Q 1056 3291 1056 2328 
Q 1056 1369 1301 889 
Q 1547 409 2034 409 
Q 2525 409 2770 889 
Q 3016 1369 3016 2328 
Q 3016 3291 2770 3770 
Q 2525 4250 2034 4250 
z
M 2034 4750 
Q 2819 4750 3233 4129 
Q 3647 3509 3647 2328 
Q 3647 1150 3233 529 
Q 2819 -91 2034 -91 
Q 1250 -91 836 529 
Q 422 1150 422 2328 
Q 422 3509 836 4129 
Q 1250 4750 2034 4750 
z
" transform="scale(0.015625)"/>
       </defs>
       <use xlink:href="#DejaVuSans-30"/>
      </g>
     </g>
    </g>
    <g id="xtick_2">
     <g id="line2d_2">
      <g>
       <use xlink:href="#mbd73d6c75a" x="167.717038" y="306.52" style="stroke: #000000; stroke-width: 0.8"/>
      </g>
     </g>
     <g id="text_2">
      <!-- 20 -->
      <g transform="translate(158.809538 324.157812) scale(0.14 -0.14)">
       <defs>
        <path id="DejaVuSans-32" d="M 1228 531 
L 3431 531 
L 3431 0 
L 469 0 
L 469 531 
Q 828 903 1448 1529 
Q 2069 2156 2228 2338 
Q 2531 2678 2651 2914 
Q 2772 3150 2772 3378 
Q 2772 3750 2511 3984 
Q 2250 4219 1831 4219 
Q 1534 4219 1204 4116 
Q 875 4013 500 3803 
L 500 4441 
Q 881 4594 1212 4672 
Q 1544 4750 1819 4750 
Q 2544 4750 2975 4387 
Q 3406 4025 3406 3419 
Q 3406 3131 3298 2873 
Q 3191 2616 2906 2266 
Q 2828 2175 2409 1742 
Q 1991 1309 1228 531 
z
" transform="scale(0.015625)"/>
       </defs>
       <use xlink:href="#DejaVuSans-32"/>
       <use xlink:href="#DejaVuSans-30" transform="translate(63.623047 0)"/>
      </g>
     </g>
    </g>
    <g id="xtick_3">
     <g id="line2d_3">
      <g>
       <use xlink:href="#mbd73d6c75a" x="260.41976" y="306.52" style="stroke: #000000; stroke-width: 0.8"/>
      </g>
     </g>
     <g id="text_3">
      <!-- 40 -->
      <g transform="translate(251.51226 324.157812) scale(0.14 -0.14)">
       <defs>
        <path id="DejaVuSans-34" d="M 2419 4116 
L 825 1625 
L 2419 1625 
L 2419 4116 
z
M 2253 4666 
L 3047 4666 
L 3047 1625 
L 3713 1625 
L 3713 1100 
L 3047 1100 
L 3047 0 
L 2419 0 
L 2419 1100 
L 313 1100 
L 313 1709 
L 2253 4666 
z
" transform="scale(0.015625)"/>
       </defs>
       <use xlink:href="#DejaVuSans-34"/>
       <use xlink:href="#DejaVuSans-30" transform="translate(63.623047 0)"/>
      </g>
     </g>
    </g>
    <g id="xtick_4">
     <g id="line2d_4">
      <g>
       <use xlink:href="#mbd73d6c75a" x="353.122483" y="306.52" style="stroke: #000000; stroke-width: 0.8"/>
      </g>
     </g>
     <g id="text_4">
      <!-- 60 -->
      <g transform="translate(344.214983 324.157812) scale(0.14 -0.14)">
       <defs>
        <path id="DejaVuSans-36" d="M 2113 2584 
Q 1688 2584 1439 2293 
Q 1191 2003 1191 1497 
Q 1191 994 1439 701 
Q 1688 409 2113 409 
Q 2538 409 2786 701 
Q 3034 994 3034 1497 
Q 3034 2003 2786 2293 
Q 2538 2584 2113 2584 
z
M 3366 4563 
L 3366 3988 
Q 3128 4100 2886 4159 
Q 2644 4219 2406 4219 
Q 1781 4219 1451 3797 
Q 1122 3375 1075 2522 
Q 1259 2794 1537 2939 
Q 1816 3084 2150 3084 
Q 2853 3084 3261 2657 
Q 3669 2231 3669 1497 
Q 3669 778 3244 343 
Q 2819 -91 2113 -91 
Q 1303 -91 875 529 
Q 447 1150 447 2328 
Q 447 3434 972 4092 
Q 1497 4750 2381 4750 
Q 2619 4750 2861 4703 
Q 3103 4656 3366 4563 
z
" transform="scale(0.015625)"/>
       </defs>
       <use xlink:href="#DejaVuSans-36"/>
       <use xlink:href="#DejaVuSans-30" transform="translate(63.623047 0)"/>
      </g>
     </g>
    </g>
    <g id="xtick_5">
     <g id="line2d_5">
      <g>
       <use xlink:href="#mbd73d6c75a" x="445.825205" y="306.52" style="stroke: #000000; stroke-width: 0.8"/>
      </g>
     </g>
     <g id="text_5">
      <!-- 80 -->
      <g transform="translate(436.917705 324.157812) scale(0.14 -0.14)">
       <defs>
        <path id="DejaVuSans-38" d="M 2034 2216 
Q 1584 2216 1326 1975 
Q 1069 1734 1069 1313 
Q 1069 891 1326 650 
Q 1584 409 2034 409 
Q 2484 409 2743 651 
Q 3003 894 3003 1313 
Q 3003 1734 2745 1975 
Q 2488 2216 2034 2216 
z
M 1403 2484 
Q 997 2584 770 2862 
Q 544 3141 544 3541 
Q 544 4100 942 4425 
Q 1341 4750 2034 4750 
Q 2731 4750 3128 4425 
Q 3525 4100 3525 3541 
Q 3525 3141 3298 2862 
Q 3072 2584 2669 2484 
Q 3125 2378 3379 2068 
Q 3634 1759 3634 1313 
Q 3634 634 3220 271 
Q 2806 -91 2034 -91 
Q 1263 -91 848 271 
Q 434 634 434 1313 
Q 434 1759 690 2068 
Q 947 2378 1403 2484 
z
M 1172 3481 
Q 1172 3119 1398 2916 
Q 1625 2713 2034 2713 
Q 2441 2713 2670 2916 
Q 2900 3119 2900 3481 
Q 2900 3844 2670 4047 
Q 2441 4250 2034 4250 
Q 1625 4250 1398 4047 
Q 1172 3844 1172 3481 
z
" transform="scale(0.015625)"/>
       </defs>
       <use xlink:href="#DejaVuSans-38"/>
       <use xlink:href="#DejaVuSans-30" transform="translate(63.623047 0)"/>
      </g>
     </g>
    </g>
    <g id="text_6">
     <!-- Area (mm²) -->
     <g transform="translate(230.050625 343.226875) scale(0.16 -0.16)">
      <defs>
       <path id="DejaVuSans-41" d="M 2188 4044 
L 1331 1722 
L 3047 1722 
L 2188 4044 
z
M 1831 4666 
L 2547 4666 
L 4325 0 
L 3669 0 
L 3244 1197 
L 1141 1197 
L 716 0 
L 50 0 
L 1831 4666 
z
" transform="scale(0.015625)"/>
       <path id="DejaVuSans-72" d="M 2631 2963 
Q 2534 3019 2420 3045 
Q 2306 3072 2169 3072 
Q 1681 3072 1420 2755 
Q 1159 2438 1159 1844 
L 1159 0 
L 581 0 
L 581 3500 
L 1159 3500 
L 1159 2956 
Q 1341 3275 1631 3429 
Q 1922 3584 2338 3584 
Q 2397 3584 2469 3576 
Q 2541 3569 2628 3553 
L 2631 2963 
z
" transform="scale(0.015625)"/>
       <path id="DejaVuSans-65" d="M 3597 1894 
L 3597 1613 
L 953 1613 
Q 991 1019 1311 708 
Q 1631 397 2203 397 
Q 2534 397 2845 478 
Q 3156 559 3463 722 
L 3463 178 
Q 3153 47 2828 -22 
Q 2503 -91 2169 -91 
Q 1331 -91 842 396 
Q 353 884 353 1716 
Q 353 2575 817 3079 
Q 1281 3584 2069 3584 
Q 2775 3584 3186 3129 
Q 3597 2675 3597 1894 
z
M 3022 2063 
Q 3016 2534 2758 2815 
Q 2500 3097 2075 3097 
Q 1594 3097 1305 2825 
Q 1016 2553 972 2059 
L 3022 2063 
z
" transform="scale(0.015625)"/>
       <path id="DejaVuSans-61" d="M 2194 1759 
Q 1497 1759 1228 1600 
Q 959 1441 959 1056 
Q 959 750 1161 570 
Q 1363 391 1709 391 
Q 2188 391 2477 730 
Q 2766 1069 2766 1631 
L 2766 1759 
L 2194 1759 
z
M 3341 1997 
L 3341 0 
L 2766 0 
L 2766 531 
Q 2569 213 2275 61 
Q 1981 -91 1556 -91 
Q 1019 -91 701 211 
Q 384 513 384 1019 
Q 384 1609 779 1909 
Q 1175 2209 1959 2209 
L 2766 2209 
L 2766 2266 
Q 2766 2663 2505 2880 
Q 2244 3097 1772 3097 
Q 1472 3097 1187 3025 
Q 903 2953 641 2809 
L 641 3341 
Q 956 3463 1253 3523 
Q 1550 3584 1831 3584 
Q 2591 3584 2966 3190 
Q 3341 2797 3341 1997 
z
" transform="scale(0.015625)"/>
       <path id="DejaVuSans-20" transform="scale(0.015625)"/>
       <path id="DejaVuSans-28" d="M 1984 4856 
Q 1566 4138 1362 3434 
Q 1159 2731 1159 2009 
Q 1159 1288 1364 580 
Q 1569 -128 1984 -844 
L 1484 -844 
Q 1016 -109 783 600 
Q 550 1309 550 2009 
Q 550 2706 781 3412 
Q 1013 4119 1484 4856 
L 1984 4856 
z
" transform="scale(0.015625)"/>
       <path id="DejaVuSans-6d" d="M 3328 2828 
Q 3544 3216 3844 3400 
Q 4144 3584 4550 3584 
Q 5097 3584 5394 3201 
Q 5691 2819 5691 2113 
L 5691 0 
L 5113 0 
L 5113 2094 
Q 5113 2597 4934 2840 
Q 4756 3084 4391 3084 
Q 3944 3084 3684 2787 
Q 3425 2491 3425 1978 
L 3425 0 
L 2847 0 
L 2847 2094 
Q 2847 2600 2669 2842 
Q 2491 3084 2119 3084 
Q 1678 3084 1418 2786 
Q 1159 2488 1159 1978 
L 1159 0 
L 581 0 
L 581 3500 
L 1159 3500 
L 1159 2956 
Q 1356 3278 1631 3431 
Q 1906 3584 2284 3584 
Q 2666 3584 2933 3390 
Q 3200 3197 3328 2828 
z
" transform="scale(0.015625)"/>
       <path id="DejaVuSans-b2" d="M 838 2444 
L 2163 2444 
L 2163 2088 
L 294 2088 
L 294 2431 
Q 400 2528 597 2703 
Q 1672 3656 1672 3950 
Q 1672 4156 1509 4282 
Q 1347 4409 1081 4409 
Q 919 4409 728 4354 
Q 538 4300 313 4191 
L 313 4575 
Q 553 4663 761 4706 
Q 969 4750 1147 4750 
Q 1600 4750 1872 4544 
Q 2144 4338 2144 4000 
Q 2144 3566 1109 2678 
Q 934 2528 838 2444 
z
" transform="scale(0.015625)"/>
       <path id="DejaVuSans-29" d="M 513 4856 
L 1013 4856 
Q 1481 4119 1714 3412 
Q 1947 2706 1947 2009 
Q 1947 1309 1714 600 
Q 1481 -109 1013 -844 
L 513 -844 
Q 928 -128 1133 580 
Q 1338 1288 1338 2009 
Q 1338 2731 1133 3434 
Q 928 4138 513 4856 
z
" transform="scale(0.015625)"/>
      </defs>
      <use xlink:href="#DejaVuSans-41"/>
      <use xlink:href="#DejaVuSans-72" transform="translate(68.408203 0)"/>
      <use xlink:href="#DejaVuSans-65" transform="translate(107.271484 0)"/>
      <use xlink:href="#DejaVuSans-61" transform="translate(168.794922 0)"/>
      <use xlink:href="#DejaVuSans-20" transform="translate(230.074219 0)"/>
      <use xlink:href="#DejaVuSans-28" transform="translate(261.861328 0)"/>
      <use xlink:href="#DejaVuSans-6d" transform="translate(300.875 0)"/>
      <use xlink:href="#DejaVuSans-6d" transform="translate(398.287109 0)"/>
      <use xlink:href="#DejaVuSans-b2" transform="translate(495.699219 0)"/>
      <use xlink:href="#DejaVuSans-29" transform="translate(535.787109 0)"/>
     </g>
    </g>
   </g>
   <g id="matplotlib.axis_2">
    <g id="ytick_1">
     <g id="line2d_6">
      <defs>
       <path id="m65fdab01e2" d="M 0 0 
L -3.5 0 
" style="stroke: #000000; stroke-width: 0.8"/>
      </defs>
      <g>
       <use xlink:href="#m65fdab01e2" x="55.949375" y="292.958293" style="stroke: #000000; stroke-width: 0.8"/>
      </g>
     </g>
     <g id="text_7">
      <!-- 0.0 -->
      <g transform="translate(26.685 298.277199) scale(0.14 -0.14)">
       <defs>
        <path id="DejaVuSans-2e" d="M 684 794 
L 1344 794 
L 1344 0 
L 684 0 
L 684 794 
z
" transform="scale(0.015625)"/>
       </defs>
       <use xlink:href="#DejaVuSans-30"/>
       <use xlink:href="#DejaVuSans-2e" transform="translate(63.623047 0)"/>
       <use xlink:href="#DejaVuSans-30" transform="translate(95.410156 0)"/>
      </g>
     </g>
    </g>
    <g id="ytick_2">
     <g id="line2d_7">
      <g>
       <use xlink:href="#m65fdab01e2" x="55.949375" y="238.527725" style="stroke: #000000; stroke-width: 0.8"/>
      </g>
     </g>
     <g id="text_8">
      <!-- 0.2 -->
      <g transform="translate(26.685 243.846631) scale(0.14 -0.14)">
       <use xlink:href="#DejaVuSans-30"/>
       <use xlink:href="#DejaVuSans-2e" transform="translate(63.623047 0)"/>
       <use xlink:href="#DejaVuSans-32" transform="translate(95.410156 0)"/>
      </g>
     </g>
    </g>
    <g id="ytick_3">
     <g id="line2d_8">
      <g>
       <use xlink:href="#m65fdab01e2" x="55.949375" y="184.097158" style="stroke: #000000; stroke-width: 0.8"/>
      </g>
     </g>
     <g id="text_9">
      <!-- 0.4 -->
      <g transform="translate(26.685 189.416064) scale(0.14 -0.14)">
       <use xlink:href="#DejaVuSans-30"/>
       <use xlink:href="#DejaVuSans-2e" transform="translate(63.623047 0)"/>
       <use xlink:href="#DejaVuSans-34" transform="translate(95.410156 0)"/>
      </g>
     </g>
    </g>
    <g id="ytick_4">
     <g id="line2d_9">
      <g>
       <use xlink:href="#m65fdab01e2" x="55.949375" y="129.66659" style="stroke: #000000; stroke-width: 0.8"/>
      </g>
     </g>
     <g id="text_10">
      <!-- 0.6 -->
      <g transform="translate(26.685 134.985496) scale(0.14 -0.14)">
       <use xlink:href="#DejaVuSans-30"/>
       <use xlink:href="#DejaVuSans-2e" transform="translate(63.623047 0)"/>
       <use xlink:href="#DejaVuSans-36" transform="translate(95.410156 0)"/>
      </g>
     </g>
    </g>
    <g id="ytick_5">
     <g id="line2d_10">
      <g>
       <use xlink:href="#m65fdab01e2" x="55.949375" y="75.236022" style="stroke: #000000; stroke-width: 0.8"/>
      </g>
     </g>
     <g id="text_11">
      <!-- 0.8 -->
      <g transform="translate(26.685 80.554928) scale(0.14 -0.14)">
       <use xlink:href="#DejaVuSans-30"/>
       <use xlink:href="#DejaVuSans-2e" transform="translate(63.623047 0)"/>
       <use xlink:href="#DejaVuSans-38" transform="translate(95.410156 0)"/>
      </g>
     </g>
    </g>
    <g id="ytick_6">
     <g id="line2d_11">
      <g>
       <use xlink:href="#m65fdab01e2" x="55.949375" y="20.805455" style="stroke: #000000; stroke-width: 0.8"/>
      </g>
     </g>
     <g id="text_12">
      <!-- 1.0 -->
      <g transform="translate(26.685 26.124361) scale(0.14 -0.14)">
       <defs>
        <path id="DejaVuSans-31" d="M 794 531 
L 1825 531 
L 1825 4091 
L 703 3866 
L 703 4441 
L 1819 4666 
L 2450 4666 
L 2450 531 
L 3481 531 
L 3481 0 
L 794 0 
L 794 531 
z
" transform="scale(0.015625)"/>
       </defs>
       <use xlink:href="#DejaVuSans-31"/>
       <use xlink:href="#DejaVuSans-2e" transform="translate(63.623047 0)"/>
       <use xlink:href="#DejaVuSans-30" transform="translate(95.410156 0)"/>
      </g>
     </g>
    </g>
    <g id="text_13">
     <!-- Probability -->
     <g transform="translate(19.3575 199.14625) rotate(-90) scale(0.16 -0.16)">
      <defs>
       <path id="DejaVuSans-50" d="M 1259 4147 
L 1259 2394 
L 2053 2394 
Q 2494 2394 2734 2622 
Q 2975 2850 2975 3272 
Q 2975 3691 2734 3919 
Q 2494 4147 2053 4147 
L 1259 4147 
z
M 628 4666 
L 2053 4666 
Q 2838 4666 3239 4311 
Q 3641 3956 3641 3272 
Q 3641 2581 3239 2228 
Q 2838 1875 2053 1875 
L 1259 1875 
L 1259 0 
L 628 0 
L 628 4666 
z
" transform="scale(0.015625)"/>
       <path id="DejaVuSans-6f" d="M 1959 3097 
Q 1497 3097 1228 2736 
Q 959 2375 959 1747 
Q 959 1119 1226 758 
Q 1494 397 1959 397 
Q 2419 397 2687 759 
Q 2956 1122 2956 1747 
Q 2956 2369 2687 2733 
Q 2419 3097 1959 3097 
z
M 1959 3584 
Q 2709 3584 3137 3096 
Q 3566 2609 3566 1747 
Q 3566 888 3137 398 
Q 2709 -91 1959 -91 
Q 1206 -91 779 398 
Q 353 888 353 1747 
Q 353 2609 779 3096 
Q 1206 3584 1959 3584 
z
" transform="scale(0.015625)"/>
       <path id="DejaVuSans-62" d="M 3116 1747 
Q 3116 2381 2855 2742 
Q 2594 3103 2138 3103 
Q 1681 3103 1420 2742 
Q 1159 2381 1159 1747 
Q 1159 1113 1420 752 
Q 1681 391 2138 391 
Q 2594 391 2855 752 
Q 3116 1113 3116 1747 
z
M 1159 2969 
Q 1341 3281 1617 3432 
Q 1894 3584 2278 3584 
Q 2916 3584 3314 3078 
Q 3713 2572 3713 1747 
Q 3713 922 3314 415 
Q 2916 -91 2278 -91 
Q 1894 -91 1617 61 
Q 1341 213 1159 525 
L 1159 0 
L 581 0 
L 581 4863 
L 1159 4863 
L 1159 2969 
z
" transform="scale(0.015625)"/>
       <path id="DejaVuSans-69" d="M 603 3500 
L 1178 3500 
L 1178 0 
L 603 0 
L 603 3500 
z
M 603 4863 
L 1178 4863 
L 1178 4134 
L 603 4134 
L 603 4863 
z
" transform="scale(0.015625)"/>
       <path id="DejaVuSans-6c" d="M 603 4863 
L 1178 4863 
L 1178 0 
L 603 0 
L 603 4863 
z
" transform="scale(0.015625)"/>
       <path id="DejaVuSans-74" d="M 1172 4494 
L 1172 3500 
L 2356 3500 
L 2356 3053 
L 1172 3053 
L 1172 1153 
Q 1172 725 1289 603 
Q 1406 481 1766 481 
L 2356 481 
L 2356 0 
L 1766 0 
Q 1100 0 847 248 
Q 594 497 594 1153 
L 594 3053 
L 172 3053 
L 172 3500 
L 594 3500 
L 594 4494 
L 1172 4494 
z
" transform="scale(0.015625)"/>
       <path id="DejaVuSans-79" d="M 2059 -325 
Q 1816 -950 1584 -1140 
Q 1353 -1331 966 -1331 
L 506 -1331 
L 506 -850 
L 844 -850 
Q 1081 -850 1212 -737 
Q 1344 -625 1503 -206 
L 1606 56 
L 191 3500 
L 800 3500 
L 1894 763 
L 2988 3500 
L 3597 3500 
L 2059 -325 
z
" transform="scale(0.015625)"/>
      </defs>
      <use xlink:href="#DejaVuSans-50"/>
      <use xlink:href="#DejaVuSans-72" transform="translate(58.552734 0)"/>
      <use xlink:href="#DejaVuSans-6f" transform="translate(97.416016 0)"/>
      <use xlink:href="#DejaVuSans-62" transform="translate(158.597656 0)"/>
      <use xlink:href="#DejaVuSans-61" transform="translate(222.074219 0)"/>
      <use xlink:href="#DejaVuSans-62" transform="translate(283.353516 0)"/>
      <use xlink:href="#DejaVuSans-69" transform="translate(346.830078 0)"/>
      <use xlink:href="#DejaVuSans-6c" transform="translate(374.613281 0)"/>
      <use xlink:href="#DejaVuSans-69" transform="translate(402.396484 0)"/>
      <use xlink:href="#DejaVuSans-74" transform="translate(430.179688 0)"/>
      <use xlink:href="#DejaVuSans-79" transform="translate(469.388672 0)"/>
     </g>
    </g>
   </g>
   <g id="line2d_12">
    <path d="M 75.957102 292.914545 
L 76.232429 292.739556 
L 76.46604 292.258334 
L 76.622476 291.689617 
L 76.682965 291.252143 
L 76.791427 290.420941 
L 76.91449 289.196013 
L 77.4422 280.446524 
L 77.477659 279.702818 
L 77.584035 277.209214 
L 77.617408 276.465507 
L 78.105488 263.909991 
L 78.216036 261.285145 
L 78.660314 249.648325 
L 78.770862 247.110973 
L 79.44875 230.57444 
L 79.555127 228.212078 
L 79.611444 227.337129 
L 80.666864 207.432043 
L 80.746125 206.644589 
L 80.856673 204.544712 
L 81.06734 201.176159 
L 81.177888 198.638807 
L 81.622166 191.595469 
L 81.678483 190.72052 
L 82.051843 185.120848 
L 82.166562 183.939667 
L 82.27711 182.408506 
L 82.875738 174.971441 
L 83.16358 171.252909 
L 83.397191 168.846799 
L 83.664175 165.565741 
L 83.964532 162.722157 
L 84.07508 161.322239 
L 84.210657 160.053563 
L 84.310776 158.828635 
L 84.365007 158.434908 
L 84.475555 157.341222 
L 85.111728 151.785297 
L 85.172216 151.39157 
L 85.353682 149.860409 
L 85.501775 148.941713 
L 85.603979 147.891774 
L 85.689498 147.191815 
L 85.795874 145.966887 
L 87.477038 133.455118 
L 87.61053 132.886402 
L 88.031864 130.086565 
L 88.396881 127.330476 
L 88.449026 126.849255 
L 88.605462 125.799316 
L 89.062254 122.82449 
L 89.170717 122.255773 
L 89.677569 119.412189 
L 89.758915 119.193452 
L 89.91118 118.143514 
L 90.030071 117.443555 
L 90.126018 116.743595 
L 90.228223 116.174879 
L 90.906112 112.150114 
L 90.987458 111.800134 
L 91.098006 111.18767 
L 91.152237 110.925186 
L 91.369162 109.65651 
L 91.456766 109.30653 
L 91.721664 108.125349 
L 91.817611 107.731622 
L 92.024106 107.031663 
L 92.076252 106.769179 
L 92.328635 105.281766 
L 92.493414 104.538059 
L 92.643592 103.706858 
L 93.008609 101.913213 
L 93.083698 101.60698 
L 93.359026 100.425799 
L 93.423686 100.119567 
L 93.609323 99.157124 
L 93.7303 98.719649 
L 93.832505 98.36967 
L 94.533337 95.526086 
L 94.862895 93.994925 
L 94.942156 93.776188 
L 95.106935 93.163724 
L 95.809854 90.713867 
L 95.897458 90.363888 
L 96.051808 90.057656 
L 96.423082 89.007717 
L 96.51903 88.832727 
L 96.619149 88.526495 
L 96.733868 88.351505 
L 97.44513 86.207881 
L 97.582793 85.945396 
L 97.941553 84.939205 
L 98.325342 83.758024 
L 98.563125 83.189307 
L 98.734161 82.533096 
L 99.14298 82.226863 
L 99.251442 81.833137 
L 99.351561 81.658147 
L 99.512169 81.26442 
L 100.676051 78.070856 
L 100.784514 77.895867 
L 100.905491 77.458392 
L 100.986837 77.239655 
L 101.053583 77.108413 
L 101.424858 76.670938 
L 101.506204 76.408454 
L 101.708528 76.102222 
L 101.885822 75.621 
L 102.200779 74.921041 
L 102.761863 74.308576 
L 102.83278 74.046092 
L 102.970444 73.783607 
L 103.204055 73.127395 
L 103.327118 72.908658 
L 103.514841 72.339942 
L 103.667105 72.033709 
L 104.11764 71.246255 
L 104.276162 71.071266 
L 104.459713 70.765034 
L 105.112572 69.671348 
L 105.385813 69.540105 
L 105.500533 69.365115 
L 105.721629 69.058883 
L 105.89058 68.708904 
L 106.136705 68.402672 
L 106.184679 68.315177 
L 106.318171 68.140187 
L 106.48295 67.74646 
L 106.647729 67.57147 
L 106.743676 67.396481 
L 106.895941 67.177743 
L 107.069063 66.827764 
L 107.45911 66.609027 
L 107.567572 66.434037 
L 108.072338 65.69033 
L 108.214173 65.471593 
L 108.57919 65.121614 
L 108.796115 64.727887 
L 109.054755 64.377907 
L 109.215363 64.071675 
L 109.315482 63.896685 
L 109.390571 63.765443 
L 109.58038 63.590453 
L 109.715957 63.371716 
L 110.667087 62.321777 
L 110.821437 61.971798 
L 110.946586 61.796808 
L 111.812198 60.878112 
L 111.987406 60.659374 
L 112.158442 60.440637 
L 112.56309 59.740678 
L 112.921849 59.521941 
L 113.011539 59.303204 
L 113.178404 59.128214 
L 113.278523 58.953224 
L 113.760345 58.51575 
L 113.847949 58.428255 
L 114.15665 58.297013 
L 114.851225 57.422064 
L 115.191212 56.984589 
L 115.72518 56.63461 
L 115.946276 56.328378 
L 116.841089 55.453429 
L 116.924521 55.234692 
L 117.160218 54.972207 
L 117.320825 54.665975 
L 117.754674 54.490985 
L 117.892337 54.359743 
L 117.990371 54.184753 
L 118.167665 53.922268 
L 118.509738 53.747279 
L 118.676603 53.572289 
L 119.129224 53.309804 
L 119.638162 52.69734 
L 120.284763 52.084876 
L 120.653952 51.866139 
L 120.818731 51.734896 
L 121.100315 51.559906 
L 121.273438 51.297422 
L 121.323497 51.166179 
L 121.542507 51.034937 
L 121.632197 50.947442 
L 121.86998 50.772452 
L 121.97427 50.64121 
L 122.545782 50.247483 
L 122.629215 50.159988 
L 123.240358 49.766261 
L 123.530285 49.547524 
L 123.617889 49.460029 
L 123.759725 49.285039 
L 123.970391 49.153797 
L 124.29995 48.803818 
L 124.425098 48.672575 
L 124.516874 48.497586 
L 124.858947 48.322596 
L 125.148875 48.147606 
L 125.232307 47.928869 
L 125.493034 47.753879 
L 126.260612 47.05392 
L 126.738263 46.791435 
L 126.815438 46.70394 
L 127.447439 46.353961 
L 127.512099 46.178971 
L 128.221275 45.960234 
L 128.888734 45.566507 
L 128.984682 45.479012 
L 129.854465 44.866548 
L 131.577345 44.254084 
L 131.627405 44.166589 
L 132.29695 43.904104 
L 132.789201 43.422882 
L 133.410773 43.160398 
L 133.502549 43.029155 
L 134.176266 42.722923 
L 134.795752 42.547933 
L 135.231686 42.154206 
L 137.015055 41.454247 
L 137.088058 41.366752 
L 137.726317 41.148015 
L 139.92059 40.185571 
L 140.25432 40.010582 
L 140.335667 39.835592 
L 141.061529 39.398118 
L 141.290968 39.266875 
L 141.418203 39.135633 
L 142.025174 38.916896 
L 142.152408 38.785653 
L 142.46528 38.610664 
L 143.14734 38.348179 
L 143.155683 38.304431 
L 143.606219 38.173189 
L 143.923262 37.998199 
L 145.251924 37.516977 
L 146.384519 37.341988 
L 146.52844 37.254493 
L 146.908058 37.079503 
L 147.004005 36.992008 
L 147.585946 36.773271 
L 150.376762 35.59209 
L 151.327892 35.373353 
L 151.411324 35.285858 
L 151.74714 35.067121 
L 151.843087 34.979626 
L 152.322824 34.760889 
L 152.58355 34.629646 
L 152.593979 34.585899 
L 153.732832 34.192172 
L 153.845466 34.06093 
L 154.364833 33.929687 
L 155.856188 33.317223 
L 155.877046 33.273476 
L 159.779599 32.486022 
L 160.284365 32.311032 
L 161.786149 32.136042 
L 161.91547 32.092295 
L 163.06058 31.917305 
L 163.062666 31.873557 
L 166.77541 31.261093 
L 167.086196 31.129851 
L 169.584998 30.736124 
L 169.622542 30.692376 
L 174.563829 29.94867 
L 174.714008 29.904923 
L 176.046841 29.729933 
L 176.380571 29.554943 
L 181.776565 28.679994 
L 182.669292 28.548752 
L 182.733952 28.505004 
L 186.953548 28.155025 
L 187.719041 27.936288 
L 193.277728 27.455066 
L 193.311101 27.411318 
L 194.687736 27.192581 
L 196.909125 26.930096 
L 197.968717 26.798854 
L 201.016088 26.536369 
L 201.341474 26.448875 
L 202.127825 26.18639 
L 202.190399 26.142643 
L 208.63347 25.355189 
L 210.602476 25.223946 
L 212.773806 24.873967 
L 213.495496 24.742724 
L 217.54197 24.48024 
L 217.888215 24.436492 
L 222.38731 24.261502 
L 223.857807 23.999018 
L 228.379845 23.692786 
L 228.88044 23.561543 
L 235.765703 23.255311 
L 240.145907 23.080322 
L 240.417062 22.992827 
L 245.992436 22.42411 
L 266.089227 21.811646 
L 286.878508 21.636656 
L 294.871336 21.461666 
L 296.277173 21.417919 
L 328.513386 21.155434 
L 366.967402 21.024192 
L 387.099653 20.892949 
L 476.111648 20.805455 
L 476.111648 20.805455 
" clip-path="url(#p8ccaad3bac)" style="fill: none; stroke: #0000ff; stroke-width: 1.5; stroke-linecap: square"/>
   </g>
   <g id="patch_3">
    <path d="M 55.949375 306.52 
L 55.949375 7.2 
" style="fill: none; stroke: #000000; stroke-width: 0.8; stroke-linejoin: miter; stroke-linecap: square"/>
   </g>
   <g id="patch_4">
    <path d="M 496.119375 306.52 
L 496.119375 7.2 
" style="fill: none; stroke: #000000; stroke-width: 0.8; stroke-linejoin: miter; stroke-linecap: square"/>
   </g>
   <g id="patch_5">
    <path d="M 55.949375 306.52 
L 496.119375 306.52 
" style="fill: none; stroke: #000000; stroke-width: 0.8; stroke-linejoin: miter; stroke-linecap: square"/>
   </g>
   <g id="patch_6">
    <path d="M 55.949375 7.2 
L 496.119375 7.2 
" style="fill: none; stroke: #000000; stroke-width: 0.8; stroke-linejoin: miter; stroke-linecap: square"/>
   </g>
  </g>
  <g id="axes_2">
   <g id="patch_7">
    <path d="M 554.549375 306.52 
L 994.719375 306.52 
L 994.719375 7.2 
L 554.549375 7.2 
z
" style="fill: #ffffff"/>
   </g>
   <g id="matplotlib.axis_3">
    <g id="xtick_6">
     <g id="line2d_13">
      <g>
       <use xlink:href="#mbd73d6c75a" x="603.987455" y="306.52" style="stroke: #000000; stroke-width: 0.8"/>
      </g>
     </g>
     <g id="text_14">
      <!-- 2 -->
      <g transform="translate(599.533705 324.157812) scale(0.14 -0.14)">
       <use xlink:href="#DejaVuSans-32"/>
      </g>
     </g>
    </g>
    <g id="xtick_7">
     <g id="line2d_14">
      <g>
       <use xlink:href="#mbd73d6c75a" x="662.881312" y="306.52" style="stroke: #000000; stroke-width: 0.8"/>
      </g>
     </g>
     <g id="text_15">
      <!-- 4 -->
      <g transform="translate(658.427562 324.157812) scale(0.14 -0.14)">
       <use xlink:href="#DejaVuSans-34"/>
      </g>
     </g>
    </g>
    <g id="xtick_8">
     <g id="line2d_15">
      <g>
       <use xlink:href="#mbd73d6c75a" x="721.775168" y="306.52" style="stroke: #000000; stroke-width: 0.8"/>
      </g>
     </g>
     <g id="text_16">
      <!-- 6 -->
      <g transform="translate(717.321418 324.157812) scale(0.14 -0.14)">
       <use xlink:href="#DejaVuSans-36"/>
      </g>
     </g>
    </g>
    <g id="xtick_9">
     <g id="line2d_16">
      <g>
       <use xlink:href="#mbd73d6c75a" x="780.669025" y="306.52" style="stroke: #000000; stroke-width: 0.8"/>
      </g>
     </g>
     <g id="text_17">
      <!-- 8 -->
      <g transform="translate(776.215275 324.157812) scale(0.14 -0.14)">
       <use xlink:href="#DejaVuSans-38"/>
      </g>
     </g>
    </g>
    <g id="xtick_10">
     <g id="line2d_17">
      <g>
       <use xlink:href="#mbd73d6c75a" x="839.562882" y="306.52" style="stroke: #000000; stroke-width: 0.8"/>
      </g>
     </g>
     <g id="text_18">
      <!-- 10 -->
      <g transform="translate(830.655382 324.157812) scale(0.14 -0.14)">
       <use xlink:href="#DejaVuSans-31"/>
       <use xlink:href="#DejaVuSans-30" transform="translate(63.623047 0)"/>
      </g>
     </g>
    </g>
    <g id="xtick_11">
     <g id="line2d_18">
      <g>
       <use xlink:href="#mbd73d6c75a" x="898.456738" y="306.52" style="stroke: #000000; stroke-width: 0.8"/>
      </g>
     </g>
     <g id="text_19">
      <!-- 12 -->
      <g transform="translate(889.549238 324.157812) scale(0.14 -0.14)">
       <use xlink:href="#DejaVuSans-31"/>
       <use xlink:href="#DejaVuSans-32" transform="translate(63.623047 0)"/>
      </g>
     </g>
    </g>
    <g id="xtick_12">
     <g id="line2d_19">
      <g>
       <use xlink:href="#mbd73d6c75a" x="957.350595" y="306.52" style="stroke: #000000; stroke-width: 0.8"/>
      </g>
     </g>
     <g id="text_20">
      <!-- 14 -->
      <g transform="translate(948.443095 324.157812) scale(0.14 -0.14)">
       <use xlink:href="#DejaVuSans-31"/>
       <use xlink:href="#DejaVuSans-34" transform="translate(63.623047 0)"/>
      </g>
     </g>
    </g>
    <g id="text_21">
     <!-- Diameter (mm) -->
     <g transform="translate(712.916875 343.226875) scale(0.16 -0.16)">
      <defs>
       <path id="DejaVuSans-44" d="M 1259 4147 
L 1259 519 
L 2022 519 
Q 2988 519 3436 956 
Q 3884 1394 3884 2338 
Q 3884 3275 3436 3711 
Q 2988 4147 2022 4147 
L 1259 4147 
z
M 628 4666 
L 1925 4666 
Q 3281 4666 3915 4102 
Q 4550 3538 4550 2338 
Q 4550 1131 3912 565 
Q 3275 0 1925 0 
L 628 0 
L 628 4666 
z
" transform="scale(0.015625)"/>
      </defs>
      <use xlink:href="#DejaVuSans-44"/>
      <use xlink:href="#DejaVuSans-69" transform="translate(77.001953 0)"/>
      <use xlink:href="#DejaVuSans-61" transform="translate(104.785156 0)"/>
      <use xlink:href="#DejaVuSans-6d" transform="translate(166.064453 0)"/>
      <use xlink:href="#DejaVuSans-65" transform="translate(263.476562 0)"/>
      <use xlink:href="#DejaVuSans-74" transform="translate(325 0)"/>
      <use xlink:href="#DejaVuSans-65" transform="translate(364.208984 0)"/>
      <use xlink:href="#DejaVuSans-72" transform="translate(425.732422 0)"/>
      <use xlink:href="#DejaVuSans-20" transform="translate(466.845703 0)"/>
      <use xlink:href="#DejaVuSans-28" transform="translate(498.632812 0)"/>
      <use xlink:href="#DejaVuSans-6d" transform="translate(537.646484 0)"/>
      <use xlink:href="#DejaVuSans-6d" transform="translate(635.058594 0)"/>
      <use xlink:href="#DejaVuSans-29" transform="translate(732.470703 0)"/>
     </g>
    </g>
   </g>
   <g id="matplotlib.axis_4">
    <g id="ytick_7">
     <g id="line2d_20">
      <g>
       <use xlink:href="#m65fdab01e2" x="554.549375" y="292.958293" style="stroke: #000000; stroke-width: 0.8"/>
      </g>
     </g>
     <g id="text_22">
      <!-- 0.0 -->
      <g transform="translate(525.285 298.277199) scale(0.14 -0.14)">
       <use xlink:href="#DejaVuSans-30"/>
       <use xlink:href="#DejaVuSans-2e" transform="translate(63.623047 0)"/>
       <use xlink:href="#DejaVuSans-30" transform="translate(95.410156 0)"/>
      </g>
     </g>
    </g>
    <g id="ytick_8">
     <g id="line2d_21">
      <g>
       <use xlink:href="#m65fdab01e2" x="554.549375" y="238.527725" style="stroke: #000000; stroke-width: 0.8"/>
      </g>
     </g>
     <g id="text_23">
      <!-- 0.2 -->
      <g transform="translate(525.285 243.846631) scale(0.14 -0.14)">
       <use xlink:href="#DejaVuSans-30"/>
       <use xlink:href="#DejaVuSans-2e" transform="translate(63.623047 0)"/>
       <use xlink:href="#DejaVuSans-32" transform="translate(95.410156 0)"/>
      </g>
     </g>
    </g>
    <g id="ytick_9">
     <g id="line2d_22">
      <g>
       <use xlink:href="#m65fdab01e2" x="554.549375" y="184.097158" style="stroke: #000000; stroke-width: 0.8"/>
      </g>
     </g>
     <g id="text_24">
      <!-- 0.4 -->
      <g transform="translate(525.285 189.416064) scale(0.14 -0.14)">
       <use xlink:href="#DejaVuSans-30"/>
       <use xlink:href="#DejaVuSans-2e" transform="translate(63.623047 0)"/>
       <use xlink:href="#DejaVuSans-34" transform="translate(95.410156 0)"/>
      </g>
     </g>
    </g>
    <g id="ytick_10">
     <g id="line2d_23">
      <g>
       <use xlink:href="#m65fdab01e2" x="554.549375" y="129.66659" style="stroke: #000000; stroke-width: 0.8"/>
      </g>
     </g>
     <g id="text_25">
      <!-- 0.6 -->
      <g transform="translate(525.285 134.985496) scale(0.14 -0.14)">
       <use xlink:href="#DejaVuSans-30"/>
       <use xlink:href="#DejaVuSans-2e" transform="translate(63.623047 0)"/>
       <use xlink:href="#DejaVuSans-36" transform="translate(95.410156 0)"/>
      </g>
     </g>
    </g>
    <g id="ytick_11">
     <g id="line2d_24">
      <g>
       <use xlink:href="#m65fdab01e2" x="554.549375" y="75.236022" style="stroke: #000000; stroke-width: 0.8"/>
      </g>
     </g>
     <g id="text_26">
      <!-- 0.8 -->
      <g transform="translate(525.285 80.554928) scale(0.14 -0.14)">
       <use xlink:href="#DejaVuSans-30"/>
       <use xlink:href="#DejaVuSans-2e" transform="translate(63.623047 0)"/>
       <use xlink:href="#DejaVuSans-38" transform="translate(95.410156 0)"/>
      </g>
     </g>
    </g>
    <g id="ytick_12">
     <g id="line2d_25">
      <g>
       <use xlink:href="#m65fdab01e2" x="554.549375" y="20.805455" style="stroke: #000000; stroke-width: 0.8"/>
      </g>
     </g>
     <g id="text_27">
      <!-- 1.0 -->
      <g transform="translate(525.285 26.124361) scale(0.14 -0.14)">
       <use xlink:href="#DejaVuSans-31"/>
       <use xlink:href="#DejaVuSans-2e" transform="translate(63.623047 0)"/>
       <use xlink:href="#DejaVuSans-30" transform="translate(95.410156 0)"/>
      </g>
     </g>
    </g>
    <g id="text_28">
     <!-- Probability -->
     <g transform="translate(517.9575 199.14625) rotate(-90) scale(0.16 -0.16)">
      <use xlink:href="#DejaVuSans-50"/>
      <use xlink:href="#DejaVuSans-72" transform="translate(58.552734 0)"/>
      <use xlink:href="#DejaVuSans-6f" transform="translate(97.416016 0)"/>
      <use xlink:href="#DejaVuSans-62" transform="translate(158.597656 0)"/>
      <use xlink:href="#DejaVuSans-61" transform="translate(222.074219 0)"/>
      <use xlink:href="#DejaVuSans-62" transform="translate(283.353516 0)"/>
      <use xlink:href="#DejaVuSans-69" transform="translate(346.830078 0)"/>
      <use xlink:href="#DejaVuSans-6c" transform="translate(374.613281 0)"/>
      <use xlink:href="#DejaVuSans-69" transform="translate(402.396484 0)"/>
      <use xlink:href="#DejaVuSans-74" transform="translate(430.179688 0)"/>
      <use xlink:href="#DejaVuSans-79" transform="translate(469.388672 0)"/>
     </g>
    </g>
   </g>
   <g id="line2d_26">
    <path d="M 574.557102 292.914545 
L 574.72142 292.345829 
L 574.875494 291.29589 
L 575.207567 290.289699 
L 575.343935 289.502245 
L 575.452686 289.327255 
L 575.55959 288.889781 
L 575.618072 288.627296 
L 575.935692 287.88359 
L 576.761204 284.996258 
L 576.825206 284.690026 
L 576.908723 284.515037 
L 577.003654 284.252552 
L 577.175379 283.290108 
L 577.250306 282.458907 
L 577.335134 281.89019 
L 577.512561 281.408968 
L 577.7918 280.315282 
L 577.899099 279.440333 
L 578.018428 279.002859 
L 578.100614 278.652879 
L 578.252844 278.47789 
L 578.378755 277.690436 
L 578.518139 276.990476 
L 578.732942 275.940538 
L 578.759032 275.765548 
L 578.84874 275.634306 
L 579.255164 273.709418 
L 579.382598 273.315691 
L 579.738682 272.090763 
L 579.931226 271.215814 
L 580.04146 270.734592 
L 580.138231 270.209623 
L 580.249338 269.815896 
L 580.650252 268.284735 
L 581.581833 264.828688 
L 581.699279 264.653698 
L 581.799089 264.172476 
L 581.996544 263.122537 
L 582.104779 262.685063 
L 582.23038 262.466326 
L 582.36479 261.897609 
L 582.945642 259.797732 
L 583.028916 259.622742 
L 583.131608 258.835288 
L 583.244312 258.179076 
L 583.34941 257.61036 
L 583.449349 257.08539 
L 583.506301 256.516673 
L 583.580355 256.385431 
L 583.697878 255.947957 
L 583.883326 255.20425 
L 583.989122 254.241806 
L 584.215797 253.279363 
L 584.600973 251.748202 
L 584.650326 251.573213 
L 584.716741 251.310728 
L 584.771529 251.135738 
L 584.88637 250.698264 
L 585.031412 250.173294 
L 585.131647 249.604578 
L 585.247552 249.254598 
L 585.348657 248.423397 
L 585.394168 248.204659 
L 585.816862 246.629752 
L 585.9057 246.061035 
L 586.084496 245.754803 
L 586.630085 243.829915 
L 586.774442 243.129956 
L 586.992821 242.298755 
L 587.090502 241.555048 
L 587.223553 241.380058 
L 587.827344 239.323929 
L 587.931357 238.755212 
L 588.593014 236.436597 
L 588.745796 235.342911 
L 588.872266 235.124174 
L 589.202284 233.680509 
L 589.272999 233.461771 
L 589.352078 233.155539 
L 589.458089 232.936802 
L 589.683881 232.368085 
L 589.825974 231.361894 
L 589.878283 231.09941 
L 589.982127 230.705683 
L 590.147574 230.39945 
L 590.251263 230.049471 
L 590.516063 229.174522 
L 590.584894 228.780795 
L 590.689945 228.605805 
L 591.240154 226.287191 
L 591.335765 226.112201 
L 591.8727 224.231061 
L 592.039232 223.793587 
L 592.147562 223.006133 
L 592.584649 220.99375 
L 592.666741 220.775013 
L 592.793241 220.381286 
L 592.87136 220.075054 
L 592.977412 219.331348 
L 593.172591 218.762631 
L 593.371795 217.800187 
L 593.488078 217.275218 
L 593.552083 217.056481 
L 593.658923 216.837743 
L 593.907968 215.569068 
L 594.1607 214.825361 
L 594.268726 214.300392 
L 594.34088 213.950412 
L 594.430995 213.425443 
L 594.540946 213.250453 
L 594.643426 212.550494 
L 594.966185 211.238071 
L 595.082481 210.931839 
L 595.257498 210.144385 
L 595.348746 209.663163 
L 595.455769 209.444426 
L 595.542089 208.788214 
L 595.695388 208.394487 
L 595.789385 207.694528 
L 595.880121 207.432043 
L 596.006834 206.950821 
L 596.07802 206.732084 
L 596.309049 206.11962 
L 596.417221 205.900883 
L 596.604862 205.288419 
L 596.785251 205.113429 
L 597.087409 203.757258 
L 597.424039 202.488582 
L 597.510727 202.269845 
L 597.602693 201.919866 
L 597.640763 201.613633 
L 597.700751 201.132412 
L 597.794644 200.957422 
L 597.943184 200.4762 
L 598.112964 200.257463 
L 599.032316 196.101456 
L 599.097386 195.882719 
L 599.177072 195.620234 
L 599.241703 195.445244 
L 599.350849 194.876527 
L 600.121189 192.207933 
L 600.295057 191.639217 
L 600.439118 191.464227 
L 600.545342 190.939258 
L 600.586978 190.676773 
L 600.811533 190.020561 
L 600.972377 189.539339 
L 601.611168 187.48321 
L 601.674155 187.176977 
L 601.75597 186.608261 
L 601.922566 186.258281 
L 602.071868 185.645817 
L 602.644891 184.114657 
L 602.695225 183.895919 
L 602.867691 183.108465 
L 603.100918 182.496001 
L 603.385421 181.708547 
L 603.466326 181.48981 
L 603.587145 180.964841 
L 603.809884 180.046144 
L 604.181062 178.689974 
L 604.387484 178.07751 
L 604.45983 177.90252 
L 604.522457 177.596288 
L 604.604258 177.421298 
L 604.702532 177.202561 
L 604.943719 176.546349 
L 605.166882 176.196369 
L 605.301761 175.890137 
L 605.482955 175.277673 
L 605.614261 174.883946 
L 605.756634 174.708956 
L 605.906212 174.008997 
L 606.016901 173.79026 
L 606.125507 173.396533 
L 606.837601 171.252909 
L 606.942507 170.902929 
L 607.441345 169.634253 
L 607.491206 169.109284 
L 607.59312 168.934294 
L 608.229963 167.009407 
L 608.374742 166.703175 
L 608.557885 166.309448 
L 608.693329 166.09071 
L 609.018096 165.040772 
L 609.13932 164.55955 
L 609.24889 164.428308 
L 609.309959 164.253318 
L 609.406838 164.078328 
L 609.510976 163.684601 
L 609.656395 163.159632 
L 609.825721 162.547167 
L 609.922283 162.284683 
L 610.358427 161.190997 
L 610.465954 160.97226 
L 610.680484 160.359795 
L 610.82312 159.878574 
L 611.018731 159.659836 
L 611.114242 159.441099 
L 611.30223 159.222362 
L 611.433766 158.784887 
L 611.514058 158.609898 
L 611.637343 158.303666 
L 612.005724 157.691201 
L 612.11119 157.20998 
L 612.30029 156.728758 
L 612.42429 156.51002 
L 612.66148 156.072546 
L 613.207901 154.716375 
L 613.316932 154.278901 
L 613.459493 154.016416 
L 613.806779 153.185215 
L 613.937269 152.878983 
L 614.034876 152.572751 
L 614.098446 152.354013 
L 614.25959 152.047781 
L 614.366774 151.785297 
L 614.484883 151.566559 
L 614.704354 150.691611 
L 614.798078 150.341631 
L 614.972398 150.210389 
L 615.100712 149.729167 
L 615.167564 149.597925 
L 615.239681 149.422935 
L 615.349878 148.941713 
L 618.240795 142.029617 
L 618.399054 141.63589 
L 618.626788 140.979678 
L 618.764099 140.454709 
L 619.136841 139.75475 
L 619.405128 139.011044 
L 619.489093 138.617317 
L 619.5996 138.354832 
L 619.74566 137.961105 
L 620.515285 136.123712 
L 620.683391 135.64249 
L 620.888492 134.986279 
L 621.802883 133.017644 
L 621.909629 132.886402 
L 622.03652 132.667664 
L 622.162987 132.317685 
L 622.42878 131.573978 
L 622.562142 131.311494 
L 622.672878 131.005262 
L 622.838686 130.436545 
L 623.044191 130.086565 
L 623.365116 129.299111 
L 623.617754 128.730395 
L 623.761724 128.511657 
L 623.923312 128.249173 
L 624.034062 128.030436 
L 624.108173 127.855446 
L 624.206879 127.636709 
L 624.33009 127.286729 
L 624.46294 127.067992 
L 624.669159 126.630517 
L 624.759474 126.368033 
L 625.016559 125.755569 
L 625.150932 125.536831 
L 625.308955 125.055609 
L 625.328413 124.968115 
L 625.511804 124.793125 
L 625.716535 124.399398 
L 625.837441 124.136913 
L 626.045898 123.611944 
L 626.156661 123.305712 
L 626.371751 122.736995 
L 626.444076 122.47451 
L 626.640503 122.124531 
L 626.717027 121.905794 
L 626.908022 121.687056 
L 627.009774 121.424572 
L 627.226952 121.074592 
L 627.665718 120.112148 
L 627.785654 119.893411 
L 627.823397 119.630927 
L 627.969484 119.455937 
L 628.033876 119.2372 
L 628.162298 118.974715 
L 628.490468 118.143514 
L 628.644731 117.924776 
L 628.752899 117.706039 
L 628.966856 117.531049 
L 629.21429 116.874838 
L 629.444193 116.612353 
L 629.53903 116.349868 
L 630.412402 114.468728 
L 630.633935 114.249991 
L 630.857159 113.900012 
L 630.948107 113.59378 
L 631.057118 113.2438 
L 631.480759 112.500094 
L 631.654223 112.281356 
L 632.131008 111.318913 
L 632.211408 111.143923 
L 632.510988 110.531459 
L 632.586838 110.312721 
L 633.19129 109.394025 
L 633.298022 108.912803 
L 633.494874 108.606571 
L 634.50582 106.856673 
L 634.598278 106.594189 
L 634.945515 105.981725 
L 635.054021 105.762987 
L 635.270633 105.325513 
L 635.361857 105.150523 
L 635.723842 104.406817 
L 635.797448 104.231827 
L 636.089069 103.925595 
L 636.196185 103.619363 
L 636.818835 102.000707 
L 637.034369 101.78197 
L 638.651627 99.375861 
L 638.726668 99.244619 
L 638.900146 99.025881 
L 639.655557 97.757205 
L 639.80841 97.582216 
L 640.387237 97.013499 
L 640.655376 96.838509 
L 640.799912 96.751014 
L 641.852545 95.176106 
L 641.98257 94.957369 
L 642.123973 94.738632 
L 642.160159 94.60739 
L 642.389025 94.4324 
L 642.453175 94.25741 
L 642.706324 94.08242 
L 643.51746 92.901239 
L 643.69542 92.638755 
L 644.177327 91.938796 
L 644.365956 91.676311 
L 645.086522 90.888857 
L 645.328456 90.451383 
L 645.449059 90.32014 
L 645.495706 90.057656 
L 645.757839 89.795171 
L 645.83861 89.532686 
L 646.0538 89.313949 
L 646.138359 89.182707 
L 646.297002 89.007717 
L 646.622059 88.657738 
L 646.694681 88.570243 
L 646.908058 88.351505 
L 647.049912 88.220263 
L 647.546236 87.651546 
L 647.877056 87.476557 
L 648.025002 87.257819 
L 648.607159 86.820345 
L 649.136616 85.989144 
L 649.395777 85.770406 
L 649.754304 85.332932 
L 650.223021 84.807963 
L 650.461411 84.632973 
L 650.767225 84.282993 
L 650.837455 84.195498 
L 651.032756 84.020509 
L 651.23882 83.670529 
L 651.506609 83.451792 
L 651.616374 83.276802 
L 651.83635 82.97057 
L 652.055456 82.79558 
L 652.164844 82.576843 
L 652.248635 82.226863 
L 652.56861 82.008126 
L 652.732577 81.833137 
L 652.891254 81.614399 
L 653.122674 81.351915 
L 653.978833 80.258229 
L 654.074053 80.126986 
L 654.614975 79.820754 
L 654.625658 79.777007 
L 654.924503 79.602017 
L 655.13569 79.427027 
L 655.499084 79.120795 
L 655.739063 78.727068 
L 656.148106 78.420836 
L 656.515287 78.114604 
L 656.812562 77.677129 
L 657.216988 77.414645 
L 657.758584 76.627191 
L 657.993852 76.495949 
L 658.271521 76.102222 
L 658.654656 75.927232 
L 658.674201 75.883484 
L 658.885483 75.752242 
L 659.023165 75.489757 
L 660.509575 73.914849 
L 660.793229 73.696112 
L 660.914574 73.608617 
L 661.569689 73.21489 
L 662.201133 72.646174 
L 662.387585 72.471184 
L 662.397749 72.427436 
L 662.988188 72.164952 
L 662.991356 72.121204 
L 663.277086 71.946215 
L 663.379909 71.814972 
L 663.788898 71.639982 
L 664.409464 70.983771 
L 665.444923 70.458802 
L 666.549197 69.583853 
L 667.205485 69.408863 
L 667.292024 69.277621 
L 667.837967 68.708904 
L 667.969422 68.577662 
L 668.849729 67.877702 
L 669.043365 67.790208 
L 669.400174 67.615218 
L 670.070737 67.177743 
L 670.288529 67.002754 
L 670.421048 66.784016 
L 670.606758 66.652774 
L 670.701036 66.565279 
L 670.941609 66.346542 
L 670.948362 66.302795 
L 671.226354 66.127805 
L 671.355598 65.909068 
L 671.797558 65.734078 
L 672.776012 65.384098 
L 672.847751 65.209108 
L 673.187912 64.990371 
L 673.628713 64.727887 
L 673.701692 64.552897 
L 673.926022 64.421654 
L 674.057314 64.290412 
L 674.88869 64.027928 
L 680.234969 60.615627 
L 680.586614 60.484385 
L 680.776813 60.265647 
L 681.213139 59.959415 
L 681.280443 59.87192 
L 681.682449 59.653183 
L 681.790975 59.521941 
L 681.862175 59.303204 
L 682.306669 59.128214 
L 682.443165 58.953224 
L 682.826137 58.778234 
L 682.862182 58.646992 
L 683.299694 58.51575 
L 683.584022 58.34076 
L 684.285885 58.16577 
L 685.029926 57.859538 
L 686.140561 57.159579 
L 686.20676 57.072084 
L 687.143993 56.503367 
L 688.993695 55.540924 
L 689.0242 55.497176 
L 689.660915 55.278439 
L 690.096351 55.015954 
L 690.214083 54.840965 
L 690.684647 54.40349 
L 691.027302 54.097258 
L 692.939941 53.134814 
L 693.069199 53.003572 
L 693.611421 52.653593 
L 693.719218 52.52235 
L 695.140535 51.647401 
L 695.532714 51.516159 
L 695.818444 51.297422 
L 695.93313 51.209927 
L 697.495943 50.46622 
L 697.987145 50.291231 
L 698.096924 50.203736 
L 698.185917 50.116241 
L 698.453476 49.941251 
L 699.022361 49.591272 
L 699.045183 49.547524 
L 699.980137 49.197545 
L 700.266042 49.066302 
L 700.865621 48.891312 
L 700.904267 48.847565 
L 701.818395 48.58508 
L 701.82345 48.541333 
L 701.995061 48.366343 
L 702.084566 48.278848 
L 703.93532 47.578889 
L 704.523805 47.447647 
L 704.589869 47.272657 
L 704.961303 47.010172 
L 705.312706 46.835183 
L 705.347619 46.791435 
L 705.779321 46.660193 
L 706.2231 46.441456 
L 709.044261 45.654002 
L 709.694725 45.479012 
L 710.425529 45.17278 
L 710.659106 45.041538 
L 711.786537 44.472821 
L 712.707594 44.035346 
L 713.417167 43.860357 
L 713.57147 43.729114 
L 713.725017 43.597872 
L 714.915008 43.204145 
L 714.957375 43.160398 
L 715.392258 42.985408 
L 715.927431 42.766671 
L 715.948135 42.722923 
L 717.211011 42.329196 
L 717.375949 42.154206 
L 717.790411 42.022964 
L 718.748024 41.4105 
L 719.999604 41.191763 
L 720.365094 41.016773 
L 720.720945 40.885531 
L 721.450226 40.710541 
L 721.627309 40.623046 
L 722.432265 40.491804 
L 722.860017 40.273066 
L 723.292703 40.098077 
L 723.30803 40.054329 
L 725.152624 39.70435 
L 726.033187 39.266875 
L 726.043647 39.223128 
L 726.492199 39.004391 
L 726.672234 38.829401 
L 727.624348 38.523169 
L 727.699889 38.348179 
L 729.20327 37.691967 
L 729.951692 37.560725 
L 729.960305 37.516977 
L 731.427885 37.166998 
L 732.488012 36.860766 
L 733.665655 36.685776 
L 734.161629 36.554534 
L 735.165087 36.335797 
L 735.18253 36.292049 
L 736.795312 35.94207 
L 738.541936 35.76708 
L 738.562115 35.723332 
L 739.415395 35.460848 
L 741.238165 34.629646 
L 741.242142 34.585899 
L 743.26088 33.973435 
L 744.56797 33.798445 
L 745.535289 33.448465 
L 747.013827 33.273476 
L 747.040881 33.185981 
L 750.261809 32.529769 
L 750.342378 32.442274 
L 751.144813 32.267284 
L 751.436757 32.092295 
L 751.528797 31.961052 
L 752.521619 31.786063 
L 756.128163 31.567325 
L 761.458373 31.129851 
L 761.57376 31.042356 
L 767.227403 29.94867 
L 768.805367 29.686185 
L 768.906681 29.59869 
L 771.32384 29.423701 
L 771.639239 29.248711 
L 772.026242 29.117469 
L 773.300023 28.942479 
L 774.87664 28.679994 
L 777.066988 28.373762 
L 782.100779 27.673803 
L 784.634188 27.323823 
L 785.089857 27.192581 
L 785.100452 27.148834 
L 786.290011 26.973844 
L 787.316736 26.711359 
L 789.160682 26.492622 
L 789.160682 26.448875 
L 790.70821 26.273885 
L 792.842052 26.142643 
L 794.324418 25.967653 
L 794.924913 25.792663 
L 798.931764 25.398936 
L 802.668832 25.180199 
L 802.779285 25.136451 
L 810.811642 24.655229 
L 815.402166 24.48024 
L 817.361715 24.30525 
L 821.333599 24.13026 
L 821.464946 24.086513 
L 823.38074 23.95527 
L 825.38798 23.649038 
L 829.317834 23.474049 
L 835.014451 23.211564 
L 837.667209 23.080322 
L 843.896167 22.905332 
L 844.228793 22.861584 
L 847.747057 22.686595 
L 848.670042 22.5991 
L 860.214167 22.336615 
L 860.737531 22.292868 
L 880.468977 21.811646 
L 880.939851 21.724151 
L 883.767036 21.505414 
L 956.51948 20.892949 
L 974.711648 20.805455 
L 974.711648 20.805455 
" clip-path="url(#p6086795a5c)" style="fill: none; stroke: #008000; stroke-width: 1.5; stroke-linecap: square"/>
   </g>
   <g id="patch_8">
    <path d="M 554.549375 306.52 
L 554.549375 7.2 
" style="fill: none; stroke: #000000; stroke-width: 0.8; stroke-linejoin: miter; stroke-linecap: square"/>
   </g>
   <g id="patch_9">
    <path d="M 994.719375 306.52 
L 994.719375 7.2 
" style="fill: none; stroke: #000000; stroke-width: 0.8; stroke-linejoin: miter; stroke-linecap: square"/>
   </g>
   <g id="patch_10">
    <path d="M 554.549375 306.52 
L 994.719375 306.52 
" style="fill: none; stroke: #000000; stroke-width: 0.8; stroke-linejoin: miter; stroke-linecap: square"/>
   </g>
   <g id="patch_11">
    <path d="M 554.549375 7.2 
L 994.719375 7.2 
" style="fill: none; stroke: #000000; stroke-width: 0.8; stroke-linejoin: miter; stroke-linecap: square"/>
   </g>
  </g>
 </g>
 <defs>
  <clipPath id="p8ccaad3bac">
   <rect x="55.949375" y="7.2" width="440.17" height="299.32"/>
  </clipPath>
  <clipPath id="p6086795a5c">
   <rect x="554.549375" y="7.2" width="440.17" height="299.32"/>
  </clipPath>
 </defs>
</svg>
