<?xml version="1.0" encoding="utf-8" standalone="no"?>
<!DOCTYPE svg PUBLIC "-//W3C//DTD SVG 1.1//EN"
  "http://www.w3.org/Graphics/SVG/1.1/DTD/svg11.dtd">
<svg xmlns:xlink="http://www.w3.org/1999/xlink" width="1001.919375pt" height="353.754375pt" viewBox="0 0 1001.919375 353.754375" xmlns="http://www.w3.org/2000/svg" version="1.1">
 <metadata>
  <rdf:RDF xmlns:dc="http://purl.org/dc/elements/1.1/" xmlns:cc="http://creativecommons.org/ns#" xmlns:rdf="http://www.w3.org/1999/02/22-rdf-syntax-ns#">
   <cc:Work>
    <dc:type rdf:resource="http://purl.org/dc/dcmitype/StillImage"/>
    <dc:date>2025-08-11T18:10:17.977635</dc:date>
    <dc:format>image/svg+xml</dc:format>
    <dc:creator>
     <cc:Agent>
      <dc:title>Matplotlib v3.10.5, https://matplotlib.org/</dc:title>
     </cc:Agent>
    </dc:creator>
   </cc:Work>
  </rdf:RDF>
 </metadata>
 <defs>
  <style type="text/css">*{stroke-linejoin: round; stroke-linecap: butt}</style>
 </defs>
 <g id="figure_1">
  <g id="patch_1">
   <path d="M 0 353.754375 
L 1001.919375 353.754375 
L 1001.919375 0 
L 0 0 
z
" style="fill: #ffffff"/>
  </g>
  <g id="axes_1">
   <g id="patch_2">
    <path d="M 55.949375 306.52 
L 496.119375 306.52 
L 496.119375 7.2 
L 55.949375 7.2 
z
" style="fill: #ffffff"/>
   </g>
   <g id="matplotlib.axis_1">
    <g id="xtick_1">
     <g id="line2d_1">
      <defs>
       <path id="m4281ac919f" d="M 0 0 
L 0 3.5 
" style="stroke: #000000; stroke-width: 0.8"/>
      </defs>
      <g>
       <use xlink:href="#m4281ac919f" x="75.356902" y="306.52" style="stroke: #000000; stroke-width: 0.8"/>
      </g>
     </g>
     <g id="text_1">
      <!-- 0 -->
      <g transform="translate(70.903152 324.157812) scale(0.14 -0.14)">
       <defs>
        <path id="DejaVuSans-30" d="M 2034 4250 
Q 1547 4250 1301 3770 
Q 1056 3291 1056 2328 
Q 1056 1369 1301 889 
Q 1547 409 2034 409 
Q 2525 409 2770 889 
Q 3016 1369 3016 2328 
Q 3016 3291 2770 3770 
Q 2525 4250 2034 4250 
z
M 2034 4750 
Q 2819 4750 3233 4129 
Q 3647 3509 3647 2328 
Q 3647 1150 3233 529 
Q 2819 -91 2034 -91 
Q 1250 -91 836 529 
Q 422 1150 422 2328 
Q 422 3509 836 4129 
Q 1250 4750 2034 4750 
z
" transform="scale(0.015625)"/>
       </defs>
       <use xlink:href="#DejaVuSans-30"/>
      </g>
     </g>
    </g>
    <g id="xtick_2">
     <g id="line2d_2">
      <g>
       <use xlink:href="#m4281ac919f" x="167.980445" y="306.52" style="stroke: #000000; stroke-width: 0.8"/>
      </g>
     </g>
     <g id="text_2">
      <!-- 20 -->
      <g transform="translate(159.072945 324.157812) scale(0.14 -0.14)">
       <defs>
        <path id="DejaVuSans-32" d="M 1228 531 
L 3431 531 
L 3431 0 
L 469 0 
L 469 531 
Q 828 903 1448 1529 
Q 2069 2156 2228 2338 
Q 2531 2678 2651 2914 
Q 2772 3150 2772 3378 
Q 2772 3750 2511 3984 
Q 2250 4219 1831 4219 
Q 1534 4219 1204 4116 
Q 875 4013 500 3803 
L 500 4441 
Q 881 4594 1212 4672 
Q 1544 4750 1819 4750 
Q 2544 4750 2975 4387 
Q 3406 4025 3406 3419 
Q 3406 3131 3298 2873 
Q 3191 2616 2906 2266 
Q 2828 2175 2409 1742 
Q 1991 1309 1228 531 
z
" transform="scale(0.015625)"/>
       </defs>
       <use xlink:href="#DejaVuSans-32"/>
       <use xlink:href="#DejaVuSans-30" transform="translate(63.623047 0)"/>
      </g>
     </g>
    </g>
    <g id="xtick_3">
     <g id="line2d_3">
      <g>
       <use xlink:href="#m4281ac919f" x="260.603987" y="306.52" style="stroke: #000000; stroke-width: 0.8"/>
      </g>
     </g>
     <g id="text_3">
      <!-- 40 -->
      <g transform="translate(251.696487 324.157812) scale(0.14 -0.14)">
       <defs>
        <path id="DejaVuSans-34" d="M 2419 4116 
L 825 1625 
L 2419 1625 
L 2419 4116 
z
M 2253 4666 
L 3047 4666 
L 3047 1625 
L 3713 1625 
L 3713 1100 
L 3047 1100 
L 3047 0 
L 2419 0 
L 2419 1100 
L 313 1100 
L 313 1709 
L 2253 4666 
z
" transform="scale(0.015625)"/>
       </defs>
       <use xlink:href="#DejaVuSans-34"/>
       <use xlink:href="#DejaVuSans-30" transform="translate(63.623047 0)"/>
      </g>
     </g>
    </g>
    <g id="xtick_4">
     <g id="line2d_4">
      <g>
       <use xlink:href="#m4281ac919f" x="353.22753" y="306.52" style="stroke: #000000; stroke-width: 0.8"/>
      </g>
     </g>
     <g id="text_4">
      <!-- 60 -->
      <g transform="translate(344.32003 324.157812) scale(0.14 -0.14)">
       <defs>
        <path id="DejaVuSans-36" d="M 2113 2584 
Q 1688 2584 1439 2293 
Q 1191 2003 1191 1497 
Q 1191 994 1439 701 
Q 1688 409 2113 409 
Q 2538 409 2786 701 
Q 3034 994 3034 1497 
Q 3034 2003 2786 2293 
Q 2538 2584 2113 2584 
z
M 3366 4563 
L 3366 3988 
Q 3128 4100 2886 4159 
Q 2644 4219 2406 4219 
Q 1781 4219 1451 3797 
Q 1122 3375 1075 2522 
Q 1259 2794 1537 2939 
Q 1816 3084 2150 3084 
Q 2853 3084 3261 2657 
Q 3669 2231 3669 1497 
Q 3669 778 3244 343 
Q 2819 -91 2113 -91 
Q 1303 -91 875 529 
Q 447 1150 447 2328 
Q 447 3434 972 4092 
Q 1497 4750 2381 4750 
Q 2619 4750 2861 4703 
Q 3103 4656 3366 4563 
z
" transform="scale(0.015625)"/>
       </defs>
       <use xlink:href="#DejaVuSans-36"/>
       <use xlink:href="#DejaVuSans-30" transform="translate(63.623047 0)"/>
      </g>
     </g>
    </g>
    <g id="xtick_5">
     <g id="line2d_5">
      <g>
       <use xlink:href="#m4281ac919f" x="445.851073" y="306.52" style="stroke: #000000; stroke-width: 0.8"/>
      </g>
     </g>
     <g id="text_5">
      <!-- 80 -->
      <g transform="translate(436.943573 324.157812) scale(0.14 -0.14)">
       <defs>
        <path id="DejaVuSans-38" d="M 2034 2216 
Q 1584 2216 1326 1975 
Q 1069 1734 1069 1313 
Q 1069 891 1326 650 
Q 1584 409 2034 409 
Q 2484 409 2743 651 
Q 3003 894 3003 1313 
Q 3003 1734 2745 1975 
Q 2488 2216 2034 2216 
z
M 1403 2484 
Q 997 2584 770 2862 
Q 544 3141 544 3541 
Q 544 4100 942 4425 
Q 1341 4750 2034 4750 
Q 2731 4750 3128 4425 
Q 3525 4100 3525 3541 
Q 3525 3141 3298 2862 
Q 3072 2584 2669 2484 
Q 3125 2378 3379 2068 
Q 3634 1759 3634 1313 
Q 3634 634 3220 271 
Q 2806 -91 2034 -91 
Q 1263 -91 848 271 
Q 434 634 434 1313 
Q 434 1759 690 2068 
Q 947 2378 1403 2484 
z
M 1172 3481 
Q 1172 3119 1398 2916 
Q 1625 2713 2034 2713 
Q 2441 2713 2670 2916 
Q 2900 3119 2900 3481 
Q 2900 3844 2670 4047 
Q 2441 4250 2034 4250 
Q 1625 4250 1398 4047 
Q 1172 3844 1172 3481 
z
" transform="scale(0.015625)"/>
       </defs>
       <use xlink:href="#DejaVuSans-38"/>
       <use xlink:href="#DejaVuSans-30" transform="translate(63.623047 0)"/>
      </g>
     </g>
    </g>
    <g id="text_6">
     <!-- Area (mm²) -->
     <g transform="translate(230.050625 343.226875) scale(0.16 -0.16)">
      <defs>
       <path id="DejaVuSans-41" d="M 2188 4044 
L 1331 1722 
L 3047 1722 
L 2188 4044 
z
M 1831 4666 
L 2547 4666 
L 4325 0 
L 3669 0 
L 3244 1197 
L 1141 1197 
L 716 0 
L 50 0 
L 1831 4666 
z
" transform="scale(0.015625)"/>
       <path id="DejaVuSans-72" d="M 2631 2963 
Q 2534 3019 2420 3045 
Q 2306 3072 2169 3072 
Q 1681 3072 1420 2755 
Q 1159 2438 1159 1844 
L 1159 0 
L 581 0 
L 581 3500 
L 1159 3500 
L 1159 2956 
Q 1341 3275 1631 3429 
Q 1922 3584 2338 3584 
Q 2397 3584 2469 3576 
Q 2541 3569 2628 3553 
L 2631 2963 
z
" transform="scale(0.015625)"/>
       <path id="DejaVuSans-65" d="M 3597 1894 
L 3597 1613 
L 953 1613 
Q 991 1019 1311 708 
Q 1631 397 2203 397 
Q 2534 397 2845 478 
Q 3156 559 3463 722 
L 3463 178 
Q 3153 47 2828 -22 
Q 2503 -91 2169 -91 
Q 1331 -91 842 396 
Q 353 884 353 1716 
Q 353 2575 817 3079 
Q 1281 3584 2069 3584 
Q 2775 3584 3186 3129 
Q 3597 2675 3597 1894 
z
M 3022 2063 
Q 3016 2534 2758 2815 
Q 2500 3097 2075 3097 
Q 1594 3097 1305 2825 
Q 1016 2553 972 2059 
L 3022 2063 
z
" transform="scale(0.015625)"/>
       <path id="DejaVuSans-61" d="M 2194 1759 
Q 1497 1759 1228 1600 
Q 959 1441 959 1056 
Q 959 750 1161 570 
Q 1363 391 1709 391 
Q 2188 391 2477 730 
Q 2766 1069 2766 1631 
L 2766 1759 
L 2194 1759 
z
M 3341 1997 
L 3341 0 
L 2766 0 
L 2766 531 
Q 2569 213 2275 61 
Q 1981 -91 1556 -91 
Q 1019 -91 701 211 
Q 384 513 384 1019 
Q 384 1609 779 1909 
Q 1175 2209 1959 2209 
L 2766 2209 
L 2766 2266 
Q 2766 2663 2505 2880 
Q 2244 3097 1772 3097 
Q 1472 3097 1187 3025 
Q 903 2953 641 2809 
L 641 3341 
Q 956 3463 1253 3523 
Q 1550 3584 1831 3584 
Q 2591 3584 2966 3190 
Q 3341 2797 3341 1997 
z
" transform="scale(0.015625)"/>
       <path id="DejaVuSans-20" transform="scale(0.015625)"/>
       <path id="DejaVuSans-28" d="M 1984 4856 
Q 1566 4138 1362 3434 
Q 1159 2731 1159 2009 
Q 1159 1288 1364 580 
Q 1569 -128 1984 -844 
L 1484 -844 
Q 1016 -109 783 600 
Q 550 1309 550 2009 
Q 550 2706 781 3412 
Q 1013 4119 1484 4856 
L 1984 4856 
z
" transform="scale(0.015625)"/>
       <path id="DejaVuSans-6d" d="M 3328 2828 
Q 3544 3216 3844 3400 
Q 4144 3584 4550 3584 
Q 5097 3584 5394 3201 
Q 5691 2819 5691 2113 
L 5691 0 
L 5113 0 
L 5113 2094 
Q 5113 2597 4934 2840 
Q 4756 3084 4391 3084 
Q 3944 3084 3684 2787 
Q 3425 2491 3425 1978 
L 3425 0 
L 2847 0 
L 2847 2094 
Q 2847 2600 2669 2842 
Q 2491 3084 2119 3084 
Q 1678 3084 1418 2786 
Q 1159 2488 1159 1978 
L 1159 0 
L 581 0 
L 581 3500 
L 1159 3500 
L 1159 2956 
Q 1356 3278 1631 3431 
Q 1906 3584 2284 3584 
Q 2666 3584 2933 3390 
Q 3200 3197 3328 2828 
z
" transform="scale(0.015625)"/>
       <path id="DejaVuSans-b2" d="M 838 2444 
L 2163 2444 
L 2163 2088 
L 294 2088 
L 294 2431 
Q 400 2528 597 2703 
Q 1672 3656 1672 3950 
Q 1672 4156 1509 4282 
Q 1347 4409 1081 4409 
Q 919 4409 728 4354 
Q 538 4300 313 4191 
L 313 4575 
Q 553 4663 761 4706 
Q 969 4750 1147 4750 
Q 1600 4750 1872 4544 
Q 2144 4338 2144 4000 
Q 2144 3566 1109 2678 
Q 934 2528 838 2444 
z
" transform="scale(0.015625)"/>
       <path id="DejaVuSans-29" d="M 513 4856 
L 1013 4856 
Q 1481 4119 1714 3412 
Q 1947 2706 1947 2009 
Q 1947 1309 1714 600 
Q 1481 -109 1013 -844 
L 513 -844 
Q 928 -128 1133 580 
Q 1338 1288 1338 2009 
Q 1338 2731 1133 3434 
Q 928 4138 513 4856 
z
" transform="scale(0.015625)"/>
      </defs>
      <use xlink:href="#DejaVuSans-41"/>
      <use xlink:href="#DejaVuSans-72" transform="translate(68.408203 0)"/>
      <use xlink:href="#DejaVuSans-65" transform="translate(107.271484 0)"/>
      <use xlink:href="#DejaVuSans-61" transform="translate(168.794922 0)"/>
      <use xlink:href="#DejaVuSans-20" transform="translate(230.074219 0)"/>
      <use xlink:href="#DejaVuSans-28" transform="translate(261.861328 0)"/>
      <use xlink:href="#DejaVuSans-6d" transform="translate(300.875 0)"/>
      <use xlink:href="#DejaVuSans-6d" transform="translate(398.287109 0)"/>
      <use xlink:href="#DejaVuSans-b2" transform="translate(495.699219 0)"/>
      <use xlink:href="#DejaVuSans-29" transform="translate(535.787109 0)"/>
     </g>
    </g>
   </g>
   <g id="matplotlib.axis_2">
    <g id="ytick_1">
     <g id="line2d_6">
      <defs>
       <path id="m39a2c39b1f" d="M 0 0 
L -3.5 0 
" style="stroke: #000000; stroke-width: 0.8"/>
      </defs>
      <g>
       <use xlink:href="#m39a2c39b1f" x="55.949375" y="293.64017" style="stroke: #000000; stroke-width: 0.8"/>
      </g>
     </g>
     <g id="text_7">
      <!-- 0.0 -->
      <g transform="translate(26.685 298.959076) scale(0.14 -0.14)">
       <defs>
        <path id="DejaVuSans-2e" d="M 684 794 
L 1344 794 
L 1344 0 
L 684 0 
L 684 794 
z
" transform="scale(0.015625)"/>
       </defs>
       <use xlink:href="#DejaVuSans-30"/>
       <use xlink:href="#DejaVuSans-2e" transform="translate(63.623047 0)"/>
       <use xlink:href="#DejaVuSans-30" transform="translate(95.410156 0)"/>
      </g>
     </g>
    </g>
    <g id="ytick_2">
     <g id="line2d_7">
      <g>
       <use xlink:href="#m39a2c39b1f" x="55.949375" y="239.073227" style="stroke: #000000; stroke-width: 0.8"/>
      </g>
     </g>
     <g id="text_8">
      <!-- 0.2 -->
      <g transform="translate(26.685 244.392133) scale(0.14 -0.14)">
       <use xlink:href="#DejaVuSans-30"/>
       <use xlink:href="#DejaVuSans-2e" transform="translate(63.623047 0)"/>
       <use xlink:href="#DejaVuSans-32" transform="translate(95.410156 0)"/>
      </g>
     </g>
    </g>
    <g id="ytick_3">
     <g id="line2d_8">
      <g>
       <use xlink:href="#m39a2c39b1f" x="55.949375" y="184.506284" style="stroke: #000000; stroke-width: 0.8"/>
      </g>
     </g>
     <g id="text_9">
      <!-- 0.4 -->
      <g transform="translate(26.685 189.82519) scale(0.14 -0.14)">
       <use xlink:href="#DejaVuSans-30"/>
       <use xlink:href="#DejaVuSans-2e" transform="translate(63.623047 0)"/>
       <use xlink:href="#DejaVuSans-34" transform="translate(95.410156 0)"/>
      </g>
     </g>
    </g>
    <g id="ytick_4">
     <g id="line2d_9">
      <g>
       <use xlink:href="#m39a2c39b1f" x="55.949375" y="129.939341" style="stroke: #000000; stroke-width: 0.8"/>
      </g>
     </g>
     <g id="text_10">
      <!-- 0.6 -->
      <g transform="translate(26.685 135.258247) scale(0.14 -0.14)">
       <use xlink:href="#DejaVuSans-30"/>
       <use xlink:href="#DejaVuSans-2e" transform="translate(63.623047 0)"/>
       <use xlink:href="#DejaVuSans-36" transform="translate(95.410156 0)"/>
      </g>
     </g>
    </g>
    <g id="ytick_5">
     <g id="line2d_10">
      <g>
       <use xlink:href="#m39a2c39b1f" x="55.949375" y="75.372398" style="stroke: #000000; stroke-width: 0.8"/>
      </g>
     </g>
     <g id="text_11">
      <!-- 0.8 -->
      <g transform="translate(26.685 80.691304) scale(0.14 -0.14)">
       <use xlink:href="#DejaVuSans-30"/>
       <use xlink:href="#DejaVuSans-2e" transform="translate(63.623047 0)"/>
       <use xlink:href="#DejaVuSans-38" transform="translate(95.410156 0)"/>
      </g>
     </g>
    </g>
    <g id="ytick_6">
     <g id="line2d_11">
      <g>
       <use xlink:href="#m39a2c39b1f" x="55.949375" y="20.805455" style="stroke: #000000; stroke-width: 0.8"/>
      </g>
     </g>
     <g id="text_12">
      <!-- 1.0 -->
      <g transform="translate(26.685 26.124361) scale(0.14 -0.14)">
       <defs>
        <path id="DejaVuSans-31" d="M 794 531 
L 1825 531 
L 1825 4091 
L 703 3866 
L 703 4441 
L 1819 4666 
L 2450 4666 
L 2450 531 
L 3481 531 
L 3481 0 
L 794 0 
L 794 531 
z
" transform="scale(0.015625)"/>
       </defs>
       <use xlink:href="#DejaVuSans-31"/>
       <use xlink:href="#DejaVuSans-2e" transform="translate(63.623047 0)"/>
       <use xlink:href="#DejaVuSans-30" transform="translate(95.410156 0)"/>
      </g>
     </g>
    </g>
    <g id="text_13">
     <!-- Probability -->
     <g transform="translate(19.3575 199.14625) rotate(-90) scale(0.16 -0.16)">
      <defs>
       <path id="DejaVuSans-50" d="M 1259 4147 
L 1259 2394 
L 2053 2394 
Q 2494 2394 2734 2622 
Q 2975 2850 2975 3272 
Q 2975 3691 2734 3919 
Q 2494 4147 2053 4147 
L 1259 4147 
z
M 628 4666 
L 2053 4666 
Q 2838 4666 3239 4311 
Q 3641 3956 3641 3272 
Q 3641 2581 3239 2228 
Q 2838 1875 2053 1875 
L 1259 1875 
L 1259 0 
L 628 0 
L 628 4666 
z
" transform="scale(0.015625)"/>
       <path id="DejaVuSans-6f" d="M 1959 3097 
Q 1497 3097 1228 2736 
Q 959 2375 959 1747 
Q 959 1119 1226 758 
Q 1494 397 1959 397 
Q 2419 397 2687 759 
Q 2956 1122 2956 1747 
Q 2956 2369 2687 2733 
Q 2419 3097 1959 3097 
z
M 1959 3584 
Q 2709 3584 3137 3096 
Q 3566 2609 3566 1747 
Q 3566 888 3137 398 
Q 2709 -91 1959 -91 
Q 1206 -91 779 398 
Q 353 888 353 1747 
Q 353 2609 779 3096 
Q 1206 3584 1959 3584 
z
" transform="scale(0.015625)"/>
       <path id="DejaVuSans-62" d="M 3116 1747 
Q 3116 2381 2855 2742 
Q 2594 3103 2138 3103 
Q 1681 3103 1420 2742 
Q 1159 2381 1159 1747 
Q 1159 1113 1420 752 
Q 1681 391 2138 391 
Q 2594 391 2855 752 
Q 3116 1113 3116 1747 
z
M 1159 2969 
Q 1341 3281 1617 3432 
Q 1894 3584 2278 3584 
Q 2916 3584 3314 3078 
Q 3713 2572 3713 1747 
Q 3713 922 3314 415 
Q 2916 -91 2278 -91 
Q 1894 -91 1617 61 
Q 1341 213 1159 525 
L 1159 0 
L 581 0 
L 581 4863 
L 1159 4863 
L 1159 2969 
z
" transform="scale(0.015625)"/>
       <path id="DejaVuSans-69" d="M 603 3500 
L 1178 3500 
L 1178 0 
L 603 0 
L 603 3500 
z
M 603 4863 
L 1178 4863 
L 1178 4134 
L 603 4134 
L 603 4863 
z
" transform="scale(0.015625)"/>
       <path id="DejaVuSans-6c" d="M 603 4863 
L 1178 4863 
L 1178 0 
L 603 0 
L 603 4863 
z
" transform="scale(0.015625)"/>
       <path id="DejaVuSans-74" d="M 1172 4494 
L 1172 3500 
L 2356 3500 
L 2356 3053 
L 1172 3053 
L 1172 1153 
Q 1172 725 1289 603 
Q 1406 481 1766 481 
L 2356 481 
L 2356 0 
L 1766 0 
Q 1100 0 847 248 
Q 594 497 594 1153 
L 594 3053 
L 172 3053 
L 172 3500 
L 594 3500 
L 594 4494 
L 1172 4494 
z
" transform="scale(0.015625)"/>
       <path id="DejaVuSans-79" d="M 2059 -325 
Q 1816 -950 1584 -1140 
Q 1353 -1331 966 -1331 
L 506 -1331 
L 506 -850 
L 844 -850 
Q 1081 -850 1212 -737 
Q 1344 -625 1503 -206 
L 1606 56 
L 191 3500 
L 800 3500 
L 1894 763 
L 2988 3500 
L 3597 3500 
L 2059 -325 
z
" transform="scale(0.015625)"/>
      </defs>
      <use xlink:href="#DejaVuSans-50"/>
      <use xlink:href="#DejaVuSans-72" transform="translate(58.552734 0)"/>
      <use xlink:href="#DejaVuSans-6f" transform="translate(97.416016 0)"/>
      <use xlink:href="#DejaVuSans-62" transform="translate(158.597656 0)"/>
      <use xlink:href="#DejaVuSans-61" transform="translate(222.074219 0)"/>
      <use xlink:href="#DejaVuSans-62" transform="translate(283.353516 0)"/>
      <use xlink:href="#DejaVuSans-69" transform="translate(346.830078 0)"/>
      <use xlink:href="#DejaVuSans-6c" transform="translate(374.613281 0)"/>
      <use xlink:href="#DejaVuSans-69" transform="translate(402.396484 0)"/>
      <use xlink:href="#DejaVuSans-74" transform="translate(430.179688 0)"/>
      <use xlink:href="#DejaVuSans-79" transform="translate(469.388672 0)"/>
     </g>
    </g>
   </g>
   <g id="line2d_12">
    <path d="M 75.957102 292.914545 
L 76.417673 290.012048 
L 76.528126 288.5608 
L 76.696933 283.48143 
L 76.826143 279.853309 
L 77.080394 271.145818 
L 77.170008 268.968945 
L 77.324226 263.163952 
L 77.388831 260.261455 
L 78.070308 237.041479 
L 78.149502 235.59023 
L 78.330812 229.059612 
L 78.439182 227.608364 
L 78.543383 223.254618 
L 78.995618 215.998376 
L 79.099819 213.821503 
L 80.102237 198.583394 
L 80.298136 197.85777 
L 80.396086 194.955273 
L 80.606573 193.504024 
L 80.648253 191.327152 
L 81.11716 186.973406 
L 81.171345 184.796533 
L 81.379748 182.619661 
L 81.400588 181.894036 
L 81.583983 181.168412 
L 81.813226 178.265915 
L 82.044553 176.814667 
L 82.496788 173.91217 
L 82.644754 171.735297 
L 82.867745 169.558424 
L 83.194937 168.107176 
L 83.95144 160.850933 
L 84.132751 160.125309 
L 84.224448 157.222812 
L 84.455775 154.320315 
L 84.666262 152.143442 
L 84.732951 150.692194 
L 85.362328 147.064073 
L 85.431101 145.612824 
L 86.323066 140.533455 
L 86.531469 139.80783 
L 86.596074 139.082206 
L 86.854494 138.356582 
L 86.896174 137.630958 
L 87.067065 136.905333 
L 87.502627 131.825964 
L 87.740206 131.100339 
L 87.959029 128.923467 
L 88.30081 128.197842 
L 88.477953 126.02097 
L 88.659263 125.295345 
L 88.813482 122.392848 
L 89.098994 120.215976 
L 89.334489 119.490352 
L 90.003463 118.764727 
L 90.078488 118.039103 
L 90.326487 117.313479 
L 90.578655 115.136606 
L 90.885007 114.410982 
L 91.895762 107.880364 
L 92.333408 107.154739 
L 92.418853 105.703491 
L 92.771054 104.977867 
L 93.19828 102.800994 
L 93.623422 100.624121 
L 93.87559 99.898497 
L 94.752966 98.447248 
L 94.850916 96.270376 
L 95.928359 94.819127 
L 96.103418 93.367879 
L 96.401434 92.642255 
L 96.943281 89.739758 
L 97.26839 89.014133 
L 98.12701 88.288509 
L 98.452119 87.562885 
L 98.575077 86.111636 
L 99.314907 83.209139 
L 99.658772 82.483515 
L 100.444451 81.757891 
L 100.646602 81.032267 
L 100.754972 79.581018 
L 100.917526 77.404145 
L 101.580248 76.678521 
L 102.034566 75.952897 
L 103.27248 75.227273 
L 103.507975 73.0504 
L 103.876848 72.324776 
L 104.820914 71.599152 
L 105.096006 70.873527 
L 105.702458 70.147903 
L 106.90286 69.422279 
L 107.878185 68.696655 
L 107.990723 67.97103 
L 108.313748 67.245406 
L 108.407529 65.794158 
L 109.620434 64.342909 
L 109.703795 63.617285 
L 110.547827 62.891661 
L 110.856264 62.166036 
L 112.460967 60.714788 
L 112.490143 59.989164 
L 113.565502 59.263539 
L 113.917704 58.537915 
L 113.998981 57.812291 
L 114.870105 56.361042 
L 116.706135 55.635418 
L 117.197966 54.909794 
L 117.325092 53.458545 
L 118.315006 52.732921 
L 118.840182 52.007297 
L 120.086431 51.281673 
L 120.288582 50.556048 
L 121.555672 49.1048 
L 122.430965 48.379176 
L 122.751905 47.653552 
L 124.271163 46.927927 
L 126.253075 46.202303 
L 129.9168 45.476679 
L 131.185974 44.751055 
L 132.932391 44.02543 
L 134.1578 43.299806 
L 134.751749 42.574182 
L 134.83511 41.848558 
L 141.1393 41.122933 
L 144.121546 40.397309 
L 144.206991 39.671685 
L 146.126383 38.946061 
L 146.195156 38.220436 
L 147.499758 37.494812 
L 149.31078 36.769188 
L 152.120052 36.043564 
L 153.77894 35.317939 
L 161.823295 34.592315 
L 166.251858 33.866691 
L 167.039621 33.141067 
L 193.773554 30.964194 
L 194.928107 30.23857 
L 201.232296 29.512945 
L 202.424361 28.787321 
L 212.719468 28.061697 
L 216.239394 27.336073 
L 217.76282 26.610448 
L 232.263499 25.884824 
L 241.362373 25.1592 
L 241.918809 24.433576 
L 287.040136 22.982327 
L 291.464531 22.256703 
L 328.639453 21.531079 
L 476.111648 20.805455 
L 476.111648 20.805455 
" clip-path="url(#p56d0f95b34)" style="fill: none; stroke: #0000ff; stroke-width: 1.5; stroke-linecap: square"/>
   </g>
   <g id="patch_3">
    <path d="M 55.949375 306.52 
L 55.949375 7.2 
" style="fill: none; stroke: #000000; stroke-width: 0.8; stroke-linejoin: miter; stroke-linecap: square"/>
   </g>
   <g id="patch_4">
    <path d="M 496.119375 306.52 
L 496.119375 7.2 
" style="fill: none; stroke: #000000; stroke-width: 0.8; stroke-linejoin: miter; stroke-linecap: square"/>
   </g>
   <g id="patch_5">
    <path d="M 55.949375 306.52 
L 496.119375 306.52 
" style="fill: none; stroke: #000000; stroke-width: 0.8; stroke-linejoin: miter; stroke-linecap: square"/>
   </g>
   <g id="patch_6">
    <path d="M 55.949375 7.2 
L 496.119375 7.2 
" style="fill: none; stroke: #000000; stroke-width: 0.8; stroke-linejoin: miter; stroke-linecap: square"/>
   </g>
  </g>
  <g id="axes_2">
   <g id="patch_7">
    <path d="M 554.549375 306.52 
L 994.719375 306.52 
L 994.719375 7.2 
L 554.549375 7.2 
z
" style="fill: #ffffff"/>
   </g>
   <g id="matplotlib.axis_3">
    <g id="xtick_6">
     <g id="line2d_13">
      <g>
       <use xlink:href="#m4281ac919f" x="559.695714" y="306.52" style="stroke: #000000; stroke-width: 0.8"/>
      </g>
     </g>
     <g id="text_14">
      <!-- 0 -->
      <g transform="translate(555.241964 324.157812) scale(0.14 -0.14)">
       <use xlink:href="#DejaVuSans-30"/>
      </g>
     </g>
    </g>
    <g id="xtick_7">
     <g id="line2d_14">
      <g>
       <use xlink:href="#m4281ac919f" x="619.103436" y="306.52" style="stroke: #000000; stroke-width: 0.8"/>
      </g>
     </g>
     <g id="text_15">
      <!-- 2 -->
      <g transform="translate(614.649686 324.157812) scale(0.14 -0.14)">
       <use xlink:href="#DejaVuSans-32"/>
      </g>
     </g>
    </g>
    <g id="xtick_8">
     <g id="line2d_15">
      <g>
       <use xlink:href="#m4281ac919f" x="678.511158" y="306.52" style="stroke: #000000; stroke-width: 0.8"/>
      </g>
     </g>
     <g id="text_16">
      <!-- 4 -->
      <g transform="translate(674.057408 324.157812) scale(0.14 -0.14)">
       <use xlink:href="#DejaVuSans-34"/>
      </g>
     </g>
    </g>
    <g id="xtick_9">
     <g id="line2d_16">
      <g>
       <use xlink:href="#m4281ac919f" x="737.918881" y="306.52" style="stroke: #000000; stroke-width: 0.8"/>
      </g>
     </g>
     <g id="text_17">
      <!-- 6 -->
      <g transform="translate(733.465131 324.157812) scale(0.14 -0.14)">
       <use xlink:href="#DejaVuSans-36"/>
      </g>
     </g>
    </g>
    <g id="xtick_10">
     <g id="line2d_17">
      <g>
       <use xlink:href="#m4281ac919f" x="797.326603" y="306.52" style="stroke: #000000; stroke-width: 0.8"/>
      </g>
     </g>
     <g id="text_18">
      <!-- 8 -->
      <g transform="translate(792.872853 324.157812) scale(0.14 -0.14)">
       <use xlink:href="#DejaVuSans-38"/>
      </g>
     </g>
    </g>
    <g id="xtick_11">
     <g id="line2d_18">
      <g>
       <use xlink:href="#m4281ac919f" x="856.734325" y="306.52" style="stroke: #000000; stroke-width: 0.8"/>
      </g>
     </g>
     <g id="text_19">
      <!-- 10 -->
      <g transform="translate(847.826825 324.157812) scale(0.14 -0.14)">
       <use xlink:href="#DejaVuSans-31"/>
       <use xlink:href="#DejaVuSans-30" transform="translate(63.623047 0)"/>
      </g>
     </g>
    </g>
    <g id="xtick_12">
     <g id="line2d_19">
      <g>
       <use xlink:href="#m4281ac919f" x="916.142048" y="306.52" style="stroke: #000000; stroke-width: 0.8"/>
      </g>
     </g>
     <g id="text_20">
      <!-- 12 -->
      <g transform="translate(907.234548 324.157812) scale(0.14 -0.14)">
       <use xlink:href="#DejaVuSans-31"/>
       <use xlink:href="#DejaVuSans-32" transform="translate(63.623047 0)"/>
      </g>
     </g>
    </g>
    <g id="xtick_13">
     <g id="line2d_20">
      <g>
       <use xlink:href="#m4281ac919f" x="975.54977" y="306.52" style="stroke: #000000; stroke-width: 0.8"/>
      </g>
     </g>
     <g id="text_21">
      <!-- 14 -->
      <g transform="translate(966.64227 324.157812) scale(0.14 -0.14)">
       <use xlink:href="#DejaVuSans-31"/>
       <use xlink:href="#DejaVuSans-34" transform="translate(63.623047 0)"/>
      </g>
     </g>
    </g>
    <g id="text_22">
     <!-- Diameter (mm) -->
     <g transform="translate(712.916875 343.226875) scale(0.16 -0.16)">
      <defs>
       <path id="DejaVuSans-44" d="M 1259 4147 
L 1259 519 
L 2022 519 
Q 2988 519 3436 956 
Q 3884 1394 3884 2338 
Q 3884 3275 3436 3711 
Q 2988 4147 2022 4147 
L 1259 4147 
z
M 628 4666 
L 1925 4666 
Q 3281 4666 3915 4102 
Q 4550 3538 4550 2338 
Q 4550 1131 3912 565 
Q 3275 0 1925 0 
L 628 0 
L 628 4666 
z
" transform="scale(0.015625)"/>
      </defs>
      <use xlink:href="#DejaVuSans-44"/>
      <use xlink:href="#DejaVuSans-69" transform="translate(77.001953 0)"/>
      <use xlink:href="#DejaVuSans-61" transform="translate(104.785156 0)"/>
      <use xlink:href="#DejaVuSans-6d" transform="translate(166.064453 0)"/>
      <use xlink:href="#DejaVuSans-65" transform="translate(263.476562 0)"/>
      <use xlink:href="#DejaVuSans-74" transform="translate(325 0)"/>
      <use xlink:href="#DejaVuSans-65" transform="translate(364.208984 0)"/>
      <use xlink:href="#DejaVuSans-72" transform="translate(425.732422 0)"/>
      <use xlink:href="#DejaVuSans-20" transform="translate(466.845703 0)"/>
      <use xlink:href="#DejaVuSans-28" transform="translate(498.632812 0)"/>
      <use xlink:href="#DejaVuSans-6d" transform="translate(537.646484 0)"/>
      <use xlink:href="#DejaVuSans-6d" transform="translate(635.058594 0)"/>
      <use xlink:href="#DejaVuSans-29" transform="translate(732.470703 0)"/>
     </g>
    </g>
   </g>
   <g id="matplotlib.axis_4">
    <g id="ytick_7">
     <g id="line2d_21">
      <g>
       <use xlink:href="#m39a2c39b1f" x="554.549375" y="293.64017" style="stroke: #000000; stroke-width: 0.8"/>
      </g>
     </g>
     <g id="text_23">
      <!-- 0.0 -->
      <g transform="translate(525.285 298.959076) scale(0.14 -0.14)">
       <use xlink:href="#DejaVuSans-30"/>
       <use xlink:href="#DejaVuSans-2e" transform="translate(63.623047 0)"/>
       <use xlink:href="#DejaVuSans-30" transform="translate(95.410156 0)"/>
      </g>
     </g>
    </g>
    <g id="ytick_8">
     <g id="line2d_22">
      <g>
       <use xlink:href="#m39a2c39b1f" x="554.549375" y="239.073227" style="stroke: #000000; stroke-width: 0.8"/>
      </g>
     </g>
     <g id="text_24">
      <!-- 0.2 -->
      <g transform="translate(525.285 244.392133) scale(0.14 -0.14)">
       <use xlink:href="#DejaVuSans-30"/>
       <use xlink:href="#DejaVuSans-2e" transform="translate(63.623047 0)"/>
       <use xlink:href="#DejaVuSans-32" transform="translate(95.410156 0)"/>
      </g>
     </g>
    </g>
    <g id="ytick_9">
     <g id="line2d_23">
      <g>
       <use xlink:href="#m39a2c39b1f" x="554.549375" y="184.506284" style="stroke: #000000; stroke-width: 0.8"/>
      </g>
     </g>
     <g id="text_25">
      <!-- 0.4 -->
      <g transform="translate(525.285 189.82519) scale(0.14 -0.14)">
       <use xlink:href="#DejaVuSans-30"/>
       <use xlink:href="#DejaVuSans-2e" transform="translate(63.623047 0)"/>
       <use xlink:href="#DejaVuSans-34" transform="translate(95.410156 0)"/>
      </g>
     </g>
    </g>
    <g id="ytick_10">
     <g id="line2d_24">
      <g>
       <use xlink:href="#m39a2c39b1f" x="554.549375" y="129.939341" style="stroke: #000000; stroke-width: 0.8"/>
      </g>
     </g>
     <g id="text_26">
      <!-- 0.6 -->
      <g transform="translate(525.285 135.258247) scale(0.14 -0.14)">
       <use xlink:href="#DejaVuSans-30"/>
       <use xlink:href="#DejaVuSans-2e" transform="translate(63.623047 0)"/>
       <use xlink:href="#DejaVuSans-36" transform="translate(95.410156 0)"/>
      </g>
     </g>
    </g>
    <g id="ytick_11">
     <g id="line2d_25">
      <g>
       <use xlink:href="#m39a2c39b1f" x="554.549375" y="75.372398" style="stroke: #000000; stroke-width: 0.8"/>
      </g>
     </g>
     <g id="text_27">
      <!-- 0.8 -->
      <g transform="translate(525.285 80.691304) scale(0.14 -0.14)">
       <use xlink:href="#DejaVuSans-30"/>
       <use xlink:href="#DejaVuSans-2e" transform="translate(63.623047 0)"/>
       <use xlink:href="#DejaVuSans-38" transform="translate(95.410156 0)"/>
      </g>
     </g>
    </g>
    <g id="ytick_12">
     <g id="line2d_26">
      <g>
       <use xlink:href="#m39a2c39b1f" x="554.549375" y="20.805455" style="stroke: #000000; stroke-width: 0.8"/>
      </g>
     </g>
     <g id="text_28">
      <!-- 1.0 -->
      <g transform="translate(525.285 26.124361) scale(0.14 -0.14)">
       <use xlink:href="#DejaVuSans-31"/>
       <use xlink:href="#DejaVuSans-2e" transform="translate(63.623047 0)"/>
       <use xlink:href="#DejaVuSans-30" transform="translate(95.410156 0)"/>
      </g>
     </g>
    </g>
    <g id="text_29">
     <!-- Probability -->
     <g transform="translate(517.9575 199.14625) rotate(-90) scale(0.16 -0.16)">
      <use xlink:href="#DejaVuSans-50"/>
      <use xlink:href="#DejaVuSans-72" transform="translate(58.552734 0)"/>
      <use xlink:href="#DejaVuSans-6f" transform="translate(97.416016 0)"/>
      <use xlink:href="#DejaVuSans-62" transform="translate(158.597656 0)"/>
      <use xlink:href="#DejaVuSans-61" transform="translate(222.074219 0)"/>
      <use xlink:href="#DejaVuSans-62" transform="translate(283.353516 0)"/>
      <use xlink:href="#DejaVuSans-69" transform="translate(346.830078 0)"/>
      <use xlink:href="#DejaVuSans-6c" transform="translate(374.613281 0)"/>
      <use xlink:href="#DejaVuSans-69" transform="translate(402.396484 0)"/>
      <use xlink:href="#DejaVuSans-74" transform="translate(430.179688 0)"/>
      <use xlink:href="#DejaVuSans-79" transform="translate(469.388672 0)"/>
     </g>
    </g>
   </g>
   <g id="line2d_27">
    <path d="M 574.557102 292.914545 
L 577.789989 291.463297 
L 581.269964 290.737673 
L 581.269994 290.012048 
L 581.395981 289.286424 
L 581.817293 288.5608 
L 581.949517 287.835176 
L 582.216958 287.109552 
L 583.33723 285.658303 
L 584.048018 284.932679 
L 584.285604 283.48143 
L 584.342939 282.755806 
L 584.716066 281.304558 
L 585.229121 276.950812 
L 585.354286 276.225188 
L 585.782919 275.499564 
L 586.200282 274.048315 
L 586.77357 273.322691 
L 587.075401 270.420194 
L 587.450846 269.69457 
L 588.114393 266.792073 
L 588.291312 266.066448 
L 588.399475 263.163952 
L 588.612566 262.438327 
L 588.773915 260.261455 
L 588.972141 259.53583 
L 589.317952 258.810206 
L 589.320332 256.633333 
L 589.478363 255.907709 
L 589.760682 255.182085 
L 590.821227 253.730836 
L 590.884945 253.005212 
L 591.391555 252.279588 
L 591.57742 251.553964 
L 591.912731 250.828339 
L 592.141819 247.925842 
L 592.415721 247.200218 
L 592.811366 244.297721 
L 592.910956 242.846473 
L 594.279506 238.492727 
L 594.319292 237.767103 
L 594.529027 237.041479 
L 595.173045 231.236485 
L 595.617916 230.510861 
L 595.725822 229.785236 
L 596.307455 228.333988 
L 596.437537 227.608364 
L 596.760311 226.882739 
L 596.884527 226.157115 
L 597.21811 225.431491 
L 597.523731 223.254618 
L 597.962028 222.528994 
L 597.972532 221.80337 
L 598.234685 221.077745 
L 598.844183 220.352121 
L 598.881379 219.626497 
L 599.720621 218.900873 
L 599.933657 218.175248 
L 600.083133 216.724 
L 600.278367 215.272752 
L 600.337026 213.821503 
L 600.431793 213.095879 
L 600.696904 212.370255 
L 600.7743 210.919006 
L 601.581197 210.193382 
L 601.66858 208.016509 
L 602.040305 207.290885 
L 602.737801 206.565261 
L 603.223957 205.839636 
L 603.467618 205.114012 
L 604.160451 204.388388 
L 604.686209 203.662764 
L 604.818392 202.937139 
L 605.343294 202.211515 
L 605.42151 201.485891 
L 605.760848 200.760267 
L 605.81211 200.034642 
L 606.151463 199.309018 
L 606.341357 198.583394 
L 606.453746 197.132145 
L 606.958646 196.406521 
L 607.149576 194.955273 
L 607.89035 193.504024 
L 607.93809 192.7784 
L 608.267768 192.052776 
L 609.190939 191.327152 
L 609.299932 190.601527 
L 609.533705 189.875903 
L 609.915624 189.150279 
L 610.005879 188.424655 
L 611.010547 186.973406 
L 611.306078 186.247782 
L 611.59526 184.796533 
L 612.218834 184.070909 
L 612.348091 183.345285 
L 612.75284 182.619661 
L 612.850271 181.894036 
L 613.532858 181.168412 
L 613.731614 180.442788 
L 613.760998 179.717164 
L 614.250996 178.991539 
L 614.59904 178.265915 
L 615.720209 176.814667 
L 615.797541 176.089042 
L 616.06205 175.363418 
L 616.113771 174.637794 
L 616.42343 173.91217 
L 617.205665 173.186545 
L 617.293423 171.009673 
L 617.817023 170.284048 
L 618.109875 169.558424 
L 618.224161 168.8328 
L 619.306259 167.381552 
L 619.501591 166.655927 
L 620.501894 165.930303 
L 621.095724 164.479055 
L 621.137182 163.027806 
L 621.876368 162.302182 
L 621.938964 161.576558 
L 622.569955 160.850933 
L 622.637759 159.399685 
L 622.898216 158.674061 
L 624.106687 157.948436 
L 624.698498 157.222812 
L 624.844928 156.497188 
L 624.875433 155.771564 
L 627.24983 155.045939 
L 627.298121 154.320315 
L 628.733164 153.594691 
L 629.408266 152.869067 
L 629.890707 151.417818 
L 629.9642 150.692194 
L 630.451189 149.240945 
L 630.918292 148.515321 
L 630.973504 147.789697 
L 631.334358 146.338448 
L 631.539943 144.8872 
L 631.870773 144.161576 
L 631.947775 143.435952 
L 632.639696 141.984703 
L 633.605516 141.259079 
L 633.888001 139.082206 
L 634.655632 138.356582 
L 634.856635 135.454085 
L 634.999135 134.728461 
L 635.178212 131.825964 
L 635.272809 131.100339 
L 635.782309 130.374715 
L 636.067166 128.923467 
L 636.662716 128.197842 
L 636.928035 126.746594 
L 637.366876 126.02097 
L 637.636055 125.295345 
L 637.636695 124.569721 
L 638.043167 123.118473 
L 638.46648 122.392848 
L 638.575442 121.667224 
L 640.770768 120.215976 
L 641.354475 119.490352 
L 641.497838 118.039103 
L 641.86564 117.313479 
L 643.120553 116.587855 
L 643.489211 115.86223 
L 643.583298 115.136606 
L 644.268006 113.685358 
L 645.908757 112.959733 
L 646.029821 112.234109 
L 646.653151 111.508485 
L 646.93261 110.057236 
L 647.704579 109.331612 
L 647.875845 108.605988 
L 648.918795 107.154739 
L 649.788944 106.429115 
L 649.817621 105.703491 
L 650.559125 104.252242 
L 650.780864 103.526618 
L 651.705055 102.800994 
L 652.101636 102.07537 
L 652.965638 101.349745 
L 654.505218 100.624121 
L 655.049126 99.898497 
L 655.726417 97.721624 
L 655.820816 96.996 
L 656.237092 96.270376 
L 656.269991 95.544752 
L 656.49995 94.819127 
L 657.257315 94.093503 
L 658.373474 93.367879 
L 658.762929 92.642255 
L 659.882977 91.91663 
L 660.453956 90.465382 
L 662.711348 89.739758 
L 663.788747 88.288509 
L 664.416217 87.562885 
L 666.041522 86.837261 
L 666.291373 86.111636 
L 666.30255 85.386012 
L 666.55922 84.660388 
L 666.658114 83.934764 
L 667.5439 83.209139 
L 667.893637 82.483515 
L 669.530323 81.032267 
L 670.183471 80.306642 
L 670.62202 79.581018 
L 672.107578 78.855394 
L 675.862676 78.12977 
L 675.917976 77.404145 
L 677.086668 75.227273 
L 677.675012 74.501648 
L 679.276657 73.0504 
L 679.861139 72.324776 
L 681.244221 71.599152 
L 685.019729 70.873527 
L 685.941819 70.147903 
L 688.359822 69.422279 
L 688.525846 68.696655 
L 690.056119 67.97103 
L 691.294728 67.245406 
L 691.644234 65.794158 
L 692.116484 65.068533 
L 692.283623 64.342909 
L 693.176003 63.617285 
L 696.517524 62.166036 
L 696.797738 61.440412 
L 697.199418 60.714788 
L 698.106007 59.989164 
L 699.384294 59.263539 
L 702.903533 58.537915 
L 703.208684 57.812291 
L 708.832058 56.361042 
L 709.25741 55.635418 
L 712.903743 54.909794 
L 712.933766 54.18417 
L 715.597868 53.458545 
L 717.793228 52.732921 
L 717.916012 52.007297 
L 718.996403 51.281673 
L 720.541687 50.556048 
L 721.783465 49.830424 
L 721.874077 49.1048 
L 722.165156 48.379176 
L 723.689745 47.653552 
L 724.427034 46.927927 
L 725.933144 46.202303 
L 729.975772 45.476679 
L 730.001335 44.751055 
L 730.620626 44.02543 
L 738.452658 43.299806 
L 738.901031 42.574182 
L 741.442022 41.848558 
L 743.440859 41.122933 
L 745.374756 39.671685 
L 749.369643 38.946061 
L 749.545389 38.220436 
L 758.236814 37.494812 
L 760.448287 36.769188 
L 761.573467 36.043564 
L 761.759234 35.317939 
L 763.161271 34.592315 
L 763.377754 33.866691 
L 788.196518 33.141067 
L 788.296214 31.689818 
L 789.220725 30.964194 
L 799.604748 30.23857 
L 803.856775 29.512945 
L 805.892353 28.787321 
L 813.0519 28.061697 
L 817.996549 27.336073 
L 819.629754 26.610448 
L 841.797049 25.1592 
L 864.98991 24.433576 
L 901.107976 22.982327 
L 901.324147 22.256703 
L 924.095817 21.531079 
L 974.711648 20.805455 
L 974.711648 20.805455 
" clip-path="url(#p161b079393)" style="fill: none; stroke: #008000; stroke-width: 1.5; stroke-linecap: square"/>
   </g>
   <g id="patch_8">
    <path d="M 554.549375 306.52 
L 554.549375 7.2 
" style="fill: none; stroke: #000000; stroke-width: 0.8; stroke-linejoin: miter; stroke-linecap: square"/>
   </g>
   <g id="patch_9">
    <path d="M 994.719375 306.52 
L 994.719375 7.2 
" style="fill: none; stroke: #000000; stroke-width: 0.8; stroke-linejoin: miter; stroke-linecap: square"/>
   </g>
   <g id="patch_10">
    <path d="M 554.549375 306.52 
L 994.719375 306.52 
" style="fill: none; stroke: #000000; stroke-width: 0.8; stroke-linejoin: miter; stroke-linecap: square"/>
   </g>
   <g id="patch_11">
    <path d="M 554.549375 7.2 
L 994.719375 7.2 
" style="fill: none; stroke: #000000; stroke-width: 0.8; stroke-linejoin: miter; stroke-linecap: square"/>
   </g>
  </g>
 </g>
 <defs>
  <clipPath id="p56d0f95b34">
   <rect x="55.949375" y="7.2" width="440.17" height="299.32"/>
  </clipPath>
  <clipPath id="p161b079393">
   <rect x="554.549375" y="7.2" width="440.17" height="299.32"/>
  </clipPath>
 </defs>
</svg>
