<?xml version="1.0" encoding="utf-8" standalone="no"?>
<!DOCTYPE svg PUBLIC "-//W3C//DTD SVG 1.1//EN"
  "http://www.w3.org/Graphics/SVG/1.1/DTD/svg11.dtd">
<svg xmlns:xlink="http://www.w3.org/1999/xlink" width="1001.919375pt" height="353.754375pt" viewBox="0 0 1001.919375 353.754375" xmlns="http://www.w3.org/2000/svg" version="1.1">
 <metadata>
  <rdf:RDF xmlns:dc="http://purl.org/dc/elements/1.1/" xmlns:cc="http://creativecommons.org/ns#" xmlns:rdf="http://www.w3.org/1999/02/22-rdf-syntax-ns#">
   <cc:Work>
    <dc:type rdf:resource="http://purl.org/dc/dcmitype/StillImage"/>
    <dc:date>2025-08-22T18:27:10.501090</dc:date>
    <dc:format>image/svg+xml</dc:format>
    <dc:creator>
     <cc:Agent>
      <dc:title>Matplotlib v3.10.5, https://matplotlib.org/</dc:title>
     </cc:Agent>
    </dc:creator>
   </cc:Work>
  </rdf:RDF>
 </metadata>
 <defs>
  <style type="text/css">*{stroke-linejoin: round; stroke-linecap: butt}</style>
 </defs>
 <g id="figure_1">
  <g id="patch_1">
   <path d="M 0 353.754375 
L 1001.919375 353.754375 
L 1001.919375 0 
L 0 0 
z
" style="fill: #ffffff"/>
  </g>
  <g id="axes_1">
   <g id="patch_2">
    <path d="M 55.949375 306.52 
L 496.119375 306.52 
L 496.119375 7.2 
L 55.949375 7.2 
z
" style="fill: #ffffff"/>
   </g>
   <g id="matplotlib.axis_1">
    <g id="xtick_1">
     <g id="line2d_1">
      <defs>
       <path id="m974d9f0028" d="M 0 0 
L 0 3.5 
" style="stroke: #000000; stroke-width: 0.8"/>
      </defs>
      <g>
       <use xlink:href="#m974d9f0028" x="75.957102" y="306.52" style="stroke: #000000; stroke-width: 0.8"/>
      </g>
     </g>
     <g id="text_1">
      <!-- 0 -->
      <g transform="translate(71.503352 324.157813) scale(0.14 -0.14)">
       <defs>
        <path id="DejaVuSans-30" d="M 2034 4250 
Q 1547 4250 1301 3770 
Q 1056 3291 1056 2328 
Q 1056 1369 1301 889 
Q 1547 409 2034 409 
Q 2525 409 2770 889 
Q 3016 1369 3016 2328 
Q 3016 3291 2770 3770 
Q 2525 4250 2034 4250 
z
M 2034 4750 
Q 2819 4750 3233 4129 
Q 3647 3509 3647 2328 
Q 3647 1150 3233 529 
Q 2819 -91 2034 -91 
Q 1250 -91 836 529 
Q 422 1150 422 2328 
Q 422 3509 836 4129 
Q 1250 4750 2034 4750 
z
" transform="scale(0.015625)"/>
       </defs>
       <use xlink:href="#DejaVuSans-30"/>
      </g>
     </g>
    </g>
    <g id="xtick_2">
     <g id="line2d_2">
      <g>
       <use xlink:href="#m974d9f0028" x="168.441925" y="306.52" style="stroke: #000000; stroke-width: 0.8"/>
      </g>
     </g>
     <g id="text_2">
      <!-- 20 -->
      <g transform="translate(159.534425 324.157813) scale(0.14 -0.14)">
       <defs>
        <path id="DejaVuSans-32" d="M 1228 531 
L 3431 531 
L 3431 0 
L 469 0 
L 469 531 
Q 828 903 1448 1529 
Q 2069 2156 2228 2338 
Q 2531 2678 2651 2914 
Q 2772 3150 2772 3378 
Q 2772 3750 2511 3984 
Q 2250 4219 1831 4219 
Q 1534 4219 1204 4116 
Q 875 4013 500 3803 
L 500 4441 
Q 881 4594 1212 4672 
Q 1544 4750 1819 4750 
Q 2544 4750 2975 4387 
Q 3406 4025 3406 3419 
Q 3406 3131 3298 2873 
Q 3191 2616 2906 2266 
Q 2828 2175 2409 1742 
Q 1991 1309 1228 531 
z
" transform="scale(0.015625)"/>
       </defs>
       <use xlink:href="#DejaVuSans-32"/>
       <use xlink:href="#DejaVuSans-30" transform="translate(63.623047 0)"/>
      </g>
     </g>
    </g>
    <g id="xtick_3">
     <g id="line2d_3">
      <g>
       <use xlink:href="#m974d9f0028" x="260.926748" y="306.52" style="stroke: #000000; stroke-width: 0.8"/>
      </g>
     </g>
     <g id="text_3">
      <!-- 40 -->
      <g transform="translate(252.019248 324.157813) scale(0.14 -0.14)">
       <defs>
        <path id="DejaVuSans-34" d="M 2419 4116 
L 825 1625 
L 2419 1625 
L 2419 4116 
z
M 2253 4666 
L 3047 4666 
L 3047 1625 
L 3713 1625 
L 3713 1100 
L 3047 1100 
L 3047 0 
L 2419 0 
L 2419 1100 
L 313 1100 
L 313 1709 
L 2253 4666 
z
" transform="scale(0.015625)"/>
       </defs>
       <use xlink:href="#DejaVuSans-34"/>
       <use xlink:href="#DejaVuSans-30" transform="translate(63.623047 0)"/>
      </g>
     </g>
    </g>
    <g id="xtick_4">
     <g id="line2d_4">
      <g>
       <use xlink:href="#m974d9f0028" x="353.411571" y="306.52" style="stroke: #000000; stroke-width: 0.8"/>
      </g>
     </g>
     <g id="text_4">
      <!-- 60 -->
      <g transform="translate(344.504071 324.157813) scale(0.14 -0.14)">
       <defs>
        <path id="DejaVuSans-36" d="M 2113 2584 
Q 1688 2584 1439 2293 
Q 1191 2003 1191 1497 
Q 1191 994 1439 701 
Q 1688 409 2113 409 
Q 2538 409 2786 701 
Q 3034 994 3034 1497 
Q 3034 2003 2786 2293 
Q 2538 2584 2113 2584 
z
M 3366 4563 
L 3366 3988 
Q 3128 4100 2886 4159 
Q 2644 4219 2406 4219 
Q 1781 4219 1451 3797 
Q 1122 3375 1075 2522 
Q 1259 2794 1537 2939 
Q 1816 3084 2150 3084 
Q 2853 3084 3261 2657 
Q 3669 2231 3669 1497 
Q 3669 778 3244 343 
Q 2819 -91 2113 -91 
Q 1303 -91 875 529 
Q 447 1150 447 2328 
Q 447 3434 972 4092 
Q 1497 4750 2381 4750 
Q 2619 4750 2861 4703 
Q 3103 4656 3366 4563 
z
" transform="scale(0.015625)"/>
       </defs>
       <use xlink:href="#DejaVuSans-36"/>
       <use xlink:href="#DejaVuSans-30" transform="translate(63.623047 0)"/>
      </g>
     </g>
    </g>
    <g id="xtick_5">
     <g id="line2d_5">
      <g>
       <use xlink:href="#m974d9f0028" x="445.896394" y="306.52" style="stroke: #000000; stroke-width: 0.8"/>
      </g>
     </g>
     <g id="text_5">
      <!-- 80 -->
      <g transform="translate(436.988894 324.157813) scale(0.14 -0.14)">
       <defs>
        <path id="DejaVuSans-38" d="M 2034 2216 
Q 1584 2216 1326 1975 
Q 1069 1734 1069 1313 
Q 1069 891 1326 650 
Q 1584 409 2034 409 
Q 2484 409 2743 651 
Q 3003 894 3003 1313 
Q 3003 1734 2745 1975 
Q 2488 2216 2034 2216 
z
M 1403 2484 
Q 997 2584 770 2862 
Q 544 3141 544 3541 
Q 544 4100 942 4425 
Q 1341 4750 2034 4750 
Q 2731 4750 3128 4425 
Q 3525 4100 3525 3541 
Q 3525 3141 3298 2862 
Q 3072 2584 2669 2484 
Q 3125 2378 3379 2068 
Q 3634 1759 3634 1313 
Q 3634 634 3220 271 
Q 2806 -91 2034 -91 
Q 1263 -91 848 271 
Q 434 634 434 1313 
Q 434 1759 690 2068 
Q 947 2378 1403 2484 
z
M 1172 3481 
Q 1172 3119 1398 2916 
Q 1625 2713 2034 2713 
Q 2441 2713 2670 2916 
Q 2900 3119 2900 3481 
Q 2900 3844 2670 4047 
Q 2441 4250 2034 4250 
Q 1625 4250 1398 4047 
Q 1172 3844 1172 3481 
z
" transform="scale(0.015625)"/>
       </defs>
       <use xlink:href="#DejaVuSans-38"/>
       <use xlink:href="#DejaVuSans-30" transform="translate(63.623047 0)"/>
      </g>
     </g>
    </g>
    <g id="text_6">
     <!-- Area (mm²) -->
     <g transform="translate(230.050625 343.226875) scale(0.16 -0.16)">
      <defs>
       <path id="DejaVuSans-41" d="M 2188 4044 
L 1331 1722 
L 3047 1722 
L 2188 4044 
z
M 1831 4666 
L 2547 4666 
L 4325 0 
L 3669 0 
L 3244 1197 
L 1141 1197 
L 716 0 
L 50 0 
L 1831 4666 
z
" transform="scale(0.015625)"/>
       <path id="DejaVuSans-72" d="M 2631 2963 
Q 2534 3019 2420 3045 
Q 2306 3072 2169 3072 
Q 1681 3072 1420 2755 
Q 1159 2438 1159 1844 
L 1159 0 
L 581 0 
L 581 3500 
L 1159 3500 
L 1159 2956 
Q 1341 3275 1631 3429 
Q 1922 3584 2338 3584 
Q 2397 3584 2469 3576 
Q 2541 3569 2628 3553 
L 2631 2963 
z
" transform="scale(0.015625)"/>
       <path id="DejaVuSans-65" d="M 3597 1894 
L 3597 1613 
L 953 1613 
Q 991 1019 1311 708 
Q 1631 397 2203 397 
Q 2534 397 2845 478 
Q 3156 559 3463 722 
L 3463 178 
Q 3153 47 2828 -22 
Q 2503 -91 2169 -91 
Q 1331 -91 842 396 
Q 353 884 353 1716 
Q 353 2575 817 3079 
Q 1281 3584 2069 3584 
Q 2775 3584 3186 3129 
Q 3597 2675 3597 1894 
z
M 3022 2063 
Q 3016 2534 2758 2815 
Q 2500 3097 2075 3097 
Q 1594 3097 1305 2825 
Q 1016 2553 972 2059 
L 3022 2063 
z
" transform="scale(0.015625)"/>
       <path id="DejaVuSans-61" d="M 2194 1759 
Q 1497 1759 1228 1600 
Q 959 1441 959 1056 
Q 959 750 1161 570 
Q 1363 391 1709 391 
Q 2188 391 2477 730 
Q 2766 1069 2766 1631 
L 2766 1759 
L 2194 1759 
z
M 3341 1997 
L 3341 0 
L 2766 0 
L 2766 531 
Q 2569 213 2275 61 
Q 1981 -91 1556 -91 
Q 1019 -91 701 211 
Q 384 513 384 1019 
Q 384 1609 779 1909 
Q 1175 2209 1959 2209 
L 2766 2209 
L 2766 2266 
Q 2766 2663 2505 2880 
Q 2244 3097 1772 3097 
Q 1472 3097 1187 3025 
Q 903 2953 641 2809 
L 641 3341 
Q 956 3463 1253 3523 
Q 1550 3584 1831 3584 
Q 2591 3584 2966 3190 
Q 3341 2797 3341 1997 
z
" transform="scale(0.015625)"/>
       <path id="DejaVuSans-20" transform="scale(0.015625)"/>
       <path id="DejaVuSans-28" d="M 1984 4856 
Q 1566 4138 1362 3434 
Q 1159 2731 1159 2009 
Q 1159 1288 1364 580 
Q 1569 -128 1984 -844 
L 1484 -844 
Q 1016 -109 783 600 
Q 550 1309 550 2009 
Q 550 2706 781 3412 
Q 1013 4119 1484 4856 
L 1984 4856 
z
" transform="scale(0.015625)"/>
       <path id="DejaVuSans-6d" d="M 3328 2828 
Q 3544 3216 3844 3400 
Q 4144 3584 4550 3584 
Q 5097 3584 5394 3201 
Q 5691 2819 5691 2113 
L 5691 0 
L 5113 0 
L 5113 2094 
Q 5113 2597 4934 2840 
Q 4756 3084 4391 3084 
Q 3944 3084 3684 2787 
Q 3425 2491 3425 1978 
L 3425 0 
L 2847 0 
L 2847 2094 
Q 2847 2600 2669 2842 
Q 2491 3084 2119 3084 
Q 1678 3084 1418 2786 
Q 1159 2488 1159 1978 
L 1159 0 
L 581 0 
L 581 3500 
L 1159 3500 
L 1159 2956 
Q 1356 3278 1631 3431 
Q 1906 3584 2284 3584 
Q 2666 3584 2933 3390 
Q 3200 3197 3328 2828 
z
" transform="scale(0.015625)"/>
       <path id="DejaVuSans-b2" d="M 838 2444 
L 2163 2444 
L 2163 2088 
L 294 2088 
L 294 2431 
Q 400 2528 597 2703 
Q 1672 3656 1672 3950 
Q 1672 4156 1509 4282 
Q 1347 4409 1081 4409 
Q 919 4409 728 4354 
Q 538 4300 313 4191 
L 313 4575 
Q 553 4663 761 4706 
Q 969 4750 1147 4750 
Q 1600 4750 1872 4544 
Q 2144 4338 2144 4000 
Q 2144 3566 1109 2678 
Q 934 2528 838 2444 
z
" transform="scale(0.015625)"/>
       <path id="DejaVuSans-29" d="M 513 4856 
L 1013 4856 
Q 1481 4119 1714 3412 
Q 1947 2706 1947 2009 
Q 1947 1309 1714 600 
Q 1481 -109 1013 -844 
L 513 -844 
Q 928 -128 1133 580 
Q 1338 1288 1338 2009 
Q 1338 2731 1133 3434 
Q 928 4138 513 4856 
z
" transform="scale(0.015625)"/>
      </defs>
      <use xlink:href="#DejaVuSans-41"/>
      <use xlink:href="#DejaVuSans-72" transform="translate(68.408203 0)"/>
      <use xlink:href="#DejaVuSans-65" transform="translate(107.271484 0)"/>
      <use xlink:href="#DejaVuSans-61" transform="translate(168.794922 0)"/>
      <use xlink:href="#DejaVuSans-20" transform="translate(230.074219 0)"/>
      <use xlink:href="#DejaVuSans-28" transform="translate(261.861328 0)"/>
      <use xlink:href="#DejaVuSans-6d" transform="translate(300.875 0)"/>
      <use xlink:href="#DejaVuSans-6d" transform="translate(398.287109 0)"/>
      <use xlink:href="#DejaVuSans-b2" transform="translate(495.699219 0)"/>
      <use xlink:href="#DejaVuSans-29" transform="translate(535.787109 0)"/>
     </g>
    </g>
   </g>
   <g id="matplotlib.axis_2">
    <g id="ytick_1">
     <g id="line2d_6">
      <defs>
       <path id="m9c0ca3f498" d="M 0 0 
L -3.5 0 
" style="stroke: #000000; stroke-width: 0.8"/>
      </defs>
      <g>
       <use xlink:href="#m9c0ca3f498" x="55.949375" y="292.953214" style="stroke: #000000; stroke-width: 0.8"/>
      </g>
     </g>
     <g id="text_7">
      <!-- 0.0 -->
      <g transform="translate(26.685 298.27212) scale(0.14 -0.14)">
       <defs>
        <path id="DejaVuSans-2e" d="M 684 794 
L 1344 794 
L 1344 0 
L 684 0 
L 684 794 
z
" transform="scale(0.015625)"/>
       </defs>
       <use xlink:href="#DejaVuSans-30"/>
       <use xlink:href="#DejaVuSans-2e" transform="translate(63.623047 0)"/>
       <use xlink:href="#DejaVuSans-30" transform="translate(95.410156 0)"/>
      </g>
     </g>
    </g>
    <g id="ytick_2">
     <g id="line2d_7">
      <g>
       <use xlink:href="#m9c0ca3f498" x="55.949375" y="238.523662" style="stroke: #000000; stroke-width: 0.8"/>
      </g>
     </g>
     <g id="text_8">
      <!-- 0.2 -->
      <g transform="translate(26.685 243.842568) scale(0.14 -0.14)">
       <use xlink:href="#DejaVuSans-30"/>
       <use xlink:href="#DejaVuSans-2e" transform="translate(63.623047 0)"/>
       <use xlink:href="#DejaVuSans-32" transform="translate(95.410156 0)"/>
      </g>
     </g>
    </g>
    <g id="ytick_3">
     <g id="line2d_8">
      <g>
       <use xlink:href="#m9c0ca3f498" x="55.949375" y="184.09411" style="stroke: #000000; stroke-width: 0.8"/>
      </g>
     </g>
     <g id="text_9">
      <!-- 0.4 -->
      <g transform="translate(26.685 189.413016) scale(0.14 -0.14)">
       <use xlink:href="#DejaVuSans-30"/>
       <use xlink:href="#DejaVuSans-2e" transform="translate(63.623047 0)"/>
       <use xlink:href="#DejaVuSans-34" transform="translate(95.410156 0)"/>
      </g>
     </g>
    </g>
    <g id="ytick_4">
     <g id="line2d_9">
      <g>
       <use xlink:href="#m9c0ca3f498" x="55.949375" y="129.664558" style="stroke: #000000; stroke-width: 0.8"/>
      </g>
     </g>
     <g id="text_10">
      <!-- 0.6 -->
      <g transform="translate(26.685 134.983464) scale(0.14 -0.14)">
       <use xlink:href="#DejaVuSans-30"/>
       <use xlink:href="#DejaVuSans-2e" transform="translate(63.623047 0)"/>
       <use xlink:href="#DejaVuSans-36" transform="translate(95.410156 0)"/>
      </g>
     </g>
    </g>
    <g id="ytick_5">
     <g id="line2d_10">
      <g>
       <use xlink:href="#m9c0ca3f498" x="55.949375" y="75.235006" style="stroke: #000000; stroke-width: 0.8"/>
      </g>
     </g>
     <g id="text_11">
      <!-- 0.8 -->
      <g transform="translate(26.685 80.553913) scale(0.14 -0.14)">
       <use xlink:href="#DejaVuSans-30"/>
       <use xlink:href="#DejaVuSans-2e" transform="translate(63.623047 0)"/>
       <use xlink:href="#DejaVuSans-38" transform="translate(95.410156 0)"/>
      </g>
     </g>
    </g>
    <g id="ytick_6">
     <g id="line2d_11">
      <g>
       <use xlink:href="#m9c0ca3f498" x="55.949375" y="20.805455" style="stroke: #000000; stroke-width: 0.8"/>
      </g>
     </g>
     <g id="text_12">
      <!-- 1.0 -->
      <g transform="translate(26.685 26.124361) scale(0.14 -0.14)">
       <defs>
        <path id="DejaVuSans-31" d="M 794 531 
L 1825 531 
L 1825 4091 
L 703 3866 
L 703 4441 
L 1819 4666 
L 2450 4666 
L 2450 531 
L 3481 531 
L 3481 0 
L 794 0 
L 794 531 
z
" transform="scale(0.015625)"/>
       </defs>
       <use xlink:href="#DejaVuSans-31"/>
       <use xlink:href="#DejaVuSans-2e" transform="translate(63.623047 0)"/>
       <use xlink:href="#DejaVuSans-30" transform="translate(95.410156 0)"/>
      </g>
     </g>
    </g>
    <g id="text_13">
     <!-- Probability -->
     <g transform="translate(19.3575 199.14625) rotate(-90) scale(0.16 -0.16)">
      <defs>
       <path id="DejaVuSans-50" d="M 1259 4147 
L 1259 2394 
L 2053 2394 
Q 2494 2394 2734 2622 
Q 2975 2850 2975 3272 
Q 2975 3691 2734 3919 
Q 2494 4147 2053 4147 
L 1259 4147 
z
M 628 4666 
L 2053 4666 
Q 2838 4666 3239 4311 
Q 3641 3956 3641 3272 
Q 3641 2581 3239 2228 
Q 2838 1875 2053 1875 
L 1259 1875 
L 1259 0 
L 628 0 
L 628 4666 
z
" transform="scale(0.015625)"/>
       <path id="DejaVuSans-6f" d="M 1959 3097 
Q 1497 3097 1228 2736 
Q 959 2375 959 1747 
Q 959 1119 1226 758 
Q 1494 397 1959 397 
Q 2419 397 2687 759 
Q 2956 1122 2956 1747 
Q 2956 2369 2687 2733 
Q 2419 3097 1959 3097 
z
M 1959 3584 
Q 2709 3584 3137 3096 
Q 3566 2609 3566 1747 
Q 3566 888 3137 398 
Q 2709 -91 1959 -91 
Q 1206 -91 779 398 
Q 353 888 353 1747 
Q 353 2609 779 3096 
Q 1206 3584 1959 3584 
z
" transform="scale(0.015625)"/>
       <path id="DejaVuSans-62" d="M 3116 1747 
Q 3116 2381 2855 2742 
Q 2594 3103 2138 3103 
Q 1681 3103 1420 2742 
Q 1159 2381 1159 1747 
Q 1159 1113 1420 752 
Q 1681 391 2138 391 
Q 2594 391 2855 752 
Q 3116 1113 3116 1747 
z
M 1159 2969 
Q 1341 3281 1617 3432 
Q 1894 3584 2278 3584 
Q 2916 3584 3314 3078 
Q 3713 2572 3713 1747 
Q 3713 922 3314 415 
Q 2916 -91 2278 -91 
Q 1894 -91 1617 61 
Q 1341 213 1159 525 
L 1159 0 
L 581 0 
L 581 4863 
L 1159 4863 
L 1159 2969 
z
" transform="scale(0.015625)"/>
       <path id="DejaVuSans-69" d="M 603 3500 
L 1178 3500 
L 1178 0 
L 603 0 
L 603 3500 
z
M 603 4863 
L 1178 4863 
L 1178 4134 
L 603 4134 
L 603 4863 
z
" transform="scale(0.015625)"/>
       <path id="DejaVuSans-6c" d="M 603 4863 
L 1178 4863 
L 1178 0 
L 603 0 
L 603 4863 
z
" transform="scale(0.015625)"/>
       <path id="DejaVuSans-74" d="M 1172 4494 
L 1172 3500 
L 2356 3500 
L 2356 3053 
L 1172 3053 
L 1172 1153 
Q 1172 725 1289 603 
Q 1406 481 1766 481 
L 2356 481 
L 2356 0 
L 1766 0 
Q 1100 0 847 248 
Q 594 497 594 1153 
L 594 3053 
L 172 3053 
L 172 3500 
L 594 3500 
L 594 4494 
L 1172 4494 
z
" transform="scale(0.015625)"/>
       <path id="DejaVuSans-79" d="M 2059 -325 
Q 1816 -950 1584 -1140 
Q 1353 -1331 966 -1331 
L 506 -1331 
L 506 -850 
L 844 -850 
Q 1081 -850 1212 -737 
Q 1344 -625 1503 -206 
L 1606 56 
L 191 3500 
L 800 3500 
L 1894 763 
L 2988 3500 
L 3597 3500 
L 2059 -325 
z
" transform="scale(0.015625)"/>
      </defs>
      <use xlink:href="#DejaVuSans-50"/>
      <use xlink:href="#DejaVuSans-72" transform="translate(58.552734 0)"/>
      <use xlink:href="#DejaVuSans-6f" transform="translate(97.416016 0)"/>
      <use xlink:href="#DejaVuSans-62" transform="translate(158.597656 0)"/>
      <use xlink:href="#DejaVuSans-61" transform="translate(222.074219 0)"/>
      <use xlink:href="#DejaVuSans-62" transform="translate(283.353516 0)"/>
      <use xlink:href="#DejaVuSans-69" transform="translate(346.830078 0)"/>
      <use xlink:href="#DejaVuSans-6c" transform="translate(374.613281 0)"/>
      <use xlink:href="#DejaVuSans-69" transform="translate(402.396484 0)"/>
      <use xlink:href="#DejaVuSans-74" transform="translate(430.179688 0)"/>
      <use xlink:href="#DejaVuSans-79" transform="translate(469.388672 0)"/>
     </g>
    </g>
   </g>
   <g id="line2d_12">
    <path d="M 75.957102 292.914545 
L 76.244268 292.759872 
L 76.437792 292.179847 
L 76.604265 291.135802 
L 77.032932 285.219546 
L 77.172353 282.899446 
L 77.28056 280.579346 
L 77.336745 279.032612 
L 77.667609 270.834925 
L 77.775816 267.702789 
L 77.819515 266.736081 
L 77.929804 264.106634 
L 78.117085 258.577062 
L 78.225293 255.406258 
L 78.281477 253.859525 
L 78.641474 245.12048 
L 78.749681 242.645707 
L 78.793381 241.678998 
L 79.209562 231.895909 
L 79.315689 229.691814 
L 79.346902 229.150457 
L 79.879615 217.201941 
L 79.989903 215.191187 
L 81.912662 181.511065 
L 81.989656 180.351015 
L 82.599362 171.031946 
L 82.73254 169.523881 
L 82.836586 167.783805 
L 82.89277 167.010439 
L 83.16745 163.916972 
L 83.269415 162.950263 
L 83.379703 161.40353 
L 84.028946 154.365892 
L 84.135073 153.399184 
L 84.33484 151.465767 
L 84.592873 148.720315 
L 84.721889 147.830943 
L 84.832177 146.902903 
L 84.871714 146.438883 
L 84.979922 145.278833 
L 85.930897 137.42916 
L 85.991243 136.887804 
L 86.615516 132.32494 
L 86.821526 130.46886 
L 87.119096 128.960795 
L 87.295973 127.414061 
L 87.364643 127.220719 
L 87.474931 126.292679 
L 87.626837 125.403307 
L 87.683022 125.055292 
L 90.429821 108.698586 
L 90.527624 108.157229 
L 90.631669 107.886551 
L 90.683692 107.615872 
L 90.835598 106.765169 
L 90.879297 106.533159 
L 90.972938 105.914465 
L 91.058255 105.489114 
L 91.784492 101.62228 
L 91.890619 101.274265 
L 92.032121 100.655571 
L 92.134085 99.99821 
L 92.323448 99.147506 
L 92.385875 98.915496 
L 92.847837 97.214089 
L 92.962287 96.943411 
L 93.103788 95.976703 
L 93.182863 95.744693 
L 93.276504 95.358009 
L 93.384711 94.932658 
L 93.492918 94.352632 
L 93.678119 93.540597 
L 93.744708 93.269919 
L 93.892453 92.573889 
L 94.071411 91.916527 
L 94.175456 91.645849 
L 96.466537 83.48683 
L 96.56642 83.216151 
L 96.757864 82.326779 
L 96.970116 81.940096 
L 97.113699 81.746754 
L 97.286415 81.205398 
L 97.380055 81.050724 
L 97.71092 80.122684 
L 97.854503 79.736001 
L 98.089645 79.233312 
L 98.218662 78.807961 
L 98.316464 78.653287 
L 99.019811 76.951881 
L 99.240388 76.410524 
L 99.348595 76.139845 
L 99.49842 75.753162 
L 100.453557 74.090424 
L 100.846849 72.969042 
L 101.017484 72.659695 
L 101.177713 72.389017 
L 101.317134 72.041002 
L 101.55852 71.422308 
L 101.668808 71.228967 
L 101.8332 70.803615 
L 101.985106 70.532937 
L 102.343022 70.068917 
L 102.628107 69.566228 
L 102.723828 69.29555 
L 102.938162 68.947535 
L 103.947403 67.43947 
L 104.053529 67.168791 
L 104.471792 66.202083 
L 105.757793 64.191329 
L 105.863919 64.036656 
L 106.330043 63.804646 
L 106.423684 63.688641 
L 106.754548 63.185952 
L 106.866917 62.953942 
L 107.158245 62.760601 
L 107.258128 62.412586 
L 107.516161 62.141907 
L 107.611883 61.987234 
L 107.763789 61.793892 
L 107.936504 61.484546 
L 108.408871 61.252536 
L 108.631528 60.827184 
L 108.88748 60.595174 
L 110.939255 58.1204 
L 111.145265 57.965727 
L 112.160749 56.72834 
L 112.34803 56.534998 
L 112.664328 56.26432 
L 112.789183 56.109647 
L 113.140857 55.722963 
L 113.340624 55.374948 
L 113.417617 55.220275 
L 113.775534 55.026933 
L 113.865013 54.833592 
L 114.033566 54.64025 
L 114.612059 54.137561 
L 114.699457 54.060225 
L 115.04905 53.905551 
L 115.105234 53.828215 
L 115.240493 53.673541 
L 115.494364 53.364195 
L 115.879332 52.938843 
L 116.139446 52.745501 
L 116.293433 52.629496 
L 116.591003 52.436155 
L 116.591003 52.397486 
L 116.769961 52.242813 
L 116.988456 52.049471 
L 117.244408 51.817461 
L 117.452499 51.662788 
L 117.658509 51.508115 
L 117.922784 51.082763 
L 118.422202 50.657411 
L 118.809251 50.386733 
L 119.009019 50.077386 
L 119.375258 49.884044 
L 119.51676 49.768039 
L 119.968317 49.536029 
L 120.619642 48.878668 
L 120.82149 48.607989 
L 121.121141 48.453316 
L 121.489461 48.259974 
L 121.653853 48.143969 
L 121.934776 47.989296 
L 122.119977 47.718617 
L 122.157433 47.641281 
L 122.398818 47.486607 
L 122.937774 47.061256 
L 122.960664 47.022587 
L 123.281124 46.867914 
L 123.790946 46.558567 
L 123.978228 46.442562 
L 124.537992 46.094547 
L 124.660766 45.901206 
L 124.991631 45.707864 
L 125.613822 45.205176 
L 126.429538 44.547814 
L 126.475318 44.470477 
L 126.856125 44.16113 
L 126.86861 44.083794 
L 127.469993 43.851784 
L 127.636465 43.69711 
L 128.266981 43.387764 
L 128.331489 43.23309 
L 129.138881 43.00108 
L 129.505121 42.846407 
L 129.80061 42.614397 
L 130.668349 42.07304 
L 132.387179 41.531683 
L 132.437121 41.454347 
L 133.105093 41.222337 
L 133.596187 40.796985 
L 134.216298 40.564975 
L 134.382771 40.410302 
L 134.686583 40.294297 
L 134.690745 40.255628 
L 135.831083 39.830277 
L 136.164028 39.636935 
L 137.801703 39.095578 
L 137.88494 38.979573 
L 138.521698 38.786231 
L 141.676355 37.355503 
L 141.782481 37.278166 
L 142.710566 36.852815 
L 144.82477 35.924775 
L 144.978757 35.847438 
L 145.752855 35.692764 
L 145.867305 35.615428 
L 146.789147 35.460754 
L 147.540355 35.306081 
L 147.640239 35.228744 
L 147.777579 35.112739 
L 148.455955 34.880729 
L 150.029122 34.300704 
L 150.262183 34.068694 
L 151.142408 33.875353 
L 152.091302 33.682011 
L 152.174538 33.604674 
L 152.509565 33.411333 
L 152.605286 33.333996 
L 153.083895 33.140654 
L 153.354414 32.985981 
L 154.49059 32.637966 
L 154.602959 32.521961 
L 155.250121 32.367287 
L 156.020057 32.096609 
L 156.082485 32.019272 
L 158.125937 31.555252 
L 160.1028 31.245906 
L 160.26303 31.168569 
L 167.723087 29.969851 
L 168.178806 29.892514 
L 172.79218 29.196484 
L 172.92952 29.157815 
L 175.12904 28.925805 
L 175.422448 28.848469 
L 176.752149 28.693795 
L 177.085094 28.539122 
L 183.423542 27.611082 
L 187.63322 27.301735 
L 189.006619 27.069725 
L 192.019775 26.876384 
L 195.349228 26.451032 
L 197.565396 26.219022 
L 198.622497 26.103017 
L 201.662705 25.871007 
L 202.345243 25.638997 
L 209.262183 24.826962 
L 211.607366 24.672288 
L 211.653146 24.594952 
L 213.113944 24.440278 
L 215.099131 24.246937 
L 223.368661 23.744248 
L 224.450734 23.628243 
L 228.962144 23.357565 
L 229.461562 23.24156 
L 236.330641 22.970881 
L 240.79627 22.77754 
L 241.713951 22.622866 
L 249.927297 22.120178 
L 257.795212 21.926836 
L 258.228041 21.888168 
L 295.297345 21.38548 
L 296.699877 21.346811 
L 328.860319 21.114801 
L 374.2595 20.960128 
L 387.308877 20.882791 
L 476.111648 20.805455 
L 476.111648 20.805455 
" clip-path="url(#p737c1af92e)" style="fill: none; stroke: #0000ff; stroke-width: 1.5; stroke-linecap: square"/>
   </g>
   <g id="patch_3">
    <path d="M 55.949375 306.52 
L 55.949375 7.2 
" style="fill: none; stroke: #000000; stroke-width: 0.8; stroke-linejoin: miter; stroke-linecap: square"/>
   </g>
   <g id="patch_4">
    <path d="M 496.119375 306.52 
L 496.119375 7.2 
" style="fill: none; stroke: #000000; stroke-width: 0.8; stroke-linejoin: miter; stroke-linecap: square"/>
   </g>
   <g id="patch_5">
    <path d="M 55.949375 306.52 
L 496.119375 306.52 
" style="fill: none; stroke: #000000; stroke-width: 0.8; stroke-linejoin: miter; stroke-linecap: square"/>
   </g>
   <g id="patch_6">
    <path d="M 55.949375 7.2 
L 496.119375 7.2 
" style="fill: none; stroke: #000000; stroke-width: 0.8; stroke-linejoin: miter; stroke-linecap: square"/>
   </g>
  </g>
  <g id="axes_2">
   <g id="patch_7">
    <path d="M 554.549375 306.52 
L 994.719375 306.52 
L 994.719375 7.2 
L 554.549375 7.2 
z
" style="fill: #ffffff"/>
   </g>
   <g id="matplotlib.axis_3">
    <g id="xtick_6">
     <g id="line2d_13">
      <g>
       <use xlink:href="#m974d9f0028" x="571.93791" y="306.52" style="stroke: #000000; stroke-width: 0.8"/>
      </g>
     </g>
     <g id="text_14">
      <!-- 0 -->
      <g transform="translate(567.48416 324.157813) scale(0.14 -0.14)">
       <use xlink:href="#DejaVuSans-30"/>
      </g>
     </g>
    </g>
    <g id="xtick_7">
     <g id="line2d_14">
      <g>
       <use xlink:href="#m974d9f0028" x="627.151835" y="306.52" style="stroke: #000000; stroke-width: 0.8"/>
      </g>
     </g>
     <g id="text_15">
      <!-- 2 -->
      <g transform="translate(622.698085 324.157813) scale(0.14 -0.14)">
       <use xlink:href="#DejaVuSans-32"/>
      </g>
     </g>
    </g>
    <g id="xtick_8">
     <g id="line2d_15">
      <g>
       <use xlink:href="#m974d9f0028" x="682.36576" y="306.52" style="stroke: #000000; stroke-width: 0.8"/>
      </g>
     </g>
     <g id="text_16">
      <!-- 4 -->
      <g transform="translate(677.91201 324.157813) scale(0.14 -0.14)">
       <use xlink:href="#DejaVuSans-34"/>
      </g>
     </g>
    </g>
    <g id="xtick_9">
     <g id="line2d_16">
      <g>
       <use xlink:href="#m974d9f0028" x="737.579685" y="306.52" style="stroke: #000000; stroke-width: 0.8"/>
      </g>
     </g>
     <g id="text_17">
      <!-- 6 -->
      <g transform="translate(733.125935 324.157813) scale(0.14 -0.14)">
       <use xlink:href="#DejaVuSans-36"/>
      </g>
     </g>
    </g>
    <g id="xtick_10">
     <g id="line2d_17">
      <g>
       <use xlink:href="#m974d9f0028" x="792.79361" y="306.52" style="stroke: #000000; stroke-width: 0.8"/>
      </g>
     </g>
     <g id="text_18">
      <!-- 8 -->
      <g transform="translate(788.33986 324.157813) scale(0.14 -0.14)">
       <use xlink:href="#DejaVuSans-38"/>
      </g>
     </g>
    </g>
    <g id="xtick_11">
     <g id="line2d_18">
      <g>
       <use xlink:href="#m974d9f0028" x="848.007535" y="306.52" style="stroke: #000000; stroke-width: 0.8"/>
      </g>
     </g>
     <g id="text_19">
      <!-- 10 -->
      <g transform="translate(839.100035 324.157813) scale(0.14 -0.14)">
       <use xlink:href="#DejaVuSans-31"/>
       <use xlink:href="#DejaVuSans-30" transform="translate(63.623047 0)"/>
      </g>
     </g>
    </g>
    <g id="xtick_12">
     <g id="line2d_19">
      <g>
       <use xlink:href="#m974d9f0028" x="903.22146" y="306.52" style="stroke: #000000; stroke-width: 0.8"/>
      </g>
     </g>
     <g id="text_20">
      <!-- 12 -->
      <g transform="translate(894.31396 324.157813) scale(0.14 -0.14)">
       <use xlink:href="#DejaVuSans-31"/>
       <use xlink:href="#DejaVuSans-32" transform="translate(63.623047 0)"/>
      </g>
     </g>
    </g>
    <g id="xtick_13">
     <g id="line2d_20">
      <g>
       <use xlink:href="#m974d9f0028" x="958.435385" y="306.52" style="stroke: #000000; stroke-width: 0.8"/>
      </g>
     </g>
     <g id="text_21">
      <!-- 14 -->
      <g transform="translate(949.527885 324.157813) scale(0.14 -0.14)">
       <use xlink:href="#DejaVuSans-31"/>
       <use xlink:href="#DejaVuSans-34" transform="translate(63.623047 0)"/>
      </g>
     </g>
    </g>
    <g id="text_22">
     <!-- Diameter (mm) -->
     <g transform="translate(712.916875 343.226875) scale(0.16 -0.16)">
      <defs>
       <path id="DejaVuSans-44" d="M 1259 4147 
L 1259 519 
L 2022 519 
Q 2988 519 3436 956 
Q 3884 1394 3884 2338 
Q 3884 3275 3436 3711 
Q 2988 4147 2022 4147 
L 1259 4147 
z
M 628 4666 
L 1925 4666 
Q 3281 4666 3915 4102 
Q 4550 3538 4550 2338 
Q 4550 1131 3912 565 
Q 3275 0 1925 0 
L 628 0 
L 628 4666 
z
" transform="scale(0.015625)"/>
      </defs>
      <use xlink:href="#DejaVuSans-44"/>
      <use xlink:href="#DejaVuSans-69" transform="translate(77.001953 0)"/>
      <use xlink:href="#DejaVuSans-61" transform="translate(104.785156 0)"/>
      <use xlink:href="#DejaVuSans-6d" transform="translate(166.064453 0)"/>
      <use xlink:href="#DejaVuSans-65" transform="translate(263.476562 0)"/>
      <use xlink:href="#DejaVuSans-74" transform="translate(325 0)"/>
      <use xlink:href="#DejaVuSans-65" transform="translate(364.208984 0)"/>
      <use xlink:href="#DejaVuSans-72" transform="translate(425.732422 0)"/>
      <use xlink:href="#DejaVuSans-20" transform="translate(466.845703 0)"/>
      <use xlink:href="#DejaVuSans-28" transform="translate(498.632812 0)"/>
      <use xlink:href="#DejaVuSans-6d" transform="translate(537.646484 0)"/>
      <use xlink:href="#DejaVuSans-6d" transform="translate(635.058594 0)"/>
      <use xlink:href="#DejaVuSans-29" transform="translate(732.470703 0)"/>
     </g>
    </g>
   </g>
   <g id="matplotlib.axis_4">
    <g id="ytick_7">
     <g id="line2d_21">
      <g>
       <use xlink:href="#m9c0ca3f498" x="554.549375" y="292.953214" style="stroke: #000000; stroke-width: 0.8"/>
      </g>
     </g>
     <g id="text_23">
      <!-- 0.0 -->
      <g transform="translate(525.285 298.27212) scale(0.14 -0.14)">
       <use xlink:href="#DejaVuSans-30"/>
       <use xlink:href="#DejaVuSans-2e" transform="translate(63.623047 0)"/>
       <use xlink:href="#DejaVuSans-30" transform="translate(95.410156 0)"/>
      </g>
     </g>
    </g>
    <g id="ytick_8">
     <g id="line2d_22">
      <g>
       <use xlink:href="#m9c0ca3f498" x="554.549375" y="238.523662" style="stroke: #000000; stroke-width: 0.8"/>
      </g>
     </g>
     <g id="text_24">
      <!-- 0.2 -->
      <g transform="translate(525.285 243.842568) scale(0.14 -0.14)">
       <use xlink:href="#DejaVuSans-30"/>
       <use xlink:href="#DejaVuSans-2e" transform="translate(63.623047 0)"/>
       <use xlink:href="#DejaVuSans-32" transform="translate(95.410156 0)"/>
      </g>
     </g>
    </g>
    <g id="ytick_9">
     <g id="line2d_23">
      <g>
       <use xlink:href="#m9c0ca3f498" x="554.549375" y="184.09411" style="stroke: #000000; stroke-width: 0.8"/>
      </g>
     </g>
     <g id="text_25">
      <!-- 0.4 -->
      <g transform="translate(525.285 189.413016) scale(0.14 -0.14)">
       <use xlink:href="#DejaVuSans-30"/>
       <use xlink:href="#DejaVuSans-2e" transform="translate(63.623047 0)"/>
       <use xlink:href="#DejaVuSans-34" transform="translate(95.410156 0)"/>
      </g>
     </g>
    </g>
    <g id="ytick_10">
     <g id="line2d_24">
      <g>
       <use xlink:href="#m9c0ca3f498" x="554.549375" y="129.664558" style="stroke: #000000; stroke-width: 0.8"/>
      </g>
     </g>
     <g id="text_26">
      <!-- 0.6 -->
      <g transform="translate(525.285 134.983464) scale(0.14 -0.14)">
       <use xlink:href="#DejaVuSans-30"/>
       <use xlink:href="#DejaVuSans-2e" transform="translate(63.623047 0)"/>
       <use xlink:href="#DejaVuSans-36" transform="translate(95.410156 0)"/>
      </g>
     </g>
    </g>
    <g id="ytick_11">
     <g id="line2d_25">
      <g>
       <use xlink:href="#m9c0ca3f498" x="554.549375" y="75.235006" style="stroke: #000000; stroke-width: 0.8"/>
      </g>
     </g>
     <g id="text_27">
      <!-- 0.8 -->
      <g transform="translate(525.285 80.553913) scale(0.14 -0.14)">
       <use xlink:href="#DejaVuSans-30"/>
       <use xlink:href="#DejaVuSans-2e" transform="translate(63.623047 0)"/>
       <use xlink:href="#DejaVuSans-38" transform="translate(95.410156 0)"/>
      </g>
     </g>
    </g>
    <g id="ytick_12">
     <g id="line2d_26">
      <g>
       <use xlink:href="#m9c0ca3f498" x="554.549375" y="20.805455" style="stroke: #000000; stroke-width: 0.8"/>
      </g>
     </g>
     <g id="text_28">
      <!-- 1.0 -->
      <g transform="translate(525.285 26.124361) scale(0.14 -0.14)">
       <use xlink:href="#DejaVuSans-31"/>
       <use xlink:href="#DejaVuSans-2e" transform="translate(63.623047 0)"/>
       <use xlink:href="#DejaVuSans-30" transform="translate(95.410156 0)"/>
      </g>
     </g>
    </g>
    <g id="text_29">
     <!-- Probability -->
     <g transform="translate(517.9575 199.14625) rotate(-90) scale(0.16 -0.16)">
      <use xlink:href="#DejaVuSans-50"/>
      <use xlink:href="#DejaVuSans-72" transform="translate(58.552734 0)"/>
      <use xlink:href="#DejaVuSans-6f" transform="translate(97.416016 0)"/>
      <use xlink:href="#DejaVuSans-62" transform="translate(158.597656 0)"/>
      <use xlink:href="#DejaVuSans-61" transform="translate(222.074219 0)"/>
      <use xlink:href="#DejaVuSans-62" transform="translate(283.353516 0)"/>
      <use xlink:href="#DejaVuSans-69" transform="translate(346.830078 0)"/>
      <use xlink:href="#DejaVuSans-6c" transform="translate(374.613281 0)"/>
      <use xlink:href="#DejaVuSans-69" transform="translate(402.396484 0)"/>
      <use xlink:href="#DejaVuSans-74" transform="translate(430.179688 0)"/>
      <use xlink:href="#DejaVuSans-79" transform="translate(469.388672 0)"/>
     </g>
    </g>
   </g>
   <g id="line2d_27">
    <path d="M 574.557102 292.914545 
L 582.479454 292.759872 
L 586.030914 291.986505 
L 586.402122 291.677159 
L 586.402122 291.63849 
L 586.868823 291.445149 
L 586.937577 291.367812 
L 587.209493 291.135802 
L 587.209493 291.097134 
L 587.492861 290.94246 
L 588.018984 290.285099 
L 588.272909 290.091757 
L 588.335775 289.937083 
L 588.708028 289.743742 
L 589.200622 289.202385 
L 589.237914 289.047712 
L 589.502909 288.893038 
L 589.694552 288.699697 
L 589.854974 288.545023 
L 589.950553 288.429018 
L 590.177484 288.274345 
L 590.419084 287.69432 
L 590.58289 287.384973 
L 590.715936 287.114295 
L 591.004876 286.920953 
L 591.066079 286.650275 
L 591.272808 286.495601 
L 591.355899 286.186255 
L 591.69394 285.876908 
L 591.796289 285.60623 
L 592.033569 284.871531 
L 592.142235 284.639521 
L 592.393326 284.252838 
L 592.750238 283.170124 
L 592.869302 282.860778 
L 594.238282 280.347336 
L 594.346027 279.960652 
L 594.435118 279.728642 
L 595.192518 276.789849 
L 595.260649 276.635175 
L 595.369412 276.05515 
L 595.860668 274.160402 
L 596.005999 273.96706 
L 596.259257 273.077688 
L 596.418652 272.768342 
L 596.54606 272.420327 
L 596.922129 271.260276 
L 599.506359 261.554524 
L 599.616017 261.206509 
L 599.736102 260.587815 
L 599.766384 260.394474 
L 600.603705 257.45568 
L 600.687779 257.262338 
L 600.789071 257.030328 
L 600.91355 256.682313 
L 601.22906 255.986283 
L 601.313232 255.754273 
L 601.948505 252.931484 
L 602.075944 252.390128 
L 605.370462 239.204225 
L 605.455249 238.972215 
L 605.732651 237.850833 
L 605.784294 237.541486 
L 605.920267 237.386813 
L 606.09667 236.536109 
L 606.256316 236.304099 
L 606.361934 235.840079 
L 606.417833 235.530733 
L 606.641155 234.564024 
L 606.772111 234.370682 
L 606.880244 233.906662 
L 607.424836 232.050582 
L 607.502873 231.895909 
L 607.613267 231.16121 
L 607.736571 230.46518 
L 607.819694 230.078497 
L 607.928474 229.421135 
L 608.16997 228.493095 
L 608.239744 228.299754 
L 609.085307 224.548925 
L 609.136499 224.394251 
L 609.244265 224.007568 
L 609.380269 223.50488 
L 609.655693 222.11282 
L 609.748338 221.726136 
L 609.873294 221.300784 
L 609.978704 221.068774 
L 610.071674 220.836764 
L 610.179447 219.947393 
L 610.7457 218.671337 
L 610.947766 217.627292 
L 611.388994 215.848549 
L 611.527845 215.57787 
L 611.645178 215.11385 
L 611.735213 214.920509 
L 611.829896 214.572494 
L 611.915777 214.340484 
L 612.02354 213.72179 
L 612.848574 210.744328 
L 612.949051 210.280308 
L 613.057623 210.00963 
L 613.157591 209.352268 
L 613.199172 209.197595 
L 613.290503 208.965585 
L 613.356799 208.772243 
L 613.431025 208.501565 
L 613.555055 208.269555 
L 613.661156 207.960208 
L 613.741948 207.805535 
L 613.900418 206.877495 
L 613.933181 206.606816 
L 614.059954 206.297469 
L 614.176727 206.065459 
L 614.273884 205.756113 
L 614.524444 204.944078 
L 614.586696 204.634731 
L 614.685208 204.480058 
L 615.201013 202.430636 
L 615.290675 202.275962 
L 615.819503 200.574556 
L 615.955122 200.110535 
L 616.143369 199.06649 
L 617.278255 194.6583 
L 617.368496 194.271617 
L 617.468629 194.078275 
L 617.723056 192.879556 
L 617.85701 192.492873 
L 617.951576 192.067521 
L 618.112384 191.448828 
L 618.531983 189.902094 
L 618.583221 189.670084 
L 618.696507 189.090059 
L 618.788643 188.896718 
L 618.967397 188.123351 
L 619.095099 187.659331 
L 619.153244 187.504657 
L 619.262078 186.924632 
L 619.953066 184.604532 
L 620.05463 184.41119 
L 620.322772 183.831165 
L 620.42898 183.560487 
L 620.533928 183.135135 
L 620.894497 181.85908 
L 621.153824 180.969708 
L 621.340103 180.080337 
L 621.485301 179.616317 
L 621.644407 179.422975 
L 622.506314 175.749483 
L 622.567318 175.517473 
L 622.818573 174.628101 
L 622.96542 174.241418 
L 623.072848 173.893403 
L 623.690119 171.805312 
L 623.825213 171.650639 
L 623.924774 171.186619 
L 623.963834 170.954609 
L 624.174358 170.374584 
L 624.335682 169.910564 
L 626.486805 163.25961 
L 626.551143 163.066268 
L 626.681366 162.79559 
L 626.781511 162.292901 
L 628.325253 157.923379 
L 628.451571 157.730038 
L 629.054473 155.989962 
L 629.150467 155.796621 
L 629.234329 155.409937 
L 629.357368 155.216596 
L 629.681519 154.249887 
L 629.823892 153.785867 
L 629.922193 153.47652 
L 630.389912 152.355139 
L 630.436658 151.891119 
L 630.532235 151.736445 
L 631.875029 148.178958 
L 632.201176 147.560265 
L 632.283762 147.289586 
L 632.39427 146.902903 
L 632.533314 146.361546 
L 632.621208 146.206873 
L 632.759291 145.704185 
L 632.888844 145.472175 
L 632.980371 145.35617 
L 633.079859 145.046823 
L 633.160139 144.814813 
L 633.259096 144.621471 
L 633.357479 144.273456 
L 633.499126 143.964109 
L 633.665713 143.577426 
L 633.811442 143.384084 
L 634.718275 141.566673 
L 634.821984 141.295994 
L 634.945237 140.947979 
L 635.061502 140.754637 
L 635.283871 140.367954 
L 635.796149 139.130567 
L 635.903473 138.743884 
L 636.961362 136.462452 
L 637.035506 136.230442 
L 637.118812 135.882427 
L 637.198327 135.650417 
L 637.28689 135.302402 
L 637.471239 135.147729 
L 637.558355 134.838382 
L 637.962571 133.717 
L 638.117096 133.562327 
L 639.201687 131.126221 
L 639.349394 130.778206 
L 639.41296 130.546196 
L 639.508759 130.352855 
L 640.458483 128.187428 
L 640.559564 127.839413 
L 640.702942 127.452729 
L 640.833904 127.259388 
L 641.020364 126.524689 
L 641.602028 125.325971 
L 641.768413 124.745946 
L 642.510997 123.083207 
L 643.048765 121.575142 
L 643.173156 121.304464 
L 644.424189 118.791022 
L 644.565899 118.443007 
L 645.354951 116.586927 
L 645.464726 116.432253 
L 645.690526 116.006901 
L 645.842138 115.774891 
L 645.945847 115.542881 
L 646.278863 114.88552 
L 646.426146 114.576173 
L 646.789101 113.764138 
L 646.992886 113.377454 
L 647.141989 112.913434 
L 647.373312 112.642756 
L 647.523192 112.372078 
L 647.673395 111.985394 
L 647.831976 111.676048 
L 647.935831 111.405369 
L 648.13779 110.864013 
L 648.46117 110.167982 
L 648.644704 109.935972 
L 649.100367 109.085269 
L 649.221547 108.775922 
L 649.463024 108.350571 
L 649.498409 108.157229 
L 649.635367 108.002556 
L 649.741238 107.770546 
L 650.369794 106.455822 
L 650.570483 106.301149 
L 650.802109 105.721124 
L 651.017931 105.489114 
L 651.12473 105.218435 
L 652.133333 103.401023 
L 652.342609 103.091677 
L 652.45646 102.78233 
L 655.172036 97.832783 
L 655.359513 97.639441 
L 655.603568 97.291426 
L 655.701894 96.982079 
L 655.954352 96.518059 
L 656.041045 96.324718 
L 656.120377 96.170044 
L 656.252748 95.938034 
L 656.905202 94.700647 
L 656.974158 94.545974 
L 657.247607 94.275296 
L 657.348056 94.004617 
L 657.931699 92.573889 
L 658.133721 92.380547 
L 659.650046 90.253789 
L 659.720399 90.137784 
L 659.903838 89.905774 
L 660.010283 89.635095 
L 660.591247 88.82306 
L 660.734524 88.668387 
L 661.277208 88.165698 
L 661.528706 88.011025 
L 661.664098 87.933688 
L 662.728052 86.425623 
L 662.887044 86.193613 
L 663.214058 85.729593 
L 663.484196 85.536252 
L 665.360626 83.177483 
L 665.583279 83.02281 
L 665.909679 82.365448 
L 666.022747 82.210774 
L 667.727446 80.122684 
L 669.216487 78.807961 
L 669.479984 78.421277 
L 669.74508 78.189267 
L 669.891062 77.957257 
L 670.244058 77.647911 
L 670.26848 77.570574 
L 670.498412 77.377232 
L 670.721982 77.222559 
L 671.008612 76.913212 
L 671.074434 76.835876 
L 671.257551 76.681202 
L 671.45074 76.371856 
L 671.770746 76.139845 
L 671.832619 75.830499 
L 672.370141 75.32781 
L 672.47936 75.018464 
L 672.621841 74.941127 
L 672.861416 74.709117 
L 672.999923 74.554444 
L 673.254125 74.283765 
L 674.019532 73.355725 
L 674.108841 73.23972 
L 674.866147 72.853037 
L 675.10413 72.621027 
L 675.463729 72.31168 
L 675.669606 72.002333 
L 676.127139 71.692987 
L 676.528353 71.267635 
L 676.6349 71.112962 
L 678.421477 69.488891 
L 678.625724 69.334218 
L 678.805909 69.024871 
L 678.979067 68.870198 
L 679.278259 68.715525 
L 679.444442 68.406178 
L 679.628822 68.251505 
L 679.747551 68.058163 
L 679.95564 67.864821 
L 680.268935 67.67148 
L 680.417628 67.516806 
L 680.749083 67.284796 
L 681.475143 66.782108 
L 681.58864 66.666103 
L 681.902884 66.472761 
L 681.912463 66.434093 
L 682.465958 66.202083 
L 682.46908 66.163414 
L 682.777042 65.970073 
L 682.833064 65.892736 
L 683.216586 65.738063 
L 683.798427 65.158038 
L 684.905886 64.616681 
L 685.423252 64.268666 
L 685.804612 63.920651 
L 686.422787 63.727309 
L 686.551082 63.611304 
L 687.990262 62.373917 
L 688.530716 62.141907 
L 688.668527 62.025902 
L 689.271865 61.677887 
L 690.310576 60.67251 
L 690.877632 60.479169 
L 691.979796 59.899144 
L 692.84349 59.241782 
L 693.622843 59.009772 
L 698.635089 55.993642 
L 698.981141 55.838968 
L 699.799151 55.220275 
L 699.802689 55.181607 
L 700.093869 55.026933 
L 700.160557 54.833592 
L 700.618564 54.64025 
L 700.705308 54.524245 
L 701.064363 54.369571 
L 701.098447 54.253566 
L 701.569546 54.098893 
L 702.647193 53.750878 
L 703.956232 53.093516 
L 704.795271 52.474823 
L 705.319802 52.281481 
L 707.118909 51.430778 
L 707.766858 51.160099 
L 708.051883 50.850753 
L 708.843279 50.193391 
L 709.410928 50.000049 
L 709.783468 49.768039 
L 709.953556 49.652034 
L 710.546202 49.381356 
L 710.667383 49.265351 
L 711.188047 48.917336 
L 711.399118 48.723994 
L 712.609294 48.066632 
L 713.06466 47.911959 
L 713.208815 47.795954 
L 713.472167 47.602612 
L 713.970462 47.447939 
L 713.984945 47.409271 
L 714.330453 47.215929 
L 714.358357 47.177261 
L 715.245229 46.906582 
L 715.464413 46.713241 
L 715.808291 46.519899 
L 716.008329 46.365226 
L 717.040621 45.978542 
L 717.41445 45.785201 
L 717.976754 45.630527 
L 718.012935 45.591859 
L 718.869894 45.359849 
L 718.988888 45.243844 
L 719.373206 45.011834 
L 719.779741 44.818492 
L 720.707078 44.547814 
L 721.468194 44.199799 
L 721.81642 43.967789 
L 722.145878 43.813115 
L 722.179279 43.774447 
L 722.641065 43.619774 
L 722.66754 43.581105 
L 723.250191 43.387764 
L 723.447411 43.271759 
L 724.782445 43.039749 
L 724.849816 42.962412 
L 726.425113 42.53706 
L 726.482829 42.459724 
L 727.431953 42.150377 
L 727.896645 41.918367 
L 728.576869 41.60902 
L 728.802612 41.415678 
L 729.743926 41.183668 
L 729.952432 40.990327 
L 730.342626 40.796985 
L 731.11379 40.642312 
L 731.187896 40.564975 
L 731.784536 40.371633 
L 731.931889 40.255628 
L 733.300716 39.830277 
L 733.45536 39.675603 
L 733.907958 39.52093 
L 734.74169 39.05691 
L 734.74169 39.018242 
L 735.963088 38.786231 
L 736.525089 38.59289 
L 736.591334 38.554221 
L 737.274971 38.399548 
L 737.441065 38.322211 
L 738.251404 38.167538 
L 738.307072 38.090201 
L 739.002398 37.858191 
L 739.016767 37.819523 
L 740.854115 37.471508 
L 741.127995 37.316835 
L 741.57181 37.123493 
L 741.581452 37.084825 
L 742.001938 36.891483 
L 742.170762 36.73681 
L 743.063346 36.466131 
L 743.134129 36.311458 
L 744.543649 35.731433 
L 745.253444 35.576759 
L 746.629209 35.267413 
L 747.623108 34.996734 
L 748.727205 34.842061 
L 749.192188 34.726056 
L 750.149299 34.494046 
L 751.661309 34.184699 
L 753.298795 34.030026 
L 753.317714 33.991358 
L 754.117678 33.759348 
L 755.826554 33.024649 
L 755.830282 32.985981 
L 757.722881 32.444624 
L 758.948298 32.289951 
L 759.855137 31.980604 
L 761.241328 31.825931 
L 761.266692 31.748594 
L 764.298394 31.129901 
L 764.361998 31.091232 
L 765.271997 30.897891 
L 765.474234 30.665881 
L 766.404971 30.511207 
L 769.786036 30.317866 
L 774.783319 29.931182 
L 774.891496 29.853846 
L 780.191826 28.887137 
L 781.671243 28.655127 
L 781.766163 28.57779 
L 784.032351 28.423117 
L 784.658815 28.191107 
L 784.690864 28.152439 
L 786.066528 27.959097 
L 786.237841 27.88176 
L 789.416644 27.495077 
L 794.693948 26.799047 
L 795.027804 26.644374 
L 796.829376 26.4897 
L 796.947966 26.412363 
L 798.215074 26.219022 
L 803.512447 25.56166 
L 805.688214 25.32965 
L 808.137405 24.981635 
L 809.915218 24.86563 
L 813.522304 24.63362 
L 827.19369 23.898922 
L 830.917294 23.744248 
L 831.040433 23.70558 
L 833.095866 23.550907 
L 834.684017 23.357565 
L 834.718112 23.318896 
L 839.808281 23.125555 
L 844.258286 22.893545 
L 844.574829 22.854876 
L 855.448154 22.506861 
L 856.545642 22.390856 
L 867.368443 22.158846 
L 867.859105 22.120178 
L 886.501589 21.656158 
L 887.892191 21.540153 
L 893.753447 21.38548 
L 919.345804 21.192138 
L 925.321808 21.037465 
L 974.711648 20.805455 
L 974.711648 20.805455 
" clip-path="url(#p2e25973db7)" style="fill: none; stroke: #008000; stroke-width: 1.5; stroke-linecap: square"/>
   </g>
   <g id="patch_8">
    <path d="M 554.549375 306.52 
L 554.549375 7.2 
" style="fill: none; stroke: #000000; stroke-width: 0.8; stroke-linejoin: miter; stroke-linecap: square"/>
   </g>
   <g id="patch_9">
    <path d="M 994.719375 306.52 
L 994.719375 7.2 
" style="fill: none; stroke: #000000; stroke-width: 0.8; stroke-linejoin: miter; stroke-linecap: square"/>
   </g>
   <g id="patch_10">
    <path d="M 554.549375 306.52 
L 994.719375 306.52 
" style="fill: none; stroke: #000000; stroke-width: 0.8; stroke-linejoin: miter; stroke-linecap: square"/>
   </g>
   <g id="patch_11">
    <path d="M 554.549375 7.2 
L 994.719375 7.2 
" style="fill: none; stroke: #000000; stroke-width: 0.8; stroke-linejoin: miter; stroke-linecap: square"/>
   </g>
  </g>
 </g>
 <defs>
  <clipPath id="p737c1af92e">
   <rect x="55.949375" y="7.2" width="440.17" height="299.32"/>
  </clipPath>
  <clipPath id="p2e25973db7">
   <rect x="554.549375" y="7.2" width="440.17" height="299.32"/>
  </clipPath>
 </defs>
</svg>
